<svg width="68" height="83" viewBox="0 0 68 83" fill="none" xmlns="http://www.w3.org/2000/svg">
<g filter="url(#filter0_f_4448_14763)">
<ellipse cx="37.5" cy="70.5" rx="14.5" ry="2.5" fill="black" fill-opacity="0.15"/>
</g>
<path d="M27.4745 0.0546875L30.526 13.7876L45.5499 0.709291L27.4745 0.0546875Z" fill="url(#paint0_radial_4448_14763)"/>
<path d="M0 12.1856L43.4624 13.2648L45.5499 0.709473L0 12.1856Z" fill="#763000"/>
<path d="M42.4234 70.6617L17.3338 63.7834L38.9758 59.0373L42.4234 70.6617Z" fill="url(#paint1_radial_4448_14763)"/>
<path d="M17.4362 64L66 53.7237L61.7078 36L12 42.4436L17.4362 64Z" fill="url(#paint2_radial_4448_14763)"/>
<path d="M0 11.8293L5.06606 59L66.3671 54.0452L68 2L0 11.8293Z" fill="url(#paint3_radial_4448_14763)"/>
<defs>
<filter id="filter0_f_4448_14763" x="13" y="58" width="49" height="25" filterUnits="userSpaceOnUse" color-interpolation-filters="sRGB">
<feFlood flood-opacity="0" result="BackgroundImageFix"/>
<feBlend mode="normal" in="SourceGraphic" in2="BackgroundImageFix" result="shape"/>
<feGaussianBlur stdDeviation="5" result="effect1_foregroundBlur_4448_14763"/>
</filter>
<radialGradient id="paint0_radial_4448_14763" cx="0" cy="0" r="1" gradientUnits="userSpaceOnUse" gradientTransform="translate(29.8984 -0.327054) scale(23.4488 14.6752)">
<stop stop-color="#FCD702"/>
<stop offset="1" stop-color="#DE5C04"/>
</radialGradient>
<radialGradient id="paint1_radial_4448_14763" cx="0" cy="0" r="1" gradientUnits="userSpaceOnUse" gradientTransform="translate(21.0302 57.8503) rotate(2.77094) scale(32.9415 12.2293)">
<stop stop-color="#FCD702"/>
<stop offset="1" stop-color="#DE5C04"/>
</radialGradient>
<radialGradient id="paint2_radial_4448_14763" cx="0" cy="0" r="1" gradientUnits="userSpaceOnUse" gradientTransform="translate(19.2415 35.2217) scale(70.0531 29.9211)">
<stop stop-color="#DE5C04"/>
<stop offset="1" stop-color="#763000"/>
</radialGradient>
<radialGradient id="paint3_radial_4448_14763" cx="0" cy="0" r="1" gradientUnits="userSpaceOnUse" gradientTransform="translate(6 20) rotate(-9.01932) scale(63.7887 44.045)">
<stop stop-color="#F7C502"/>
<stop offset="0.405" stop-color="#EE9E03"/>
<stop offset="1" stop-color="#FA7A04"/>
</radialGradient>
</defs>
</svg>
