<svg width="100" height="100" viewBox="0 0 100 100" fill="none" xmlns="http://www.w3.org/2000/svg">
<path d="M66.7561 10.4023C65.8256 10.5662 65.0166 10.6607 64.2076 10.7552C57.3863 13.192 52.9877 19.9918 45.2495 19.2559C33.3716 18.1842 18.7212 14.4295 10.7 25.5542C9.41096 27.546 8.58416 29.7759 8.42334 32.0998C8.26252 34.4237 8.76707 36.8415 10.1371 39.2096C13.5266 44.8266 18.2007 49.7468 17.3708 56.6761C16.107 66.909 8.64738 80.9646 17.1707 88.7078C18.1178 89.5671 19.262 90.351 20.6345 91.0403C22.6152 91.9818 24.9121 92.2372 26.9567 91.4699C28.1049 91.0231 29.2589 90.6311 30.4186 90.2939C39.2071 88.1517 47.8845 87.3863 56.8173 88.6624C61.4111 89.4278 66.0054 90.9592 70.8005 90.1355C71.5726 89.9952 72.335 89.8062 73.0833 89.5696C74.6553 89.0706 76.1415 88.3332 77.4898 87.3832C78.1762 86.7622 78.7996 86.0749 79.3509 85.3312C80.9615 83.1479 81.8061 80.5871 81.7312 77.8096C81.692 77.0056 81.5587 76.209 81.3341 75.436C80.3612 72.3725 78.9709 69.3593 77.8053 66.3308C76.6397 63.3022 75.6993 60.2669 75.6275 57.185C75.3089 54.2743 76.6096 51.3894 77.9459 48.7758C81.1536 43.4817 85.6602 39.9486 87.4599 34.2727C88.9871 28.6257 88.5648 22.665 85.5074 17.5562C83.1473 13.7322 79.233 10.6361 74.4385 10.2924C72.1392 10.0131 69.5888 10.0297 66.7561 10.4023Z" fill="#DCE5F7" fill-opacity="0.2"/>
<path d="M76.9245 80.9999L47.1206 79.0555L17.2974 80.9999C17.1807 80.9999 17.0861 80.9053 17.0861 80.7885V41.0322H77.1361V80.7885C77.1359 80.9053 77.0413 80.9999 76.9245 80.9999Z" fill="#8E8E8E"/>
<path d="M77.091 40.9216L47.2107 11.0413C47.1556 10.9862 47.0663 10.9862 47.0112 11.0413L17.1311 40.9216C17.0711 40.9816 17.0711 41.079 17.1311 41.139L47.111 71.1188L77.091 41.1388C77.151 41.0788 77.151 40.9816 77.091 40.9216Z" fill="#6A6A6A"/>
<path d="M76.9244 81C76.9828 81 77.0355 80.9763 77.0738 80.938L47.2104 51.0744C47.1554 51.0195 47.0663 51.0195 47.0113 51.0744L17.1478 80.938C17.1861 80.9763 17.2389 81 17.2973 81H76.9244Z" fill="#838383"/>
<path d="M52.9445 36.2782L47.1112 42.1116L41.2778 36.2782H16.2127C16.0953 36.2782 16 36.1829 16 36.0655V20.9354C16 20.8179 16.0953 20.7227 16.2127 20.7227H78.0096C78.127 20.7227 78.2223 20.8179 78.2223 20.9354V36.0655C78.2223 36.1829 78.127 36.2782 78.0096 36.2782H52.9445Z" fill="#F4AA65"/>
<path d="M26.2197 26.5277C25.9365 26.0373 25.3091 25.8694 24.819 26.1524L23.8312 26.7227V25.582C23.8312 25.0156 23.3722 24.5566 22.8058 24.5566C22.2394 24.5566 21.7804 25.0156 21.7804 25.582V26.7228L20.7925 26.1524C20.3018 25.8693 19.6748 26.0372 19.3918 26.5277C19.1087 27.0181 19.2767 27.6453 19.7671 27.9284L20.755 28.4988L19.7672 29.069C19.2768 29.3522 19.1088 29.9793 19.392 30.4697C19.5819 30.7987 19.9265 30.9826 20.2809 30.9826C20.4548 30.9826 20.6312 30.9383 20.7926 30.845L21.7806 30.2746V31.4154C21.7806 31.9818 22.2395 32.4408 22.806 32.4408C23.3724 32.4408 23.8313 31.9818 23.8313 31.4154V30.2748L24.8191 30.845C24.9807 30.9383 25.157 30.9826 25.3309 30.9826C25.6853 30.9826 26.0299 30.7987 26.2198 30.4697C26.503 29.9793 26.3349 29.3522 25.8445 29.069L24.8566 28.4988L25.8444 27.9285C26.3348 27.6453 26.503 27.0181 26.2197 26.5277Z" fill="#EAF9FA"/>
<path d="M35.9421 26.5277C35.6591 26.0373 35.0317 25.8694 34.5414 26.1524L33.5535 26.7228V25.582C33.5535 25.0156 33.0945 24.5566 32.5281 24.5566C31.9617 24.5566 31.5027 25.0156 31.5027 25.582V26.7227L30.5149 26.1524C30.0242 25.8693 29.3971 26.0372 29.1142 26.5277C28.8311 27.0181 28.9991 27.6453 29.4895 27.9284L30.4773 28.4987L29.4895 29.0689C28.9991 29.352 28.8311 29.9792 29.1142 30.4696C29.3041 30.7985 29.6488 30.9824 30.0032 30.9824C30.1771 30.9824 30.3534 30.9381 30.5149 30.8449L31.5027 30.2746V31.4153C31.5027 31.9817 31.9617 32.4407 32.5281 32.4407C33.0945 32.4407 33.5535 31.9817 33.5535 31.4153V30.2745L34.5414 30.8449C34.703 30.9381 34.8792 30.9824 35.0532 30.9824C35.4075 30.9824 35.7522 30.7985 35.9421 30.4696C36.2252 29.9792 36.0572 29.352 35.5668 29.0689L34.5789 28.4988L35.5667 27.9285C36.0571 27.6453 36.2252 27.0181 35.9421 26.5277Z" fill="#EAF9FA"/>
<path d="M74.4554 29.0689L73.4676 28.4987L74.4554 27.9284C74.9458 27.6453 75.1138 27.0181 74.8306 26.5277C74.5476 26.0373 73.9202 25.8694 73.43 26.1524L72.4422 26.7227V25.582C72.4422 25.0156 71.9832 24.5566 71.4168 24.5566C70.8504 24.5566 70.3914 25.0156 70.3914 25.582V26.7228L69.4035 26.1524C68.9126 25.8693 68.2858 26.0372 68.0028 26.5277C67.7196 27.0181 67.8877 27.6453 68.3781 27.9284L69.3659 28.4987L68.3781 29.0689C67.8877 29.352 67.7196 29.9792 68.0028 30.4696C68.1927 30.7985 68.5373 30.9824 68.8917 30.9824C69.0656 30.9824 69.242 30.9381 69.4035 30.8449L70.3914 30.2745V31.4153C70.3914 31.9817 70.8504 32.4407 71.4168 32.4407C71.9832 32.4407 72.4422 31.9817 72.4422 31.4153V30.2746L73.43 30.8449C73.5916 30.9381 73.7678 30.9824 73.9417 30.9824C74.2961 30.9824 74.6407 30.7985 74.8306 30.4696C75.1138 29.9793 74.9458 29.3522 74.4554 29.0689Z" fill="#EAF9FA"/>
<path d="M65.1082 26.5277C64.8252 26.0373 64.1977 25.8694 63.7075 26.1524L62.7198 26.7227V25.582C62.7198 25.0156 62.2608 24.5566 61.6944 24.5566C61.1279 24.5566 60.669 25.0156 60.669 25.582V26.7228L59.681 26.1524C59.1904 25.8693 58.5634 26.0372 58.2804 26.5277C57.9972 27.0181 58.1652 27.6453 58.6557 27.9284L59.6434 28.4987L58.6557 29.0689C58.1652 29.352 57.9972 29.9792 58.2804 30.4696C58.4703 30.7985 58.8149 30.9824 59.1693 30.9824C59.3432 30.9824 59.5196 30.9381 59.681 30.8449L60.669 30.2745V31.4153C60.669 31.9817 61.1279 32.4407 61.6944 32.4407C62.2608 32.4407 62.7198 31.9817 62.7198 31.4153V30.2746L63.7075 30.8449C63.8692 30.9381 64.0454 30.9824 64.2193 30.9824C64.5737 30.9824 64.9183 30.7985 65.1082 30.4696C65.3914 29.9792 65.2233 29.352 64.7329 29.0689L63.745 28.4988L64.7328 27.9285C65.2232 27.6453 65.3914 27.0181 65.1082 26.5277Z" fill="#EAF9FA"/>
<path d="M45.6639 26.5277C45.3809 26.0373 44.7534 25.8694 44.2632 26.1524L43.2753 26.7228V25.582C43.2753 25.0156 42.8163 24.5566 42.2499 24.5566C41.6835 24.5566 41.2245 25.0156 41.2245 25.582V26.7227L40.2367 26.1524C39.7459 25.8693 39.119 26.0372 38.836 26.5277C38.5529 27.0181 38.7209 27.6453 39.2113 27.9284L40.1991 28.4987L39.2113 29.0689C38.7209 29.352 38.5529 29.9792 38.836 30.4696C39.0259 30.7985 39.3706 30.9824 39.725 30.9824C39.8989 30.9824 40.0752 30.9381 40.2367 30.8449L41.2245 30.2746V31.4153C41.2245 31.9817 41.6835 32.4407 42.2499 32.4407C42.8163 32.4407 43.2753 31.9817 43.2753 31.4153V30.2745L44.2632 30.8449C44.4248 30.9381 44.601 30.9824 44.775 30.9824C45.1293 30.9824 45.474 30.7985 45.6639 30.4696C45.947 29.9792 45.779 29.352 45.2886 29.0689L44.3008 28.4988L45.2886 27.9285C45.779 27.6453 45.947 27.0181 45.6639 26.5277Z" fill="#EAF9FA"/>
<path d="M55.3862 26.5276C55.1032 26.0372 54.4758 25.8693 53.9855 26.1523L52.9976 26.7227V25.582C52.9976 25.0156 52.5386 24.5566 51.9722 24.5566C51.4058 24.5566 50.9468 25.0156 50.9468 25.582V26.7227L49.9589 26.1523C49.4681 25.8691 48.8411 26.037 48.5582 26.5276C48.2751 27.018 48.4431 27.6451 48.9335 27.9283L49.9213 28.4985L48.9335 29.0688C48.4431 29.3519 48.2751 29.979 48.5582 30.4694C48.7481 30.7984 49.0928 30.9823 49.4471 30.9823C49.621 30.9823 49.7974 30.938 49.9589 30.8447L50.9468 30.2744V31.415C50.9468 31.9814 51.4058 32.4404 51.9722 32.4404C52.5386 32.4404 52.9976 31.9814 52.9976 31.415V30.2744L53.9855 30.8447C54.1471 30.938 54.3233 30.9823 54.4973 30.9823C54.8516 30.9823 55.1963 30.7984 55.3862 30.4694C55.6693 29.979 55.5013 29.3519 55.0109 29.0688L54.0231 28.4987L55.0109 27.9284C55.5013 27.6451 55.6695 27.018 55.3862 26.5276Z" fill="#EAF9FA"/>
</svg>
