<svg width="17" height="16" viewBox="0 0 17 16" fill="none" xmlns="http://www.w3.org/2000/svg">
<g id="fi_9281502" clip-path="url(#clip0_13247_1039)">
<g id="Layer_2_00000171706543325580073940000002006218521775067071_">
<g id="_06.celebration_icon">
<path id="Vector" d="M1.18436 15.9656L9.96874 12.3531C10.2094 12.2531 10.2937 11.9593 10.1469 11.7156C9.73749 11.0249 8.87811 9.68431 7.78749 8.59368C6.73124 7.53743 5.44999 6.73118 4.78124 6.34368C4.53749 6.20306 4.24686 6.28743 4.14999 6.52493L0.534361 15.3187C0.378111 15.6999 0.799985 16.1249 1.18436 15.9656Z" fill="#ED3F03"/>
<path id="Vector_2" d="M4.8376 14.466L2.78447 15.3098L1.19385 13.716L2.0376 11.666L4.8376 14.466Z" fill="#FCB424"/>
<path id="Vector_3" d="M8.55342 12.9348L6.50342 13.7785L2.72217 10.0004L3.56592 7.94727L8.55342 12.9348Z" fill="#FCB424"/>
<path id="Vector_4" d="M8.12834 8.30625C8.09084 8.26875 8.08771 8.20625 8.12209 8.1625L11.5346 4.03125L12.4033 4.9L8.27209 8.3125C8.23146 8.34688 8.16896 8.34375 8.12834 8.30625Z" fill="#07B7EE"/>
<path id="Vector_5" d="M8.78438 8.87185C9.29063 8.43123 11.6188 6.52185 13.8625 6.82185L13.8844 8.19685C13.8844 8.19685 12.0625 7.34685 8.92814 9.0781C8.87814 9.10623 8.81876 9.09685 8.77813 9.05623C8.72813 9.00935 8.72813 8.9281 8.77501 8.8781C8.77813 8.87498 8.78126 8.87185 8.78438 8.87185Z" fill="#ED3F03"/>
<path id="Vector_6" d="M7.56275 7.65273C8.00337 7.14648 9.91275 4.81836 9.61275 2.57461L8.23775 2.55273C8.23775 2.55273 9.09087 4.37461 7.3565 7.50898C7.32837 7.55898 7.33775 7.61836 7.37837 7.65898C7.42837 7.70898 7.5065 7.70898 7.5565 7.65898C7.55962 7.65586 7.56275 7.65273 7.56275 7.65273Z" fill="#FCB424"/>
<path id="Vector_7" d="M13.7784 2.67852C13.4597 3.19414 13.4628 3.70352 13.7784 4.21914C13.7815 4.22539 13.7815 4.23477 13.7753 4.23789C13.7722 4.24102 13.7659 4.24102 13.7628 4.23789C13.244 3.91289 12.7347 3.91914 12.2159 4.23789C12.2097 4.24102 12.2003 4.24102 12.1972 4.23477C12.194 4.23164 12.194 4.22539 12.1972 4.22227C12.5222 3.70352 12.519 3.19727 12.2003 2.67539C12.1972 2.66914 12.1972 2.65977 12.2034 2.65664C12.2065 2.65352 12.2128 2.65352 12.219 2.65664C12.7347 2.97852 13.2409 2.97852 13.7597 2.65977C13.7659 2.65352 13.7722 2.65352 13.7784 2.65977C13.7847 2.66289 13.7847 2.67227 13.7784 2.67852Z" fill="#07B7EE"/>
<path id="Vector_8" d="M16.4877 7.89068C15.8845 7.95005 15.4845 8.26255 15.2658 8.8313C15.2627 8.83755 15.2564 8.84068 15.247 8.83755C15.2408 8.83443 15.2377 8.8313 15.2377 8.82505C15.1783 8.21568 14.8658 7.81568 14.297 7.60005C14.2908 7.59693 14.2877 7.59068 14.2908 7.5813C14.2939 7.57505 14.297 7.57193 14.3033 7.57193C14.9127 7.51568 15.3127 7.20318 15.5314 6.63443C15.5345 6.62818 15.5408 6.62505 15.5502 6.62818C15.5564 6.6313 15.5595 6.63443 15.5595 6.64068C15.6189 7.24693 15.9283 7.64693 16.4939 7.86568C16.5002 7.8688 16.5033 7.87818 16.5002 7.88443C16.4939 7.88755 16.4908 7.89068 16.4877 7.89068Z" fill="#ED3F03"/>
<path id="Vector_9" d="M8.60972 0.0127494C8.54722 0.615874 8.23785 1.019 7.6691 1.23462C7.66285 1.23775 7.65972 1.244 7.66285 1.25337C7.66597 1.25962 7.6691 1.26275 7.67535 1.26275C8.28472 1.319 8.68472 1.63462 8.90035 2.20337C8.90347 2.20962 8.90972 2.21275 8.9191 2.20962C8.92535 2.2065 8.92847 2.20337 8.92847 2.19712C8.98472 1.58775 9.29722 1.18775 9.86597 0.968999C9.87222 0.965874 9.87535 0.959624 9.87222 0.950249C9.8691 0.943999 9.86597 0.940874 9.85972 0.940874C9.25347 0.881499 8.85347 0.572124 8.63472 0.00649939C8.6316 0.00024939 8.62535 -0.00287561 8.6191 0.00024939C8.61285 0.00337439 8.60972 0.00649939 8.60972 0.0127494Z" fill="#FCB424"/>
<path id="Vector_10" d="M13.0221 10.5905L12.9408 10.8967C12.9315 10.928 12.9408 10.9655 12.9658 10.9873L13.1908 11.2092C13.2283 11.2467 13.2283 11.303 13.194 11.3405C13.1815 11.353 13.1658 11.3623 13.1502 11.3655L12.844 11.4467C12.8096 11.4561 12.7846 11.4811 12.7783 11.5123L12.6971 11.8186C12.6846 11.8686 12.6346 11.8998 12.5846 11.8873C12.5658 11.8842 12.5502 11.8748 12.5408 11.8623L12.319 11.6405C12.294 11.6155 12.2596 11.6061 12.2283 11.6155L11.9221 11.6967C11.8721 11.7123 11.819 11.6811 11.8065 11.6311C11.8002 11.6155 11.8002 11.5967 11.8065 11.578L11.8877 11.2717C11.8971 11.2405 11.8877 11.203 11.8627 11.1811L11.6408 10.9592C11.6033 10.9217 11.6033 10.8655 11.6377 10.828C11.6502 10.8155 11.6658 10.8061 11.6815 10.803L11.9877 10.7217C12.019 10.7123 12.0471 10.6873 12.0533 10.6561L12.1346 10.3498C12.1471 10.2998 12.1971 10.2686 12.2471 10.2811C12.2627 10.2842 12.2783 10.2936 12.2908 10.3061L12.5158 10.528C12.5408 10.553 12.5752 10.5623 12.6065 10.553L12.9127 10.4717C12.9627 10.4561 13.0158 10.4873 13.0283 10.5342C13.0252 10.5561 13.0252 10.5748 13.0221 10.5905Z" fill="#FCB424"/>
<path id="Vector_11" d="M6.31867 3.88713L6.23742 4.19338C6.22804 4.22463 6.23741 4.26213 6.26241 4.28401L6.48429 4.50901C6.52179 4.54651 6.52179 4.60276 6.48742 4.64026C6.47492 4.65276 6.45929 4.66213 6.44367 4.66526L6.13741 4.74651C6.10616 4.75588 6.07804 4.78088 6.07179 4.81213L5.99054 5.11838C5.97804 5.16838 5.92804 5.19963 5.87804 5.18713C5.86242 5.18401 5.84679 5.17463 5.83429 5.16213L5.61242 4.94026C5.58742 4.91526 5.55304 4.90588 5.52179 4.91526L5.21554 4.99651C5.16554 5.01213 5.11242 4.98088 5.09992 4.93401C5.09367 4.91838 5.09367 4.89963 5.09992 4.88088L5.18117 4.57463C5.19054 4.54338 5.18117 4.50588 5.15617 4.48401L4.93429 4.26213C4.89679 4.22776 4.89679 4.16838 4.93117 4.13088C4.94367 4.11838 4.95929 4.10901 4.97492 4.10588L5.28117 4.02463C5.31242 4.01526 5.34054 3.99026 5.34679 3.95588L5.42804 3.64963C5.44054 3.59963 5.49054 3.56838 5.54054 3.58088C5.55617 3.58401 5.57179 3.59338 5.58429 3.60588L5.80617 3.83088C5.83117 3.85588 5.86554 3.86526 5.89679 3.85588L6.20304 3.77463C6.25304 3.75901 6.30616 3.79026 6.31867 3.84026C6.32179 3.85276 6.32179 3.87151 6.31867 3.88713Z" fill="#ED3F03"/>
</g>
</g>
</g>
<defs>
<clipPath id="clip0_13247_1039">
<rect width="16" height="16" fill="white" transform="translate(0.5)"/>
</clipPath>
</defs>
</svg>
