<svg width="28" height="28" viewBox="0 0 28 28" fill="none" xmlns="http://www.w3.org/2000/svg">
<path d="M27.1759 13.9954C27.1759 15.6499 24.9693 16.8539 24.3736 18.2924C23.7558 19.7842 24.4432 22.1898 23.3203 23.3139C22.197 24.4385 19.7907 23.7534 18.3001 24.3722C16.8616 24.9693 15.6585 27.1763 14.0044 27.1763C12.3491 27.1763 11.1447 24.9695 9.70575 24.3731C8.21361 23.7548 5.80717 24.4408 4.683 23.3166C3.55886 22.1925 4.24497 19.7861 3.62662 18.294C3.03028 16.855 0.823517 15.6506 0.823517 13.9954C0.823517 12.3412 3.03051 11.1381 3.62762 9.69963C4.24641 8.20892 3.56138 5.80261 4.68597 4.67926C5.81009 3.55638 8.21567 4.24383 9.70742 3.62605C11.1459 3.03033 12.3499 0.823761 14.0044 0.823761C15.6578 0.823761 16.8605 3.03056 18.2985 3.62704C19.7889 4.24527 22.1943 3.5589 23.3176 4.68225C24.4409 5.80555 23.7545 8.21098 24.3726 9.70131C24.9691 11.1393 27.1759 12.342 27.1759 13.9954Z" fill="#4FAD40"/>
<path d="M27.1765 13.9954C27.1765 15.6482 24.9713 16.8541 24.3726 18.2919C23.757 19.7845 24.4442 22.1878 23.3185 23.3136C22.197 24.4393 19.7894 23.7521 18.301 24.3719C16.8632 24.9706 15.6573 27.1758 14.0045 27.1758C12.3474 27.1758 11.1458 24.9706 9.70376 24.3719C8.21537 23.7563 5.80783 24.4394 4.68209 23.3178C4.0623 22.6938 3.99477 21.6818 3.95267 20.6488C5.06575 20.8807 6.4951 20.6657 7.48595 21.0789C8.81834 21.6313 9.93569 23.6804 11.4705 23.6804C13.0052 23.6804 14.1183 21.6313 15.4507 21.0789C16.8337 20.5055 19.0642 21.1422 20.1056 20.1007C21.147 19.0551 20.5104 16.8288 21.0795 15.4458C21.6319 14.1092 23.6769 12.9961 23.6769 11.4613C23.6769 9.93079 21.6319 8.81344 21.0795 7.48107C20.6664 6.49024 20.8814 5.06088 20.6495 3.95197C21.6825 3.99412 22.6945 4.06159 23.3185 4.68139C24.44 5.80715 23.7528 8.2105 24.3726 9.70311C24.9671 11.1409 27.1765 12.3426 27.1765 13.9954Z" fill="#4FAD40"/>
<path d="M10.1513 5.05601C10.0908 5.05601 10.0333 5.02022 10.0085 4.96071C9.97595 4.88189 10.0134 4.79142 10.0922 4.75885C10.6425 4.53125 11.1586 4.04791 11.7048 3.53602C12.5044 2.78728 13.3312 2.01321 14.3437 2.01321C14.429 2.01321 14.4981 2.08238 14.4981 2.16763C14.4981 2.25287 14.429 2.32204 14.3437 2.32204C13.4532 2.32204 12.6717 3.05388 11.916 3.7616C11.3735 4.26947 10.8125 4.79504 10.2104 5.04435C10.1911 5.05239 10.171 5.05601 10.1513 5.05601Z" fill="white"/>
<path d="M2.22561 14.1498C2.14036 14.1498 2.0712 14.0807 2.0712 13.9954C2.0712 12.9588 2.86477 12.1123 3.6324 11.2932C4.15716 10.7335 4.65277 10.2047 4.8872 9.64052C4.91977 9.56171 5.01065 9.52471 5.08886 9.55688C5.16768 9.58985 5.20507 9.67993 5.1723 9.75874C4.91656 10.3752 4.37833 10.9494 3.85779 11.5047C3.13117 12.2796 2.38002 13.081 2.38002 13.9954C2.38002 14.0807 2.31086 14.1498 2.22561 14.1498Z" fill="white"/>
<path d="M14.8031 23.8739C14.3542 24.2943 13.6525 24.2944 13.2035 23.8741C13.1801 23.8523 13.1574 23.831 13.1355 23.8104C12.4577 23.1759 11.6896 22.4569 10.6742 22.0361C9.63104 21.6038 8.55677 21.5622 7.60891 21.526C7.60477 21.5258 7.60061 21.5257 7.59643 21.5255C6.98719 21.5022 6.49765 21.0126 6.47438 20.4033C6.47422 20.3991 6.47406 20.3949 6.4739 20.3908C6.43725 19.4429 6.39608 18.3686 5.96374 17.3256C5.54292 16.3098 4.82359 15.5419 4.18907 14.8642C4.16836 14.8421 4.14695 14.8192 4.12499 14.7957C3.70527 14.3468 3.70538 13.6457 4.12525 13.1969C4.1469 13.1738 4.16802 13.1512 4.18845 13.1294C4.82338 12.4521 5.54292 11.6846 5.96415 10.6692C6.39691 9.62663 6.4387 8.55277 6.47555 7.60532C6.4757 7.60154 6.47584 7.59773 6.47599 7.59391C6.49969 6.98494 6.9891 6.49589 7.59809 6.4726C7.60184 6.47246 7.60559 6.47231 7.60932 6.47217C8.55718 6.43635 9.63145 6.39558 10.6753 5.96366C11.6913 5.54284 12.4594 4.82309 13.1371 4.18858C13.1587 4.16838 13.181 4.1475 13.2039 4.1261C13.653 3.70616 14.3546 3.7065 14.8033 4.1269C14.8256 4.14788 14.8475 4.16835 14.8686 4.18817C15.5461 4.8231 16.3138 5.54284 17.3296 5.96407C18.3724 6.39642 19.4467 6.438 20.3948 6.47424C20.398 6.47436 20.4012 6.47448 20.4045 6.47461C21.0131 6.49794 21.5019 6.98683 21.5253 7.59545C21.5254 7.59875 21.5255 7.60205 21.5256 7.60533C21.5621 8.55319 21.6033 9.62746 22.036 10.6704C22.457 11.6858 23.1768 12.4538 23.8117 13.1311C23.8317 13.1524 23.8523 13.1744 23.8734 13.1969C24.2933 13.6458 24.2934 14.347 23.8735 14.7959C23.8521 14.8187 23.8313 14.841 23.8111 14.8625C23.1764 15.5403 22.457 16.3086 22.0362 17.3244C21.6039 18.3682 21.5631 19.4429 21.5273 20.3908C21.5271 20.3944 21.527 20.3981 21.5269 20.4018C21.5036 21.0106 21.0148 21.4998 20.4061 21.5238C20.4021 21.524 20.3981 21.5242 20.3941 21.5243C19.4467 21.561 18.373 21.603 17.3307 22.0353C16.3153 22.4569 15.5478 23.1763 14.8704 23.8108C14.8487 23.8312 14.8262 23.8523 14.8031 23.8739Z" fill="#92E884"/>
<path d="M21.5347 7.81416C20.1559 7.11848 18.6001 6.73055 16.9515 6.73055C11.3015 6.73055 6.73095 11.3053 6.73095 16.9511C6.73095 18.5997 7.11882 20.1555 7.81459 21.5343C7.74289 21.5301 7.67542 21.5301 7.60799 21.5258H7.59533C6.98814 21.5005 6.49903 21.0115 6.47375 20.4043V20.3916C6.43582 19.443 6.39784 18.3678 5.96354 17.3263C5.5419 16.3102 4.82513 15.5428 4.18846 14.864C4.16735 14.8429 4.1463 14.8176 4.12525 14.7965C3.70361 14.3453 3.70361 13.6454 4.12525 13.1985C4.1463 13.1732 4.16735 13.1521 4.18846 13.131C4.82513 12.4522 5.5419 11.6848 5.96354 10.6687C6.39784 9.62723 6.44004 8.55203 6.47375 7.60335C6.47375 7.60335 6.47375 7.59913 6.47797 7.59493C6.49902 6.98355 6.98814 6.49443 7.59955 6.47336H7.60799C8.55667 6.43542 9.63182 6.39746 10.6733 5.96319C11.6894 5.54155 12.461 4.82477 13.1356 4.18809C13.1567 4.16701 13.182 4.14593 13.2031 4.12483C13.6542 3.70741 14.3542 3.70741 14.8053 4.12483C14.8264 4.14593 14.8475 4.16701 14.8686 4.18809C15.5474 4.82477 16.3148 5.54155 17.3309 5.96319C18.3724 6.39746 19.4476 6.43962 20.3963 6.47336H20.4046C21.0118 6.49865 21.5009 6.98777 21.5263 7.59493V7.60335C21.5304 7.67082 21.5304 7.74249 21.5347 7.81416Z" fill="#78C76B"/>
<path d="M10.0005 12.9817C9.06999 12.9817 8.31302 12.2249 8.31302 11.2944C8.31302 11.1239 8.45135 10.9856 8.62184 10.9856C8.79234 10.9856 8.93067 11.1239 8.93067 11.2944C8.93067 11.8843 9.41059 12.364 10.0005 12.364C10.5906 12.364 11.0705 11.8843 11.0705 11.2944V7.87483C11.0705 7.70434 11.2088 7.56601 11.3793 7.56601C11.5498 7.56601 11.6882 7.70434 11.6882 7.87483V11.2944C11.6882 12.2249 10.931 12.9817 10.0005 12.9817Z" fill="#363636"/>
<path d="M13.0407 12.9817H12.5356C12.3651 12.9817 12.2268 12.8434 12.2268 12.6729C12.2268 12.5024 12.3651 12.364 12.5356 12.364H13.0407C14.0329 12.364 14.8401 11.557 14.8401 10.565V7.87483C14.8401 7.70434 14.9785 7.56601 15.149 7.56601C15.3195 7.56601 15.4578 7.70434 15.4578 7.87483V10.565C15.4578 11.8976 14.3735 12.9817 13.0407 12.9817Z" fill="#363636"/>
<path d="M16.4178 12.8803C16.0346 12.8803 15.6614 12.7404 15.3711 12.4839C15.0337 12.1851 14.8401 11.756 14.8401 11.3061V7.87483C14.8401 7.70434 14.9784 7.56601 15.1489 7.56601C15.3194 7.56601 15.4578 7.70434 15.4578 7.87483V11.3061C15.4578 11.5791 15.5754 11.8397 15.7805 12.021C15.9865 12.2036 16.261 12.2884 16.5352 12.2555C17.0101 12.1972 17.4541 12.1228 17.8833 12.0512C18.2509 11.9897 18.6013 11.9314 18.9634 11.8831C18.7459 11.6378 18.5852 11.3998 18.4409 11.1858C18.1393 10.7391 18.0114 10.5827 17.7613 10.5827C17.2709 10.5827 17.0811 11.1754 17.0793 11.1814C17.0286 11.3439 16.8561 11.4368 16.6929 11.3845C16.5298 11.3342 16.4389 11.1609 16.4894 10.9981C16.5025 10.9558 16.8209 9.96502 17.7613 9.96502C18.362 9.96502 18.6489 10.3901 18.9527 10.8404C19.1102 11.0737 19.2885 11.3378 19.5364 11.5924C19.6763 11.7359 19.7222 11.9418 19.656 12.1296C19.5901 12.3166 19.4258 12.4481 19.2274 12.4718C18.8102 12.5225 18.4093 12.5896 17.9849 12.6604C17.5494 12.7332 17.0988 12.8084 16.6104 12.8683C16.5463 12.8763 16.4819 12.8803 16.4178 12.8803Z" fill="#363636"/>
<path d="M14.5146 12.0412C14.4139 12.0412 14.315 11.9917 14.2559 11.9012L12.54 9.27139C12.4467 9.12824 12.487 8.93724 12.6299 8.84394C12.7725 8.75065 12.9641 8.79086 13.0572 8.93361L14.773 11.5634C14.8663 11.7066 14.8261 11.8976 14.6831 11.9909C14.631 12.0251 14.5725 12.0412 14.5146 12.0412Z" fill="#363636"/>
<path d="M10.3292 16.2239C10.3554 16.2239 10.3781 16.2336 10.3974 16.2525C10.4165 16.2718 10.4259 16.2943 10.4259 16.3204V18.6358C10.4259 18.6624 10.4165 18.6849 10.3974 18.7042C10.3781 18.7231 10.3554 18.7327 10.3292 18.7327H10.0389C10.0126 18.7327 9.98985 18.7231 9.97075 18.7042C9.95164 18.6849 9.94219 18.6624 9.94219 18.6358V17.6896H8.8597V18.6358C8.8597 18.6624 8.85005 18.6849 8.83095 18.7042C8.81185 18.7231 8.78913 18.7327 8.76299 18.7327H8.47267C8.44634 18.7327 8.42361 18.7239 8.40451 18.7058C8.38541 18.6881 8.37576 18.6648 8.37576 18.6358V16.3205C8.37576 16.2943 8.38541 16.2718 8.40451 16.2525C8.42361 16.2336 8.44633 16.2239 8.47267 16.2239H8.763C8.78914 16.2239 8.81185 16.2336 8.83096 16.2525C8.85006 16.2718 8.85971 16.2943 8.85971 16.3205V17.2417H9.9422V16.3205C9.9422 16.2943 9.95165 16.2718 9.97075 16.2525C9.98985 16.2336 10.0126 16.2239 10.0389 16.2239L10.3292 16.2239Z" fill="#363636"/>
<path d="M12.1643 16.2239C12.2025 16.2239 12.2312 16.234 12.2503 16.2545C12.2694 16.2746 12.2861 16.3052 12.3006 16.3458L13.1786 18.6109C13.181 18.6181 13.1822 18.6266 13.1822 18.6358C13.1822 18.6624 13.1726 18.6849 13.1535 18.7042C13.1344 18.7231 13.1117 18.7327 13.0855 18.7327H12.8274C12.7795 18.7327 12.7461 18.7227 12.727 18.7022C12.7079 18.6821 12.6949 18.6624 12.6876 18.6431L12.5334 18.2454H11.4009L11.2469 18.6431C11.2396 18.6624 11.2266 18.6821 11.2075 18.7022C11.1882 18.7227 11.1548 18.7327 11.1071 18.7327H10.849C10.8226 18.7327 10.7999 18.7231 10.7808 18.7042C10.7617 18.6849 10.7523 18.6624 10.7523 18.6358C10.7523 18.6266 10.7535 18.6181 10.7559 18.6109L11.6339 16.3458C11.6482 16.3052 11.6649 16.2746 11.6842 16.2545C11.7033 16.234 11.7318 16.2239 11.77 16.2239H12.1643ZM12.3615 17.7974L11.9672 16.7756L11.573 17.7974H12.3615Z" fill="#363636"/>
<path d="M15.1751 18.2848C15.2012 18.2848 15.2239 18.2944 15.2431 18.3133C15.2622 18.3326 15.2718 18.3551 15.2718 18.3817V18.6358C15.2718 18.6624 15.2621 18.6849 15.2431 18.7042C15.2239 18.7231 15.2012 18.7327 15.1751 18.7327H13.6052C13.5789 18.7327 13.5562 18.7231 13.5371 18.7042C13.518 18.6849 13.5083 18.6624 13.5083 18.6358V16.3204C13.5083 16.2943 13.518 16.2718 13.5371 16.2525C13.5562 16.2336 13.5789 16.2239 13.6052 16.2239H13.8956C13.9217 16.2239 13.9444 16.2336 13.9635 16.2525C13.9826 16.2718 13.9923 16.2943 13.9923 16.3204V18.2848L15.1751 18.2848Z" fill="#363636"/>
<path d="M16.795 16.2239C16.8332 16.2239 16.862 16.234 16.8811 16.2545C16.9002 16.2746 16.9169 16.3052 16.9313 16.3458L17.8093 18.6109C17.8118 18.6181 17.813 18.6266 17.813 18.6358C17.813 18.6624 17.8033 18.6849 17.7842 18.7042C17.7651 18.7231 17.7424 18.7327 17.7163 18.7327H17.4581C17.4102 18.7327 17.3769 18.7227 17.3578 18.7022C17.3387 18.6821 17.3256 18.6624 17.3184 18.6431L17.1642 18.2454H16.0316L15.8776 18.6431C15.8704 18.6624 15.8573 18.6821 15.8382 18.7022C15.8189 18.7227 15.7855 18.7327 15.7379 18.7327H15.4797C15.4534 18.7327 15.4306 18.7231 15.4115 18.7042C15.3924 18.6849 15.383 18.6624 15.383 18.6358C15.383 18.6266 15.3842 18.6181 15.3866 18.6109L16.2646 16.3458C16.2789 16.3052 16.2956 16.2746 16.3149 16.2545C16.334 16.234 16.3625 16.2239 16.4007 16.2239H16.795ZM16.9922 17.7974L16.598 16.7756L16.2037 17.7974H16.9922Z" fill="#363636"/>
<path d="M19.8059 18.2848C19.832 18.2848 19.8547 18.2944 19.8738 18.3133C19.8929 18.3326 19.9026 18.3551 19.9026 18.3817V18.6358C19.9026 18.6624 19.8929 18.6849 19.8738 18.7042C19.8547 18.7231 19.832 18.7327 19.8059 18.7327H18.236C18.2097 18.7327 18.187 18.7231 18.1678 18.7042C18.1487 18.6849 18.1391 18.6624 18.1391 18.6358V16.3204C18.1391 16.2943 18.1488 16.2718 18.1678 16.2525C18.187 16.2336 18.2097 16.2239 18.236 16.2239H18.5263C18.5525 16.2239 18.5752 16.2336 18.5943 16.2525C18.6134 16.2718 18.623 16.2943 18.623 16.3204V18.2848L19.8059 18.2848Z" fill="#363636"/>
<path d="M19.2698 15.0043H8.72881C8.55831 15.0043 8.41998 14.866 8.41998 14.6955C8.41998 14.525 8.55831 14.3867 8.72881 14.3867H19.2698C19.4403 14.3867 19.5786 14.525 19.5786 14.6955C19.5786 14.866 19.4403 15.0043 19.2698 15.0043Z" fill="#4FAD40"/>
<path d="M16.5292 20.506H11.4694C11.2989 20.506 11.1606 20.3677 11.1606 20.1972C11.1606 20.0267 11.2989 19.8884 11.4694 19.8884H16.5292C16.6997 19.8884 16.838 20.0267 16.838 20.1972C16.838 20.3677 16.6997 20.506 16.5292 20.506Z" fill="#4FAD40"/>
</svg>
