<svg width="480" height="318" viewBox="0 0 480 318" fill="none" xmlns="http://www.w3.org/2000/svg">
<g clip-path="url(#clip0_6088_3125)">
<rect width="480" height="318" transform="matrix(-1 0 0 -1 480 318)" fill="white"/>
<rect width="480" height="318" fill="url(#paint0_linear_6088_3125)" fill-opacity="0.15"/>
<path d="M-72.8276 191.24L221.332 -287.735C225.882 -295.143 223.568 -304.839 216.163 -309.392C208.759 -313.944 199.068 -311.629 194.518 -304.22L-99.6416 174.754C-104.191 182.162 -101.877 191.859 -94.4729 196.411C-87.0685 200.963 -77.3775 198.648 -72.8276 191.24Z" fill="url(#paint1_linear_6088_3125)" fill-opacity="0.3"/>
<path d="M-14.86 354.624L279.3 -124.35C283.85 -131.759 281.536 -141.455 274.131 -146.008C266.727 -150.56 257.036 -148.245 252.486 -140.836L-41.6739 338.138C-46.2238 345.546 -43.9097 355.243 -36.5053 359.795C-29.1008 364.348 -19.4098 362.032 -14.86 354.624Z" fill="url(#paint2_linear_6088_3125)" fill-opacity="0.3"/>
<path d="M127.951 508.906L422.111 29.9319C426.661 22.5234 424.347 12.8271 416.942 8.2747C409.538 3.72228 399.847 6.03764 395.297 13.4462L101.137 492.42C96.5874 499.829 98.9015 509.525 106.306 514.077C113.71 518.63 123.401 516.315 127.951 508.906Z" fill="url(#paint3_linear_6088_3125)" fill-opacity="0.3"/>
<path d="M412.804 456.836L744.838 -83.8082C749.973 -92.1702 747.361 -103.114 739.004 -108.253C730.646 -113.391 719.708 -110.778 714.573 -102.416L382.539 438.228C377.403 446.59 380.015 457.535 388.372 462.673C396.73 467.811 407.668 465.198 412.804 456.836Z" fill="url(#paint4_linear_6088_3125)" fill-opacity="0.3"/>
<path d="M327.096 239.521C324.01 237.622 323.045 233.579 324.942 230.492L528.042 -98.5776C529.94 -101.665 533.98 -102.63 537.066 -100.732C540.151 -98.8334 541.116 -94.7907 539.219 -91.7035L336.119 237.366C334.222 240.454 330.181 241.419 327.096 239.521Z" fill="url(#paint5_linear_6088_3125)" fill-opacity="0.3"/>
<path d="M264.849 -54.8722C268.714 -52.4947 269.922 -47.4338 267.546 -43.5666L13.2307 368.484C10.8546 372.351 5.79642 373.56 1.9314 371.183C-1.93365 368.805 -3.14178 363.744 -0.765625 359.877L253.55 -52.1737C255.926 -56.0409 260.984 -57.2497 264.849 -54.8722Z" fill="url(#paint6_linear_6088_3125)" fill-opacity="0.3"/>
<path d="M-50.4217 176.036C-53.5072 174.138 -54.4723 170.095 -52.5748 167.008L150.525 -162.062C152.423 -165.149 156.463 -166.115 159.549 -164.216C162.634 -162.318 163.599 -158.275 161.702 -155.188L-41.3983 173.882C-43.2957 176.969 -47.3362 177.934 -50.4217 176.036Z" fill="url(#paint7_linear_6088_3125)" fill-opacity="0.3"/>
<path d="M476.912 540.826L771.364 61.3754C775.918 53.9598 773.602 44.2543 766.191 39.6975C758.779 35.1407 749.079 37.4583 744.525 44.8739L450.072 524.324C445.518 531.74 447.834 541.446 455.246 546.002C462.658 550.559 472.358 548.242 476.912 540.826Z" fill="url(#paint8_linear_6088_3125)" fill-opacity="0.3"/>
<path d="M291.669 511.653L586.121 32.2021C590.676 24.7864 588.359 15.0809 580.948 10.5241C573.536 5.96737 563.836 8.28492 559.282 15.7005L264.829 495.151C260.275 502.567 262.591 512.272 270.003 516.829C277.415 521.386 287.115 519.068 291.669 511.653Z" fill="url(#paint9_linear_6088_3125)" fill-opacity="0.3"/>
<path d="M95.3709 336.501L389.823 -142.949C394.377 -150.365 392.061 -160.07 384.65 -164.627C377.238 -169.184 367.538 -166.866 362.984 -159.451L68.5314 320C63.9771 327.415 66.2934 337.121 73.705 341.678C81.1165 346.234 90.8167 343.917 95.3709 336.501Z" fill="url(#paint10_linear_6088_3125)" fill-opacity="0.3"/>
<path d="M-90.3996 304.456L204.053 -174.994C208.607 -182.41 206.291 -192.115 198.879 -196.672C191.467 -201.229 181.767 -198.911 177.213 -191.496L-117.239 287.955C-121.793 295.37 -119.477 305.076 -112.066 309.633C-104.654 314.189 -94.9538 311.872 -90.3996 304.456Z" fill="url(#paint11_linear_6088_3125)" fill-opacity="0.3"/>
<path d="M113.709 25.4153C116.799 27.3163 117.764 31.3615 115.864 34.4537L-87.4361 363.85C-89.336 366.942 -93.379 367.907 -96.4696 366.006C-99.5601 364.105 -100.525 360.06 -98.6252 356.968L104.675 27.5721C106.575 24.4799 110.618 23.5143 113.709 25.4153Z" fill="url(#paint12_linear_6088_3125)" fill-opacity="0.3"/>
<path d="M246.434 157.305C249.524 159.206 250.489 163.251 248.589 166.343L45.2888 495.739C43.3889 498.831 39.3459 499.797 36.2554 497.896C33.1648 495.995 32.1999 491.95 34.0998 488.858L237.4 159.462C239.3 156.37 243.343 155.404 246.434 157.305Z" fill="url(#paint13_linear_6088_3125)" fill-opacity="0.3"/>
<path d="M392.262 167.918C395.353 169.819 396.318 173.865 394.418 176.957L191.117 506.353C189.217 509.445 185.174 510.41 182.084 508.51C178.993 506.609 178.028 502.563 179.928 499.471L383.229 170.075C385.129 166.983 389.172 166.018 392.262 167.918Z" fill="url(#paint14_linear_6088_3125)" fill-opacity="0.3"/>
<rect width="480" height="318" fill="url(#paint15_linear_6088_3125)"/>
</g>
<defs>
<linearGradient id="paint0_linear_6088_3125" x1="240" y1="318" x2="240" y2="0" gradientUnits="userSpaceOnUse">
<stop stop-color="white"/>
<stop offset="0.535" stop-color="#FF8200"/>
<stop offset="1" stop-color="white"/>
</linearGradient>
<linearGradient id="paint1_linear_6088_3125" x1="223.705" y1="-56.5196" x2="-101.967" y2="-56.5142" gradientUnits="userSpaceOnUse">
<stop stop-color="#FF8200" stop-opacity="0"/>
<stop offset="0.795" stop-color="#FF8200" stop-opacity="0.4"/>
</linearGradient>
<linearGradient id="paint2_linear_6088_3125" x1="281.672" y1="106.864" x2="-43.9993" y2="106.87" gradientUnits="userSpaceOnUse">
<stop stop-color="#FF8200" stop-opacity="0"/>
<stop offset="0.795" stop-color="#FF8200" stop-opacity="0.4"/>
</linearGradient>
<linearGradient id="paint3_linear_6088_3125" x1="424.484" y1="261.147" x2="98.8118" y2="261.152" gradientUnits="userSpaceOnUse">
<stop stop-color="#FF8200" stop-opacity="0"/>
<stop offset="0.795" stop-color="#FF8200" stop-opacity="0.4"/>
</linearGradient>
<linearGradient id="paint4_linear_6088_3125" x1="747.511" y1="177.174" x2="379.919" y2="177.173" gradientUnits="userSpaceOnUse">
<stop stop-color="#FF8200" stop-opacity="0"/>
<stop offset="0.795" stop-color="#FF8200" stop-opacity="0.4"/>
</linearGradient>
<linearGradient id="paint5_linear_6088_3125" x1="463.161" y1="1577.95" x2="237.153" y2="1565.63" gradientUnits="userSpaceOnUse">
<stop stop-color="#FF8200" stop-opacity="0"/>
<stop offset="0.795" stop-color="#FF8200" stop-opacity="0.4"/>
</linearGradient>
<linearGradient id="paint6_linear_6088_3125" x1="172.308" y1="2047.13" x2="-110.694" y2="2031.7" gradientUnits="userSpaceOnUse">
<stop stop-color="#FF8200" stop-opacity="0"/>
<stop offset="0.795" stop-color="#FF8200" stop-opacity="0.4"/>
</linearGradient>
<linearGradient id="paint7_linear_6088_3125" x1="85.6437" y1="1514.47" x2="-140.365" y2="1502.14" gradientUnits="userSpaceOnUse">
<stop stop-color="#FF8200" stop-opacity="0"/>
<stop offset="0.795" stop-color="#FF8200" stop-opacity="0.4"/>
</linearGradient>
<linearGradient id="paint8_linear_6088_3125" x1="773.735" y1="292.818" x2="447.749" y2="292.818" gradientUnits="userSpaceOnUse">
<stop stop-color="#FF8200" stop-opacity="0"/>
<stop offset="0.795" stop-color="#FF8200" stop-opacity="0.4"/>
</linearGradient>
<linearGradient id="paint9_linear_6088_3125" x1="588.492" y1="263.645" x2="262.506" y2="263.645" gradientUnits="userSpaceOnUse">
<stop stop-color="#FF8200" stop-opacity="0"/>
<stop offset="0.795" stop-color="#FF8200" stop-opacity="0.4"/>
</linearGradient>
<linearGradient id="paint10_linear_6088_3125" x1="392.194" y1="88.4932" x2="66.2077" y2="88.4931" gradientUnits="userSpaceOnUse">
<stop stop-color="#FF8200" stop-opacity="0"/>
<stop offset="0.795" stop-color="#FF8200" stop-opacity="0.4"/>
</linearGradient>
<linearGradient id="paint11_linear_6088_3125" x1="206.424" y1="56.4482" x2="-119.563" y2="56.4481" gradientUnits="userSpaceOnUse">
<stop stop-color="#FF8200" stop-opacity="0"/>
<stop offset="0.795" stop-color="#FF8200" stop-opacity="0.4"/>
</linearGradient>
<linearGradient id="paint12_linear_6088_3125" x1="39.731" y1="1705.78" x2="-186.503" y2="1693.44" gradientUnits="userSpaceOnUse">
<stop stop-color="#FF8200" stop-opacity="0"/>
<stop offset="0.795" stop-color="#FF8200" stop-opacity="0.4"/>
</linearGradient>
<linearGradient id="paint13_linear_6088_3125" x1="172.456" y1="1837.67" x2="-53.7784" y2="1825.33" gradientUnits="userSpaceOnUse">
<stop stop-color="#FF8200" stop-opacity="0"/>
<stop offset="0.795" stop-color="#FF8200" stop-opacity="0.4"/>
</linearGradient>
<linearGradient id="paint14_linear_6088_3125" x1="318.284" y1="1848.28" x2="92.0501" y2="1835.94" gradientUnits="userSpaceOnUse">
<stop stop-color="#FF8200" stop-opacity="0"/>
<stop offset="0.795" stop-color="#FF8200" stop-opacity="0.4"/>
</linearGradient>
<linearGradient id="paint15_linear_6088_3125" x1="240" y1="318" x2="240" y2="0" gradientUnits="userSpaceOnUse">
<stop stop-color="white" stop-opacity="0"/>
<stop offset="1" stop-color="#FCFCFC"/>
</linearGradient>
<clipPath id="clip0_6088_3125">
<rect width="480" height="318" fill="white" transform="matrix(-1 0 0 -1 480 318)"/>
</clipPath>
</defs>
</svg>
