<svg width="45" height="65" viewBox="0 0 45 65" fill="none" xmlns="http://www.w3.org/2000/svg">
<path fill-rule="evenodd" clip-rule="evenodd" d="M22.4999 49.8535C22.2409 49.8535 21.9997 49.7215 21.8601 49.5044C21.1225 48.358 20.0649 46.8308 18.8411 45.0636C13.2387 36.9716 4.77344 24.7435 4.77344 17.7395C4.77344 7.96406 12.7258 0.0117188 22.4999 0.0117188C32.2753 0.0117188 40.2276 7.96406 40.2276 17.7395C40.2276 24.7435 31.7611 36.9716 26.1587 45.0623C24.9349 46.8308 23.8773 48.358 23.141 49.5044C23.0001 49.7215 22.7589 49.8535 22.4999 49.8535Z" fill="#FF5959"/>
<path fill-rule="evenodd" clip-rule="evenodd" d="M22.4999 28.2488C17.0803 28.2488 12.6699 23.8397 12.6699 18.4188C12.6699 12.9992 17.0803 8.58887 22.4999 8.58887C27.9208 8.58887 32.3299 12.9992 32.3299 18.4188C32.3299 23.8397 27.9208 28.2488 22.4999 28.2488Z" fill="white"/>
<path fill-rule="evenodd" clip-rule="evenodd" d="M22.5181 58.9502C22.1956 58.9502 21.8731 58.9451 21.5481 58.9337C17.8246 58.7978 14.4096 57.8914 11.9327 56.3806C9.44061 54.8623 8.13427 52.8666 8.2536 50.763C8.38563 48.4499 10.1833 46.378 13.3165 44.9269C13.6974 44.7505 14.1506 44.9168 14.327 45.2989C14.5035 45.6797 14.3372 46.133 13.9563 46.3094C11.3957 47.4952 9.87099 49.1494 9.7745 50.8493C9.68817 52.3651 10.7368 53.8682 12.7249 55.0806C17.4222 57.9434 25.6398 58.2367 31.0455 55.7344C33.6049 54.5487 35.1296 52.8932 35.2261 51.1933C35.3124 49.6775 34.265 48.1756 32.2757 46.9632C31.9164 46.7436 31.8021 46.2752 32.0218 45.9159C32.2401 45.5566 32.7086 45.4436 33.0679 45.662C35.5599 47.1816 36.8663 49.176 36.747 51.2797C36.6149 53.5927 34.8173 55.6659 31.6841 57.1157C29.1082 58.309 25.8836 58.9502 22.5181 58.9502Z" fill="#B3B3B3"/>
<path fill-rule="evenodd" clip-rule="evenodd" d="M22.5296 64.9891C22.0192 64.9891 21.5076 64.979 20.9947 64.9612C15.113 64.7466 9.7276 63.3197 5.82887 60.9431C1.99235 58.6047 -0.0198584 55.5603 0.161685 52.3713C0.362271 48.8458 3.14508 45.6681 7.99723 43.4211C8.37809 43.2446 8.83131 43.4109 9.00778 43.793C9.18424 44.1739 9.01793 44.6271 8.63708 44.8036C4.38161 46.7726 1.84635 49.5631 1.68258 52.4576C1.53405 55.0589 3.28854 57.6106 6.62233 59.6431C14.2509 64.2934 27.5937 64.7733 36.3649 60.7133C40.6191 58.743 43.1544 55.9539 43.3194 53.0593C43.4679 50.4581 41.7134 47.9063 38.3797 45.8738C38.0204 45.6542 37.9061 45.1857 38.1257 44.8277C38.3441 44.4684 38.8126 44.3542 39.1718 44.5738C43.0084 46.9123 45.0218 49.9566 44.839 53.1457C44.6384 56.6699 41.8556 59.8488 37.0047 62.0946C32.9397 63.9773 27.8502 64.9891 22.5296 64.9891Z" fill="#B3B3B3"/>
</svg>
