<svg width="175" height="168" viewBox="0 0 175 168" fill="none" xmlns="http://www.w3.org/2000/svg">
<path d="M75.9609 132.72L76.3438 133.918L80.3792 132.763L75.9609 132.72Z" fill="#E62323"/>
<path d="M42.1037 97.6035L42.2252 96.4362L50.5149 70.375L52.9276 73.9567C53.2315 74.4114 53.8514 74.4912 54.2646 74.141C54.4652 73.9567 54.5746 73.7048 54.5746 73.4468C54.5746 73.2625 54.5199 73.0782 54.3984 72.9185L54.1613 72.5744C54.3254 72.6789 54.5199 72.7219 54.7205 72.7219C55.079 72.7219 55.4072 72.5621 55.626 72.3164C55.9481 72.513 56.2945 72.6604 56.6592 72.7587L50.7033 85.0582C44.9479 96.5959 45.9811 110.407 53.3773 120.949L57.2183 126.435C57.7592 127.203 58.2332 128.014 58.7194 128.831C58.8106 128.979 58.8957 129.12 58.9868 129.268C60.2205 131.314 62.4267 132.604 64.8515 132.622L68.4494 132.653L75.092 132.72H75.9672L76.3501 133.925L63.7698 139.011C62.9311 139.362 62.3355 140.148 62.2443 141.076C62.2322 141.162 62.2322 141.242 62.2322 141.315C62.2322 141.444 62.2443 141.573 62.2626 141.702L61.6487 141.825C56.1608 141.235 51.4143 137.721 49.1718 132.616L48.0839 130.128L45.349 123.898L44.2673 120.28C42.0733 112.944 41.3379 105.234 42.1098 97.6158L42.1037 97.6035Z" fill="#039D55"/>
<path d="M42.1037 97.6035L42.2252 96.4362L50.5149 70.375L52.9276 73.9567C53.2315 74.4114 53.8514 74.4912 54.2646 74.141C54.4652 73.9567 54.5746 73.7048 54.5746 73.4468C54.5746 73.2625 54.5199 73.0782 54.3984 72.9185L54.1613 72.5744C54.3254 72.6789 54.5199 72.7219 54.7205 72.7219C55.079 72.7219 55.4072 72.5621 55.626 72.3164C55.9481 72.513 56.2945 72.6604 56.6592 72.7587L50.7033 85.0582C44.9479 96.5959 45.9811 110.407 53.3773 120.949L57.2183 126.435C57.7592 127.203 58.2332 128.014 58.7194 128.831C58.8106 128.979 58.8957 129.12 58.9868 129.268C60.2205 131.314 62.4267 132.604 64.8515 132.622L68.4494 132.653L75.092 132.72H75.9672L76.3501 133.925L63.7698 139.011C62.9311 139.362 62.3355 140.148 62.2443 141.076C62.2322 141.162 62.2322 141.242 62.2322 141.315C62.2322 141.444 62.2443 141.573 62.2626 141.702L61.6487 141.825C56.1608 141.235 51.4143 137.721 49.1718 132.616L48.0839 130.128L45.349 123.898L44.2673 120.28C42.0733 112.944 41.3379 105.234 42.1098 97.6158L42.1037 97.6035Z" fill="black" fill-opacity="0.3"/>
<path d="M34.7506 101.554C35.3462 101.407 35.8567 101.038 36.2031 100.534C39.6126 95.5518 42.1043 89.9734 43.5386 84.094L46.8326 70.6394C48.121 69.3616 48.9171 67.5983 48.9171 65.6447C48.9171 64.1088 48.4309 62.7019 47.5983 61.5469C47.5983 61.5469 54.5509 61.8233 56.6659 65.829L56.2708 65.7C55.2377 65.3559 54.1012 65.6078 53.305 66.3573L50.6735 68.8639C50.2542 69.2633 50.1873 69.9022 50.5094 70.3814L42.2198 96.4426L42.0982 97.6099C41.3325 105.228 42.0618 112.944 44.2557 120.274L45.3375 123.892L48.0724 130.128L49.1602 132.616C51.4028 137.722 56.1493 141.236 61.6372 141.826L62.251 141.703C62.3908 142.6 62.9986 143.368 63.8798 143.675L66.7423 144.664C69.4042 145.592 72.2241 145.997 75.038 145.874C75.3783 145.856 75.7065 145.837 76.0468 145.8L91.1797 144.449C92.0791 144.363 92.8327 143.822 93.2277 143.054C93.4283 142.667 93.5316 142.225 93.5012 141.758C93.2095 136.726 91.1857 132.315 91.1857 132.315L90.3349 133.138L89.6117 131.547C91.1371 131.037 92.6139 130.38 94.0178 129.569C99.3599 126.479 102.162 120.95 102.162 115.359C102.162 113.399 101.821 111.427 101.116 109.572C100.278 107.323 98.9223 105.228 97.0262 103.44L87.7763 94.7101L110.688 95.2078C110.688 95.2078 113.004 95.4474 115.453 95.263L141.981 96.6945C142.139 96.7068 142.291 96.7252 142.437 96.7437C144.716 97.0938 146.442 99.0844 146.442 101.462C146.442 101.462 151.875 102.998 158.141 108.183C159.393 109.227 160.681 110.413 161.976 111.765C163.854 113.737 165.726 116.065 167.476 118.793C170.502 123.511 173.158 129.434 174.842 136.843L171.706 131.885C165.021 121.324 155.825 112.625 144.959 106.573C140.741 104.233 136.068 103.053 131.382 103.053C127.474 103.053 123.554 103.876 119.896 105.529C111.806 109.184 107.273 117.122 107.273 125.256C107.273 129.888 108.756 134.594 111.892 138.6L116.018 143.871L116.146 146.47L75.1656 148.479L68.213 148.823C60.2455 149.21 52.8188 144.983 48.984 138.041C48.6558 137.457 48.3641 136.849 48.0845 136.229L45.453 132.112C42.6087 127.683 40.743 122.762 39.9103 117.675C36.9567 115.261 33.4318 113.522 29.5848 112.711V112.699C29.0439 111.58 28.8008 110.413 28.8008 109.258C28.8008 105.762 31.1163 102.482 34.7445 101.566L34.7506 101.554Z" fill="#039D55"/>
<path d="M107.285 125.244C107.285 129.877 108.768 134.583 111.904 138.588L116.031 143.859L116.158 146.458L120.449 146.243C120.412 145.746 120.394 145.236 120.394 144.726C120.394 132.346 130.319 122.308 142.571 122.308C154.61 122.308 164.395 131.99 164.729 144.075L169.269 143.853C172.922 143.853 175.681 140.431 174.866 136.825L171.73 131.867C165.045 121.306 155.85 112.607 144.984 106.555C140.766 104.215 136.092 103.035 131.407 103.035C127.499 103.035 123.579 103.858 119.914 105.511C111.825 109.166 107.291 117.104 107.291 125.238L107.285 125.244Z" fill="#039D55"/>
<path d="M107.285 125.244C107.285 129.877 108.768 134.583 111.904 138.588L116.031 143.859L116.158 146.458L120.449 146.243C120.412 145.746 120.394 145.236 120.394 144.726C120.394 132.346 130.319 122.308 142.571 122.308C154.61 122.308 164.395 131.99 164.729 144.075L169.269 143.853C172.922 143.853 175.681 140.431 174.866 136.825L171.73 131.867C165.045 121.306 155.85 112.607 144.984 106.555C140.766 104.215 136.092 103.035 131.407 103.035C127.499 103.035 123.579 103.858 119.914 105.511C111.825 109.166 107.291 117.104 107.291 125.238L107.285 125.244Z" fill="black" fill-opacity="0.1"/>
<path d="M142.565 122.313C154.604 122.313 164.389 131.995 164.723 144.08L157.078 144.461L149.177 144.841L136.007 145.487L128.094 145.874L120.455 146.242C120.419 145.745 120.4 145.235 120.4 144.725C120.4 132.345 130.325 122.307 142.577 122.307L142.565 122.313Z" fill="#039D55"/>
<path d="M142.565 122.313C154.604 122.313 164.389 131.995 164.723 144.08L157.078 144.461L149.177 144.841L136.007 145.487L128.094 145.874L120.455 146.242C120.419 145.745 120.4 145.235 120.4 144.725C120.4 132.345 130.325 122.307 142.577 122.307L142.565 122.313Z" fill="black" fill-opacity="0.2"/>
<path d="M136.408 140.012C136.408 140.012 136.426 140.012 136.432 140.012L156.214 138.919C156.469 138.906 156.658 138.685 156.645 138.433C156.633 138.175 156.408 137.966 156.165 137.997L136.383 139.091C136.128 139.103 135.94 139.324 135.952 139.576C135.964 139.822 136.164 140.012 136.408 140.012Z" fill="#2F2F2F"/>
<path d="M132.857 137.354C132.857 137.354 132.875 137.354 132.881 137.354L152.663 136.26C152.918 136.248 153.107 136.027 153.095 135.775C153.082 135.517 152.864 135.314 152.615 135.339L132.832 136.432C132.577 136.445 132.389 136.666 132.401 136.918C132.413 137.164 132.614 137.354 132.857 137.354Z" fill="#2F2F2F"/>
<path d="M131.066 134.612C131.066 134.612 131.084 134.612 131.09 134.612L150.872 133.518C151.127 133.506 151.316 133.285 151.304 133.033C151.291 132.775 151.073 132.572 150.823 132.597L131.041 133.69C130.792 133.703 130.598 133.924 130.61 134.176C130.622 134.421 130.823 134.612 131.066 134.612Z" fill="#2F2F2F"/>
<path d="M119.907 105.523C116.407 106.986 113.277 109.443 111.022 112.582C109.855 114.125 109.004 115.888 108.257 117.676C107.631 119.512 107.127 121.411 106.993 123.365C106.665 127.241 107.272 131.247 108.998 134.761C109.855 136.506 110.98 138.14 112.165 139.633L115.714 144.118L116.024 143.466C112.438 143.466 108.853 143.559 105.267 143.602C101.681 143.657 98.0955 143.749 94.5098 143.866C98.0955 143.982 101.681 144.075 105.267 144.13C108.853 144.173 112.438 144.265 116.024 144.265C116.243 144.265 116.425 144.087 116.425 143.866C116.425 143.774 116.395 143.681 116.34 143.614L112.833 139.092C111.66 137.587 110.633 136.051 109.819 134.355C108.148 131.001 107.515 127.167 107.795 123.432C107.898 121.552 108.385 119.721 108.919 117.921C109.594 116.17 110.366 114.432 111.46 112.896C113.581 109.787 116.492 107.207 119.907 105.523Z" fill="#039D55"/>
<path d="M119.907 105.523C116.407 106.986 113.277 109.443 111.022 112.582C109.855 114.125 109.004 115.888 108.257 117.676C107.631 119.512 107.127 121.411 106.993 123.365C106.665 127.241 107.272 131.247 108.998 134.761C109.855 136.506 110.98 138.14 112.165 139.633L115.714 144.118L116.024 143.466C112.438 143.466 108.853 143.559 105.267 143.602C101.681 143.657 98.0955 143.749 94.5098 143.866C98.0955 143.982 101.681 144.075 105.267 144.13C108.853 144.173 112.438 144.265 116.024 144.265C116.243 144.265 116.425 144.087 116.425 143.866C116.425 143.774 116.395 143.681 116.34 143.614L112.833 139.092C111.66 137.587 110.633 136.051 109.819 134.355C108.148 131.001 107.515 127.167 107.795 123.432C107.898 121.552 108.385 119.721 108.919 117.921C109.594 116.17 110.366 114.432 111.46 112.896C113.581 109.787 116.492 107.207 119.907 105.523Z" fill="black" fill-opacity="0.3"/>
<path d="M87.7891 94.7031L97.0389 103.433C98.9351 105.221 100.284 107.316 101.129 109.565C110.981 106.622 115.472 95.2561 115.472 95.2561C113.023 95.4404 110.707 95.2008 110.707 95.2008L87.7951 94.7031H87.7891Z" fill="#039D55"/>
<path d="M87.7891 94.7031L97.0389 103.433C98.9351 105.221 100.284 107.316 101.129 109.565C110.981 106.622 115.472 95.2561 115.472 95.2561C113.023 95.4404 110.707 95.2008 110.707 95.2008L87.7951 94.7031H87.7891Z" fill="black" fill-opacity="0.3"/>
<path d="M24.5159 112.164C26.254 112.164 27.9557 112.348 29.5906 112.692C33.4437 113.516 36.9625 115.254 39.9161 117.669C40.7487 122.756 42.6145 127.677 45.4588 132.106L48.0903 136.222C48.3638 136.843 48.6555 137.451 48.9837 138.035C48.8986 140.062 48.5826 142.01 48.0417 143.871L44.225 142.538L35.7652 139.589L14.6157 132.198L6.15593 129.237L1.75586 127.701C5.39017 118.59 14.1964 112.164 24.5037 112.164H24.5159Z" fill="#039D55"/>
<path d="M24.5159 112.164C26.254 112.164 27.9557 112.348 29.5906 112.692C33.4437 113.516 36.9625 115.254 39.9161 117.669C40.7487 122.756 42.6145 127.677 45.4588 132.106L48.0903 136.222C48.3638 136.843 48.6555 137.451 48.9837 138.035C48.8986 140.062 48.5826 142.01 48.0417 143.871L44.225 142.538L35.7652 139.589L14.6157 132.198L6.15593 129.237L1.75586 127.701C5.39017 118.59 14.1964 112.164 24.5037 112.164H24.5159Z" fill="black" fill-opacity="0.2"/>
<path d="M6.16253 129.23C2.33982 133.255 0 138.722 0 144.731C0 157.11 9.92447 167.149 22.1766 167.149C34.4226 167.149 44.3532 157.116 44.3532 144.731C44.3532 143.994 44.3167 143.25 44.2438 142.531L35.784 139.582C36.3796 141.18 36.7078 142.918 36.7078 144.731C36.7078 152.84 30.2049 159.414 22.1827 159.414C14.1604 159.414 7.66366 152.84 7.66366 144.731C7.66366 139.417 10.4532 134.76 14.6345 132.192L6.17468 129.23H6.16253Z" fill="#2B1F35"/>
<path d="M35.7766 139.576C36.3722 141.174 36.7003 142.912 36.7003 144.725C36.7003 152.834 30.1975 159.408 22.1753 159.408C14.153 159.408 7.65625 152.834 7.65625 144.725C7.65625 139.41 10.4458 134.754 14.6271 132.186L35.7766 139.576ZM22.1753 151.415C25.8339 151.415 28.7875 148.417 28.7875 144.731C28.7875 141.038 25.8339 138.047 22.1753 138.047C18.5166 138.047 15.563 141.045 15.563 144.731C15.563 148.423 18.5288 151.415 22.1753 151.415Z" fill="#E6E6FE"/>
<path d="M22.1767 151.415C25.8286 151.415 28.789 148.423 28.789 144.731C28.789 141.04 25.8286 138.047 22.1767 138.047C18.5249 138.047 15.5645 141.04 15.5645 144.731C15.5645 148.423 18.5249 151.415 22.1767 151.415Z" fill="#393332"/>
<path d="M22.1767 151.415C25.8286 151.415 28.789 148.423 28.789 144.731C28.789 141.04 25.8286 138.047 22.1767 138.047C18.5249 138.047 15.5645 141.04 15.5645 144.731C15.5645 148.423 18.5249 151.415 22.1767 151.415Z" fill="#2B1F35"/>
<path d="M128.087 145.88L120.447 146.248C121.213 157.921 130.821 167.149 142.569 167.149C154.815 167.149 164.746 157.117 164.746 144.731C164.746 144.516 164.746 144.295 164.728 144.086L157.082 144.467C157.094 144.559 157.094 144.645 157.094 144.737C157.094 152.847 150.597 159.42 142.575 159.42C134.553 159.42 128.67 153.455 128.093 145.88H128.087Z" fill="#2B1F35"/>
<path d="M135.999 145.487L128.086 145.874C128.663 153.449 134.929 159.415 142.568 159.415C150.591 159.415 157.088 152.841 157.088 144.731C157.088 144.639 157.087 144.553 157.075 144.461L149.175 144.842C149.12 148.485 146.185 151.416 142.568 151.416C139.165 151.416 136.363 148.817 135.999 145.487Z" fill="#E6E6FE"/>
<path d="M149.17 144.842L136 145.487C136.365 148.817 139.166 151.415 142.57 151.415C146.186 151.415 149.121 148.485 149.176 144.842H149.17Z" fill="#2B1F35"/>
<path d="M36.8711 58.6836V72.5989H40.2805C39.7761 66.4123 40.2927 58.6836 40.2927 58.6836H36.8711Z" fill="#E6E6FE"/>
<path d="M46.8382 70.6391C48.1266 69.3612 48.9228 67.598 48.9228 65.6443C48.9228 64.1084 48.4366 62.7015 47.604 61.5465C47.3913 61.2516 47.1664 60.9752 46.9112 60.7171C45.6592 59.4577 43.9393 58.6836 42.0431 58.6836H40.2989C40.2989 58.6836 39.7884 66.4123 40.2867 72.5989H42.0431C43.9028 72.5989 45.5924 71.8494 46.8382 70.6391Z" fill="#039D55"/>
<path d="M46.8382 70.6391C48.1266 69.3612 48.9228 67.598 48.9228 65.6443C48.9228 64.1084 48.4366 62.7015 47.604 61.5465C47.3913 61.2516 47.1664 60.9752 46.9112 60.7171C45.6592 59.4577 43.9393 58.6836 42.0431 58.6836H40.2989C40.2989 58.6836 39.7884 66.4123 40.2867 72.5989H42.0431C43.9028 72.5989 45.5924 71.8494 46.8382 70.6391Z" fill="black" fill-opacity="0.2"/>
<path d="M125.959 93.7139V95.8211L142.338 96.7242L143.049 96.8655L152.937 93.7139H125.959Z" fill="#2B1F35"/>
<path d="M125.959 82.655V93.7135H152.937H167.492V62.6514H125.959V82.655Z" fill="#EACBAC"/>
<path d="M128.743 76.1982H165.178V74.0173H128.743V76.1982Z" fill="#FFE9CA"/>
<path d="M128.743 82.6309H165.178V80.4499H128.743V82.6309Z" fill="#FFE9CA"/>
<path d="M128.743 89.0742H165.178V86.8932H128.743V89.0742Z" fill="#FFE9CA"/>
<path d="M151.522 69.3789H142.983C141.214 69.3789 139.774 67.929 139.774 66.1351V64.4947H154.73V66.1351C154.73 67.9229 153.296 69.3789 151.522 69.3789Z" fill="#FFE9CA"/>
<path d="M165.942 64.4952C162.842 64.3048 159.743 64.2126 156.644 64.1389C153.544 64.0529 150.445 64.0406 147.345 64.0283C144.246 64.0406 141.146 64.0529 138.047 64.1328L133.397 64.2618C131.848 64.3355 130.298 64.3847 128.748 64.4891C130.298 64.5935 131.848 64.6365 133.397 64.7164L138.047 64.8454C141.146 64.9314 144.246 64.9437 147.345 64.9499C150.445 64.9376 153.544 64.9253 156.644 64.8393C159.743 64.7656 162.842 64.6734 165.942 64.4829V64.4952Z" fill="#FFE9CA"/>
<path d="M63.5225 94.3779L61.6445 118.535L65.528 119.53L72.2375 121.25L63.5225 94.3779Z" fill="black"/>
<path d="M64.4634 82.2378L64.2871 84.5293C65.9523 81.9613 68.7601 80.1367 72.127 79.9523L102.198 78.2444L101.062 76.9297C100.557 76.3583 99.8523 76.0143 99.0926 75.9774L73.379 74.8409L72.7591 74.8101C68.4684 74.6258 64.7976 77.9065 64.4634 82.2378Z" fill="black"/>
<path d="M65.5281 119.53L63.9297 126.582L65.449 129.267C66.0993 130.422 67.2784 131.03 68.4695 131.03C69.3204 131.03 70.1712 130.723 70.8458 130.078L72.6022 128.413L73.3619 124.684V124.672L72.2436 121.244L65.5281 119.523V119.53Z" fill="#E57565"/>
<path d="M62.24 126.213C62.7991 125.808 63.5831 125.974 63.9234 126.582L65.4428 129.267C66.0931 130.422 67.2721 131.03 68.4633 131.03C69.3141 131.03 70.165 130.723 70.8396 130.078L72.5959 128.413L73.4893 127.565L75.0816 132.707L68.439 132.652L64.8411 132.621C62.4162 132.603 60.2101 131.306 58.9764 129.267C58.8852 129.119 58.8001 128.978 58.709 128.83L62.2278 126.213H62.24Z" fill="#1C1C3F"/>
<path d="M85.6127 11.0322C85.5641 12.347 85.2663 14.614 83.8867 16.414C84.7254 16.4509 85.6613 16.6536 86.3359 17.1267C86.7188 17.397 87.0774 17.7472 87.4967 17.9499C88.6514 18.5336 89.8365 18.0052 90.9913 18.1281C91.4106 18.1773 91.8299 18.552 92.073 18.9329C92.1217 19.0066 92.146 19.0742 92.1764 19.1479L92.5349 19.0558L91.5625 15.173C91.2708 14.018 90.347 13.1641 89.1923 12.906C88.2746 12.691 87.0591 12.1749 85.6127 11.0384V11.0322Z" fill="#FC9381"/>
<path d="M88.1057 25.6732C88.3002 25.6363 88.4825 25.5872 88.6526 25.5257C88.7195 25.5073 88.7803 25.4889 88.8471 25.4581C88.8471 25.4581 90.093 25.7285 91.424 26.8159C92.6759 27.8419 94.013 29.6112 94.4505 32.597L98.2672 28.7388C99.4583 27.547 101.014 26.822 102.667 26.7114V26.6992L100.169 24.1188C98.8324 22.7304 97.7931 21.0839 97.1064 19.2715L96.3832 17.3363C96.0975 17.5329 95.7511 17.6435 95.3865 17.6435C94.882 17.6435 94.4262 17.4407 94.1041 17.0967L94.5903 18.2885C94.8213 18.8415 94.5599 19.4927 94.013 19.7323C93.8732 19.7876 93.7273 19.8183 93.5815 19.8183C93.1317 19.8183 92.7124 19.548 92.5483 19.0995L92.5301 19.0442L92.1715 19.1364C92.2991 19.5726 91.9162 19.8552 91.7521 20.3467C91.4057 21.3849 91.2842 22.374 90.6825 23.3325C90.4455 23.7134 90.324 24.0451 90.0262 24.3584C89.467 24.9298 88.835 25.3291 88.1118 25.6547H88.0996L88.1057 25.6732Z" fill="#FC9381"/>
<path d="M86.6164 15.002C86.9051 15.002 87.1391 14.7655 87.1391 14.4737C87.1391 14.1819 86.9051 13.9453 86.6164 13.9453C86.3278 13.9453 86.0938 14.1819 86.0938 14.4737C86.0938 14.7655 86.3278 15.002 86.6164 15.002Z" fill="#001B24"/>
<path d="M86.002 12.5868C86.2268 12.808 86.4335 12.9554 86.6219 13.1029C86.8103 13.2565 87.0047 13.3548 87.1567 13.5145C87.3572 13.6067 87.497 13.7664 87.6854 13.8954C87.8799 14.0244 88.0501 14.1965 88.3175 14.3746L88.3661 14.3562C88.2081 13.8524 87.8981 13.3855 87.4666 13.0722C87.029 12.765 86.5246 12.5868 86.002 12.5254V12.5807V12.5868Z" fill="#001B24"/>
<path d="M90.993 24.0276C90.5311 24.5129 90.0084 24.9553 89.4068 25.2379C89.2245 25.3239 89.0361 25.3976 88.8477 25.4652C88.8477 25.4652 90.0935 25.7355 91.4245 26.8229C94.5665 24.6972 93.7643 21.1094 93.7643 21.1094L90.993 24.0276Z" fill="#DD7162"/>
<path d="M85.5961 9.95784C87.6382 10.2466 90.2515 10.05 93.5819 9.01172L105.84 17.3425C105.84 17.3425 106.077 23.1052 100.17 24.1189L100.158 24.1066C98.7052 24.6227 97.1554 23.3141 96.9488 21.8949C96.8455 21.1822 96.8273 20.5556 96.5477 19.8675C96.3228 19.3023 96.3897 18.8599 96.4261 18.2824C96.4444 17.9691 96.3958 17.6742 96.3958 17.3732L96.3836 17.3363L96.3958 17.324C96.3958 17.281 96.3958 17.2442 96.3958 17.2012C96.4444 17.2012 96.4991 17.2012 96.5477 17.2012C96.9366 16.8694 97.1858 16.3718 97.1858 15.8127C97.1858 14.8052 96.3836 13.988 95.3808 13.988C94.378 13.988 93.5758 14.799 93.5758 15.8127L94.0985 17.0906L94.5847 18.2824C94.8156 18.8354 94.5543 19.4866 94.0073 19.7262C93.8675 19.7815 93.7217 19.8122 93.5758 19.8122C93.1261 19.8122 92.7067 19.5419 92.5427 19.0934L92.5244 19.0381L91.552 15.1553C91.2603 14.0003 90.3365 13.1464 89.1818 12.8883C88.2641 12.6733 87.0486 12.1573 85.6022 11.0207C85.6204 10.3756 85.584 9.95784 85.584 9.95784V9.94555L85.5961 9.95784Z" fill="black"/>
<path d="M87.6059 4.95732H78.7207C78.7207 4.95732 80.003 9.2087 85.5882 9.95822C87.6302 10.247 90.2435 10.0504 93.574 9.0121L87.5998 4.95117L87.6059 4.95732Z" fill="#039D55"/>
<path d="M87.6059 4.95732H78.7207C78.7207 4.95732 80.003 9.2087 85.5882 9.95822C87.6302 10.247 90.2435 10.0504 93.574 9.0121L87.5998 4.95117L87.6059 4.95732Z" fill="black" fill-opacity="0.3"/>
<path d="M87.6057 4.95652L93.5798 9.01745L105.838 17.3482L106.203 17.6001C109.983 11.7575 108.725 7.69657 107.023 5.33128C106.026 3.93668 103.747 2.36391 102.192 1.65125C91.0577 -3.46023 87.5996 4.96266 87.5996 4.96266L87.6057 4.95652Z" fill="#039D55"/>
<path d="M100.934 2.24707C100.053 2.32079 99.1896 2.57268 98.3691 2.92287C97.5487 3.27305 96.7829 3.76454 96.1022 4.36047C95.4215 4.95026 94.8381 5.66906 94.4188 6.47388C93.963 7.26026 93.7259 8.14494 93.5801 9.01734C93.9083 8.18795 94.2243 7.37085 94.7166 6.65819C95.1845 5.93324 95.7437 5.26973 96.3939 4.71066C97.6824 3.56795 99.2503 2.76928 100.928 2.24707H100.934Z" fill="#039D55"/>
<path d="M100.934 2.24707C100.053 2.32079 99.1896 2.57268 98.3691 2.92287C97.5487 3.27305 96.7829 3.76454 96.1022 4.36047C95.4215 4.95026 94.8381 5.66906 94.4188 6.47388C93.963 7.26026 93.7259 8.14494 93.5801 9.01734C93.9083 8.18795 94.2243 7.37085 94.7166 6.65819C95.1845 5.93324 95.7437 5.26973 96.3939 4.71066C97.6824 3.56795 99.2503 2.76928 100.928 2.24707H100.934Z" fill="black" fill-opacity="0.3"/>
<path d="M83.443 16.9314C83.133 17.2631 83.0236 17.7423 83.443 17.8959L83.6678 17.9574C84.5369 18.2768 85.1143 19.1185 85.1143 20.0523V24.0211C85.1143 24.998 85.8983 25.7966 86.8646 25.7966C87.2718 25.7966 87.679 25.7475 88.0861 25.6676H88.0983C88.8215 25.3359 89.4596 24.9365 90.0188 24.3652C90.3226 24.0518 90.4381 23.7201 90.6751 23.3392C91.2768 22.3746 91.3984 21.3855 91.7448 20.3534C91.9089 19.8619 92.2917 19.5793 92.1641 19.1431C92.1337 19.0694 92.1094 19.0018 92.0608 18.9281C91.8238 18.5472 91.4044 18.1724 90.979 18.1232C89.8243 18.0004 88.6392 18.5287 87.4845 17.9451C87.0651 17.7423 86.7066 17.3922 86.3237 17.1218C85.6491 16.6488 84.7132 16.446 83.8745 16.4092C83.7408 16.5873 83.5888 16.7594 83.4308 16.9252L83.443 16.9314Z" fill="#FC9381"/>
<path d="M93.5803 15.8315L94.103 17.1094C94.4251 17.4534 94.8809 17.6561 95.3853 17.6561C95.7499 17.6561 96.0964 17.5456 96.382 17.349C96.8682 17.0234 97.1842 16.4704 97.1842 15.8315C97.1842 14.8239 96.382 14.0068 95.3792 14.0068C94.3764 14.0068 93.5742 14.8178 93.5742 15.8315H93.5803Z" fill="#DD7162"/>
<path d="M92.3301 50.623L102.2 53.0436L96.8578 65.4353C96.8578 65.4353 97.1313 72.224 99.1003 75.9777C99.86 76.0146 100.565 76.3586 101.069 76.93L102.206 78.2447C102.838 78.2079 103.452 78.4475 103.889 78.9021L112.817 88.222C113.583 89.0268 114.482 89.6903 115.473 90.2002L120.979 92.9956L122.061 92.5962C122.839 92.3075 123.507 91.8221 124.012 91.1893C124.516 90.5627 124.85 89.8009 124.966 88.9776C125.258 86.8765 125.404 84.7631 125.404 82.6497C125.404 79.9219 125.167 77.1942 124.674 74.5033L119.989 48.823C119.405 45.5791 118.427 42.4336 117.096 39.4478C115.759 36.462 114.075 33.6421 112.064 31.0433C110.994 29.6672 109.639 28.5859 108.119 27.8364C106.612 27.0991 104.929 26.6875 103.19 26.6875C103.014 26.6875 102.85 26.6936 102.68 26.7182C101.027 26.8288 99.4711 27.5476 98.2799 28.7456L94.4633 32.6038C93.9588 33.1137 93.8981 33.9185 94.3052 34.5022L95.229 35.8046L92.3362 50.6292L92.3301 50.623Z" fill="#039D55"/>
<path d="M92.3301 50.623L102.2 53.0436L96.8578 65.4353C96.8578 65.4353 97.1313 72.224 99.1003 75.9777C99.86 76.0146 100.565 76.3586 101.069 76.93L102.206 78.2447C102.838 78.2079 103.452 78.4475 103.889 78.9021L112.817 88.222C113.583 89.0268 114.482 89.6903 115.473 90.2002L120.979 92.9956L122.061 92.5962C122.839 92.3075 123.507 91.8221 124.012 91.1893C124.516 90.5627 124.85 89.8009 124.966 88.9776C125.258 86.8765 125.404 84.7631 125.404 82.6497C125.404 79.9219 125.167 77.1942 124.674 74.5033L119.989 48.823C119.405 45.5791 118.427 42.4336 117.096 39.4478C115.759 36.462 114.075 33.6421 112.064 31.0433C110.994 29.6672 109.639 28.5859 108.119 27.8364C106.612 27.0991 104.929 26.6875 103.19 26.6875C103.014 26.6875 102.85 26.6936 102.68 26.7182C101.027 26.8288 99.4711 27.5476 98.2799 28.7456L94.4633 32.6038C93.9588 33.1137 93.8981 33.9185 94.3052 34.5022L95.229 35.8046L92.3362 50.6292L92.3301 50.623Z" fill="white" fill-opacity="0.6"/>
<path d="M110.957 37.7891C110.61 39.1407 110.282 40.4923 109.985 41.8561C109.693 43.22 109.365 44.5716 109.103 45.9416L108.283 50.0333L107.535 54.1434L107.906 53.8976C106.466 53.5659 105.013 53.2894 103.567 53.0007C102.12 52.7058 100.662 52.4539 99.2031 52.2081C100.625 52.632 102.047 53.0375 103.476 53.4061C104.904 53.7809 106.332 54.1679 107.772 54.4997L108.076 54.5734L108.137 54.2601L108.951 50.1623L109.693 46.0522C109.954 44.6822 110.143 43.306 110.373 41.9299C110.592 40.5537 110.787 39.1714 110.957 37.7891Z" fill="#373A39"/>
<path d="M116.598 79.3324C115.595 78.8286 114.605 78.3002 113.657 77.7043C112.696 77.133 111.76 76.5186 110.855 75.8612C109.044 74.5526 107.33 73.1212 105.798 71.4993C104.212 69.9265 102.93 68.0895 101.812 66.1666L101.028 64.686C100.791 64.1761 100.614 63.6477 100.402 63.1316L100.08 62.3514L99.8547 61.5404C99.7088 60.9998 99.5508 60.453 99.3867 59.9062C99.7027 62.1425 100.274 64.3911 101.35 66.4246C102.401 68.452 103.732 70.3443 105.312 71.9907C106.917 73.6127 108.667 75.081 110.563 76.3097C112.465 77.5323 114.471 78.6013 116.598 79.3447V79.3324Z" fill="#373A39"/>
<path d="M120.711 83.6386C119.216 83.4788 117.739 83.2577 116.28 82.9689C114.822 82.6802 113.369 82.3484 111.947 81.9306C110.513 81.5374 109.109 81.0521 107.723 80.5115C106.325 79.9954 104.994 79.3257 103.627 78.6807C104.842 79.5715 106.137 80.3702 107.517 81.003C108.878 81.6665 110.306 82.1825 111.765 82.5941C113.223 82.9996 114.706 83.3191 116.207 83.4911C117.702 83.6693 119.216 83.7553 120.717 83.6324L120.711 83.6386Z" fill="#373A39"/>
<path d="M101.837 28.8372C101.034 29.0338 100.275 29.3963 99.5758 29.8509C98.8769 30.3055 98.2327 30.8462 97.6614 31.4605C97.1084 32.0872 96.5797 32.7507 96.1907 33.4879C95.9658 33.8442 95.8139 34.2374 95.6377 34.6122C95.4857 34.9992 95.352 35.3986 95.2305 35.7918C95.6377 35.0668 96.0388 34.3542 96.5007 33.6845L96.8471 33.1807L97.2239 32.7015C97.467 32.3759 97.7404 32.081 98.0079 31.78C98.5487 31.1841 99.1565 30.6434 99.7885 30.1458C100.433 29.6543 101.101 29.1935 101.843 28.8311L101.837 28.8372Z" fill="#373A39"/>
<path d="M118.949 44.5225C118.864 45.7266 118.749 46.9185 118.609 48.1042C118.457 49.2899 118.305 50.4756 118.099 51.6552C117.904 52.8348 117.679 54.0082 117.424 55.1755C117.181 56.3489 116.877 57.5039 116.604 58.6774C116.828 58.1183 117.047 57.5592 117.248 56.9879C117.436 56.4165 117.618 55.839 117.776 55.2615C118.111 54.1004 118.354 52.9208 118.56 51.7289C118.761 50.5371 118.901 49.3391 118.968 48.1349C119.004 47.5328 119.022 46.9308 119.028 46.3287C119.016 45.7266 119.016 45.1245 118.949 44.5225Z" fill="#373A39"/>
<path d="M64.2866 84.5289C65.9518 81.9608 68.7596 80.1362 72.1265 79.9519L102.198 78.2439C102.83 78.2071 103.444 78.4467 103.881 78.9013L112.809 88.2212C113.575 89.026 114.474 89.6895 115.459 90.1994L120.965 92.9948C120.296 94.5307 117.817 95.0959 115.465 95.2617C113.015 95.4461 110.7 95.2065 110.7 95.2065L87.788 94.7088L79.2553 94.5245L89.8604 130.053L89.0461 130.286L80.4039 132.762H80.3857L75.9674 132.726L73.3602 124.696L72.2419 121.255L63.5269 94.3832L63.1622 93.2466C62.1534 90.1503 62.7064 86.9924 64.2987 84.535L64.2866 84.5289Z" fill="#2A2C25"/>
<path d="M62.2387 141.068C62.2266 141.154 62.2266 141.234 62.2266 141.308C62.2266 141.437 62.2387 141.566 62.257 141.695C62.3967 142.592 63.0045 143.36 63.8857 143.667L66.7482 144.656C69.4101 145.584 72.23 145.989 75.0439 145.867C75.3842 145.848 75.7124 145.83 76.0527 145.793L91.1856 144.441C92.085 144.355 92.8386 143.815 93.2337 143.047C93.4342 142.66 93.5376 142.217 93.5072 141.75C93.2155 136.719 91.1917 132.308 91.1917 132.308L90.3408 133.131L89.7938 133.665C88.0861 135.318 85.5153 135.656 83.4551 134.489L80.4103 132.762H80.3799L76.3445 133.917L63.7642 139.004C62.9255 139.354 62.3299 140.141 62.2387 141.068Z" fill="#1C1C3F"/>
<path d="M89.0386 130.274L89.616 131.54L90.3392 133.131L89.7922 133.666C88.0845 135.318 85.5137 135.656 83.4534 134.489L80.4086 132.763L80.3965 132.75L89.0386 130.274Z" fill="#FC9381"/>
<path d="M63.0961 141.819C63.6674 142.095 64.2812 142.249 64.8829 142.433L66.694 142.962L70.3404 143.932C71.5742 144.258 72.8626 144.369 74.1388 144.307C75.409 144.209 76.6488 144.08 77.9008 143.969C80.3986 143.705 82.9025 143.459 85.4004 143.171L89.1441 142.734C89.4601 142.691 89.764 142.667 90.0861 142.605C90.4021 142.544 90.706 142.433 90.9916 142.292C91.2772 142.151 91.5446 141.966 91.7817 141.751C92.0187 141.536 92.2132 141.285 92.4198 141.045C91.9944 141.512 91.5203 141.942 90.943 142.175C90.6573 142.298 90.3595 142.384 90.0557 142.427C89.7579 142.47 89.4358 142.476 89.1197 142.501L85.3578 142.808C82.8539 143.017 80.35 143.269 77.8461 143.496C76.6002 143.619 75.3361 143.773 74.1024 143.877C72.8687 143.957 71.6228 143.84 70.4134 143.576L66.7365 142.734L64.9011 142.311L63.9834 142.083C63.6796 142.003 63.3696 141.942 63.084 141.813L63.0961 141.819Z" fill="#1C1C3F"/>
<path d="M50.6832 68.8637C50.2639 69.2631 50.197 69.902 50.5191 70.3812L52.9319 73.9629C53.2357 74.4176 53.8556 74.4974 54.2689 74.1472C54.4695 73.9629 54.5789 73.711 54.5789 73.453C54.5789 73.2687 54.5242 73.0844 54.4026 72.9247L54.1656 72.5806C53.8253 72.4147 53.5822 72.083 53.5275 71.6837L53.1264 71.1123C52.9501 70.8727 53.0595 70.5287 53.3451 70.4365L54.0562 70.203C54.4938 70.0556 54.9739 70.0986 55.3811 70.3259L59.9088 72.7649C60.085 72.8571 60.2673 72.9247 60.4497 72.9615C60.869 73.066 61.3187 73.0168 61.7199 72.8386L64.2906 71.7021L72.1123 72.255C72.5681 72.2919 73.0361 72.3103 73.4919 72.3287C76.1842 72.4209 78.8704 72.2427 81.5141 71.7819L90.9159 70.1355C93.5474 69.6808 95.7839 67.9053 96.8536 65.4294L102.196 53.0378L92.3259 50.6172L91.0071 55.3539C90.4115 57.4735 88.9468 59.2367 86.9838 60.1889L80.876 63.1686C78.3903 64.3789 75.7527 65.2697 73.0482 65.8042L64.8619 67.4138C63.4155 67.6903 61.9143 67.5981 60.5165 67.1251L56.6756 65.8288L56.2805 65.6998C55.2474 65.3557 54.1109 65.6076 53.3148 66.3571L50.6832 68.8637Z" fill="#FC9381"/>
<path d="M53.3449 70.4365C53.0593 70.5286 52.9499 70.8727 53.1261 71.1123L53.5272 71.6836C53.5151 71.616 53.509 71.5546 53.509 71.487C53.509 70.8051 54.0499 70.2583 54.7245 70.2583C55.3991 70.2583 55.9521 70.8051 55.9521 71.487C55.9521 71.8126 55.8306 72.0952 55.63 72.3164C55.9521 72.513 56.2985 72.6605 56.6632 72.7588C58.45 73.2933 60.4494 72.9615 60.4494 72.9615V72.9492C60.2671 72.9123 60.0848 72.8448 59.9085 72.7526L55.3808 70.3136C54.9676 70.0924 54.4935 70.0433 54.056 70.1907L53.3449 70.4242V70.4365Z" fill="#F6667E"/>
<path d="M54.7233 70.264C55.3979 70.264 55.9509 70.8107 55.9509 71.4927C55.9509 71.8183 55.8294 72.1009 55.6288 72.3221C55.4101 72.574 55.0819 72.7275 54.7233 72.7275C54.5227 72.7275 54.3283 72.6784 54.1642 72.5801C53.8238 72.4142 53.5807 72.0825 53.526 71.6831C53.5139 71.6156 53.5078 71.5541 53.5078 71.4865C53.5078 70.8046 54.0487 70.2578 54.7233 70.2578V70.264Z" fill="#393332"/>
<path d="M90.9219 70.1413C92.5324 70.0307 94.1065 69.3057 95.3341 68.1753C95.9418 67.604 96.4645 66.9343 96.8595 66.1971C97.2606 65.4414 97.5341 64.7103 97.8623 63.9608C98.4944 62.474 99.1143 60.9811 99.6916 59.476C100.287 57.9769 100.858 56.4656 101.387 54.9297C100.634 56.3611 99.9286 57.8172 99.248 59.2794C98.5491 60.7354 97.8927 62.2099 97.2424 63.6905C96.9082 64.4154 96.6104 65.2018 96.27 65.8776C95.9054 66.5534 95.4678 67.2046 94.9269 67.7576C93.8694 68.9003 92.4655 69.7051 90.9219 70.1474V70.1413Z" fill="#FC9381"/>
<path d="M133.546 62.6523L164.006 62.6523V46.1813H133.546V62.6523Z" fill="#CA9E66"/>
<path d="M146.965 54.9297H150.6V46.1812H146.965V54.9297Z" fill="#C56800"/>
<path d="M135.242 51.6064H142.213V48.6944H135.242V51.6064Z" fill="#FFE9CA"/>
</svg>
