<svg width="254" height="193" viewBox="0 0 254 193" fill="none" xmlns="http://www.w3.org/2000/svg">
<g opacity="0.29">
<path d="M0.0026589 64.8191C-0.250418 47.1229 17.6056 35.5361 35.1834 37.6792C25.7677 30.4953 31.9822 15.3062 43.9523 15.7265H64.1615C57.4068 10.6014 61.826 -0.29577 70.4114 0.00614678H121.156C126.454 0.00614678 130.749 4.01099 130.749 8.95118C130.818 21.9173 109.965 17.0275 102.156 17.8962C95.0591 21.9662 94.328 32.8174 100.933 37.6821C123.808 37.6259 160.075 32.6531 161.29 64.8221C161.29 79.8113 148.257 91.962 132.182 91.962H173.578C191.206 92.2536 191.206 116.673 173.578 116.963C197.08 114.874 222.305 120.419 227.208 145.793C241.141 143.944 255.185 152.607 253.921 167.159C253.485 195.921 208.108 184.365 190.446 186.557C184.502 186.603 38.6391 186.523 37.3234 186.555C-11.6907 185.76 -11.7899 117.776 37.3264 116.962C37.3249 116.962 102.66 116.962 102.66 116.962C85.0248 116.667 85.0366 92.2506 102.66 91.9605H29.1125C13.0354 91.9591 0.0026589 79.8084 0.0026589 64.8191Z" fill="#039D55" fill-opacity="0.2"/>
<path d="M148.346 17.8949C136.95 17.8461 136.95 0.0537072 148.346 0.00634766C159.743 0.0537072 159.742 17.8461 148.346 17.8949Z" fill="#039D55" fill-opacity="0.2"/>
</g>
<path opacity="0.15" d="M127.001 192.691C196.388 192.691 252.637 189.85 252.637 186.346C252.637 182.842 196.388 180.001 127.001 180.001C57.6143 180.001 1.36523 182.842 1.36523 186.346C1.36523 189.85 57.6143 192.691 127.001 192.691Z" fill="#231F20"/>
<path d="M46.2952 184.01L119.628 183.939C123.439 183.936 126.527 180.855 126.524 177.057L126.388 34.6473C126.383 30.7505 123.21 27.5937 119.297 27.5967L46.3292 27.6662C42.4176 27.6707 39.249 30.8319 39.252 34.7302L39.3881 177.14C39.3896 180.939 42.4828 184.015 46.2952 184.01Z" fill="#BCBCBC"/>
<path d="M48.1976 182.614L118.907 182.546C122.591 182.543 125.576 179.546 125.571 175.855L125.438 37.0609C125.435 33.2706 122.366 30.2026 118.584 30.2056L48.2272 30.2736C44.4459 30.2766 41.3823 33.352 41.3867 37.1423L41.5199 175.937C41.5229 179.628 44.5125 182.617 48.1976 182.614Z" fill="#34495E"/>
<path d="M118.796 44.915H47.7305V165.247H118.796V44.915Z" fill="#F4F0F0"/>
<path d="M97.0855 37.7085H68.7305V39.7849H97.0855V37.7085Z" fill="white"/>
<path d="M75.7283 178.161L92.4847 178.145C93.1848 178.145 93.7516 177.575 93.7516 176.873L93.7501 174.735C93.7501 174.033 93.1818 173.465 92.4803 173.465L75.7239 173.481C75.0239 173.483 74.457 174.051 74.457 174.752L74.4585 176.891C74.46 177.593 75.0283 178.161 75.7283 178.161Z" fill="white"/>
<path opacity="0.34" d="M47.6895 52.9214L118.843 149.838L118.856 165.208L47.7901 165.28L47.6895 52.9214Z" fill="white"/>
<path d="M118.742 44.915H47.6758V50.8853H118.742V44.915Z" fill="#C0DDEE"/>
<path d="M76.9421 63.6381H72.0241C68.7459 63.6381 66.0879 60.98 66.0879 57.7019V49.6034C66.0879 49.3474 66.2966 49.1387 66.5526 49.1387H82.4121C82.6682 49.1387 82.8768 49.3474 82.8768 49.6034V57.7019C82.8783 60.9815 80.2203 63.6381 76.9421 63.6381Z" fill="#D92E48"/>
<path d="M43.1572 63.6381H37.7493C34.5422 63.6381 31.9434 61.0392 31.9434 57.8321V49.7676C31.9434 49.4213 32.2246 49.1401 32.5709 49.1401H48.3342C48.6805 49.1401 48.9617 49.4213 48.9617 49.7676V57.8321C48.9632 61.0392 46.3629 63.6381 43.1572 63.6381Z" fill="#D92E48"/>
<path d="M57.4708 63.6381C52.7704 63.6381 48.9609 62.4837 48.9609 61.0599V49.4835C48.9609 49.2941 49.1667 49.1387 49.4197 49.1387H65.5205C65.7736 49.1387 65.9793 49.2926 65.9793 49.4835V61.0599C65.9808 62.4852 62.1713 63.6381 57.4708 63.6381Z" fill="#EFDEE4"/>
<path d="M91.3263 63.6381C86.6259 63.6381 82.8164 62.4837 82.8164 61.0599V49.5664C82.8164 49.3296 83.0725 49.1387 83.3877 49.1387H99.265C99.5802 49.1387 99.8362 49.3311 99.8362 49.5664V61.0599C99.8362 62.4852 96.0267 63.6381 91.3263 63.6381Z" fill="#EFDEE4"/>
<path d="M110.896 63.6381H105.799C102.508 63.6381 99.8379 60.9697 99.8379 57.6767V49.6123C99.8379 49.3503 100.05 49.1387 100.311 49.1387H116.384C116.646 49.1387 116.858 49.3503 116.858 49.6123V57.6767C116.858 60.9697 114.189 63.6381 110.896 63.6381Z" fill="#D92E48"/>
<path d="M127.858 63.6381H122.873C119.551 63.6381 116.855 60.9445 116.855 57.6205V49.4243C116.855 49.2659 116.983 49.1387 117.141 49.1387H133.59C133.748 49.1387 133.875 49.2659 133.875 49.4243V57.6205C133.875 60.9445 131.18 63.6381 127.858 63.6381Z" fill="#EFDEE4"/>
<path d="M96.0225 37.4511L99.8335 49.069C99.872 49.1889 100.016 49.2718 100.178 49.2718H116.334C116.6 49.2718 116.772 49.0601 116.649 48.8825L108.622 37.2647C108.561 37.1759 108.438 37.1211 108.306 37.1211H96.3659C96.1365 37.1196 95.9663 37.2824 96.0225 37.4511Z" fill="#EA546B"/>
<path d="M120.011 37.1201H108.855C108.704 37.1201 108.608 37.2415 108.677 37.3421L116.863 49.1894C116.899 49.2397 116.968 49.2723 117.044 49.2723H133.523C133.692 49.2723 133.785 49.1257 133.68 49.0251L121.834 37.7846C121.39 37.3643 120.72 37.1201 120.011 37.1201Z" fill="#F1F1F1"/>
<path d="M82.8789 37.3342V49.0572C82.8789 49.1756 83.0077 49.2718 83.1675 49.2718H99.548C99.7344 49.2718 99.8721 49.1415 99.8277 49.0069L95.9664 37.2839C95.9353 37.1877 95.8184 37.1211 95.6867 37.1211H83.1675C83.0077 37.1196 82.8789 37.2158 82.8789 37.3342Z" fill="#F1F1F1"/>
<path d="M69.8941 37.3431L66.0994 48.9107C66.0387 49.0942 66.2252 49.2733 66.4783 49.2733H82.4873C82.7019 49.2733 82.8765 49.143 82.8765 48.9817V37.4141C82.8765 37.2528 82.7019 37.1211 82.4873 37.1211H70.273C70.0924 37.1196 69.937 37.2114 69.8941 37.3431Z" fill="#EA546B"/>
<path d="M44.2968 37.685L32.3133 48.921C32.1638 49.0616 32.2956 49.2718 32.5353 49.2718H48.9898C49.0978 49.2718 49.1955 49.2274 49.2458 49.1549L57.4405 37.4363C57.5411 37.2928 57.4035 37.1211 57.1889 37.1211H45.8581C45.2514 37.1196 44.6771 37.3268 44.2968 37.685Z" fill="#EA546B"/>
<path d="M57.3015 37.203L49.1172 49.0488C49.0461 49.1509 49.1453 49.2723 49.2977 49.2723H65.8218C65.915 49.2723 65.9979 49.2234 66.0201 49.1553L69.9065 37.3096C69.9376 37.2134 69.8414 37.1201 69.7082 37.1201H57.4821C57.4066 37.1201 57.337 37.1527 57.3015 37.203Z" fill="#F1F1F1"/>
<path d="M129.711 66.918H69.9636C65.1803 66.918 61.3027 70.7955 61.3027 75.5788C61.3027 80.3621 65.1803 84.2397 69.9636 84.2397H129.711C134.494 84.2397 138.371 80.3621 138.371 75.5788C138.371 70.7955 134.494 66.918 129.711 66.918Z" fill="#039D55"/>
<path d="M110.955 71.9976L113.357 82.797L115.623 79.5884L120.115 84.4768L122.755 81.8069L118.256 77.2382L121.855 75.5244L110.955 71.9976Z" fill="white"/>
<path d="M70.623 72.5801L71.6042 76.3496C71.8188 77.1769 72.0172 77.9435 72.1563 78.7102H72.2022C72.3709 77.9583 72.6166 77.1621 72.8608 76.3659L74.0714 72.5801H75.2065L76.3565 76.2889C76.6318 77.1784 76.8464 77.9598 77.0151 78.7102H77.0609C77.1838 77.9583 77.3836 77.1784 77.6278 76.3037L78.686 72.5801H80.0194L77.6278 79.9978H76.4024L75.2672 76.4576C75.0067 75.6303 74.7921 74.8948 74.6086 74.0201H74.5775C74.394 74.9096 74.1631 75.6747 73.9027 76.4724L72.7068 79.9978H71.4799L69.2422 72.5801H70.623Z" fill="white"/>
<path d="M82.08 72.5801L83.0613 76.3496C83.2759 77.1769 83.4757 77.9435 83.6133 78.7102H83.6592C83.8279 77.9583 84.0736 77.1621 84.3178 76.3659L85.5284 72.5801H86.6636L87.8135 76.2889C88.0888 77.1784 88.3034 77.9598 88.4721 78.7102H88.518C88.6408 77.9583 88.8406 77.1784 89.0848 76.3037L90.143 72.5801H91.4765L89.0848 79.9978H87.8594L86.7242 76.4576C86.4638 75.6303 86.2492 74.8948 86.0656 74.0201H86.0346C85.851 74.9096 85.6202 75.6747 85.3597 76.4724L84.1639 79.9978H82.937L80.6992 72.5801H82.08Z" fill="white"/>
<path d="M93.5415 72.5801L94.5227 76.3496C94.7373 77.1769 94.9356 77.9435 95.0747 78.7102H95.1206C95.2893 77.9583 95.535 77.1621 95.7792 76.3659L96.9898 72.5801H98.125L99.2749 76.2889C99.5502 77.1784 99.7648 77.9598 99.9335 78.7102H99.9794C100.102 77.9583 100.301 77.1784 100.546 76.3037L101.604 72.5801H102.938L100.546 79.9978H99.3208L98.1856 76.4576C97.9252 75.6303 97.7106 74.8948 97.5271 74.0201H97.4975C97.3139 74.9096 97.0831 75.6747 96.8226 76.4724L95.6268 79.9978H94.3998L92.1621 72.5801H93.5415Z" fill="white"/>
<path d="M103.359 79.2023C103.359 78.6354 103.743 78.2358 104.278 78.2358C104.816 78.2358 105.183 78.634 105.183 79.2023C105.183 79.7543 104.83 80.1687 104.262 80.1687C103.728 80.1672 103.359 79.7543 103.359 79.2023Z" fill="white"/>
<path d="M105.349 90.9814H60.3794C57.3736 90.9814 54.9375 93.4175 54.9375 96.4234V147.632C54.9375 150.638 57.3736 153.074 60.3794 153.074H105.349C108.355 153.074 110.791 150.638 110.791 147.632V96.4234C110.791 93.4175 108.355 90.9814 105.349 90.9814Z" fill="white"/>
<path d="M54.9375 137.466V147.632C54.9375 150.638 57.3736 153.074 60.3794 153.074H105.349C108.355 153.074 110.791 150.638 110.791 147.632V137.466H54.9375Z" fill="#039D55" fill-opacity="0.8"/>
<path d="M86.0443 97.5094C82.3784 97.3658 78.8531 97.8068 74.7742 97.7521C71.8394 97.7136 69.0733 97.7328 66.4996 97.5094C66.4612 97.5538 65.6501 98.5172 66.1089 99.6479C66.2998 100.12 66.7409 100.586 67.617 100.947C67.617 100.947 85.4138 100.049 86.4099 98.5498L86.0443 97.5094Z" fill="#E9E9E9"/>
<path d="M96.7219 98.8294L62.925 119.286C62.925 119.286 58.4524 113.918 59.1969 108.253C59.1969 108.253 65.9441 106.426 67.621 100.947C67.621 100.947 89.84 96.679 96.7027 98.6459C96.787 98.6681 96.7959 98.7836 96.7219 98.8294Z" fill="#3290CE"/>
<path d="M60.0316 110.097C60.6384 110.208 61.2556 110.279 61.8757 110.313C63.1174 110.381 64.3709 110.293 65.5993 110.053C66.8292 109.817 68.0324 109.424 69.1809 108.898C69.7655 108.639 70.2968 108.337 70.8814 108.016C71.4749 107.697 72.0639 107.367 72.6766 107.094C75.0994 105.941 77.6287 105.095 80.1846 104.401C82.742 103.708 85.3305 103.169 87.9501 102.796L88.0004 103.122C85.4311 103.631 82.887 104.307 80.4036 105.127C77.9217 105.949 75.4871 106.918 73.2168 108.155C72.6411 108.45 72.098 108.796 71.5504 109.129C70.9998 109.471 70.4004 109.847 69.7951 110.152C68.58 110.782 67.285 111.277 65.9442 111.602C64.6033 111.932 63.218 112.1 61.8283 112.091C61.1327 112.086 60.4372 112.04 59.743 111.949C59.6172 111.931 59.4944 111.912 59.373 111.892C59.2413 111.246 59.1584 110.58 59.1348 109.899C59.4278 109.976 59.7371 110.042 60.0316 110.097Z" fill="#BFE3F7"/>
<path d="M86.0579 105.285C86.0579 105.285 81.2627 96.5914 88.8684 96.5869C95.8021 96.5825 96.7034 98.6456 96.7034 98.6456L86.0579 105.285Z" fill="#E9E9E9"/>
<path d="M96.7049 98.645L97.6743 100.366C97.8579 100.692 97.7543 101.105 97.4375 101.303L64.5227 122.049C64.5227 122.049 63.2987 121.598 62.9258 119.286L96.7049 98.645Z" fill="#ACD7EA"/>
<path d="M81.0505 102.721L81.1023 102.724C81.4856 102.746 81.8157 102.455 81.8393 102.071L82.1235 97.3281C82.1457 96.9448 81.8541 96.6147 81.4708 96.5911L81.419 96.5881C81.0357 96.5659 80.7057 96.8575 80.682 97.2408L80.3978 101.984C80.3741 102.369 80.6672 102.697 81.0505 102.721Z" fill="#BFE3F7"/>
<path d="M77.7101 103.063L77.7353 103.065C78.126 103.088 78.462 102.789 78.4856 102.399L78.7816 97.445C78.8053 97.0543 78.5064 96.7184 78.1156 96.6947L78.0905 96.6932C77.6998 96.6695 77.3638 96.9685 77.3401 97.3592L77.0441 102.313C77.0219 102.703 77.3194 103.039 77.7101 103.063Z" fill="#BFE3F7"/>
<path d="M74.4662 103.181C74.8644 103.205 75.2062 102.901 75.2299 102.503L75.5377 97.3411C75.5614 96.943 75.258 96.6011 74.8599 96.5775C74.4618 96.5538 74.1199 96.8572 74.0962 97.2553L73.7884 102.417C73.7647 102.816 74.0681 103.157 74.4662 103.181Z" fill="#BFE3F7"/>
<path d="M70.7826 103.477C71.1808 103.5 71.5226 103.197 71.5463 102.799L71.8542 97.6366C71.8778 97.2384 71.5744 96.8966 71.1763 96.8729C70.7782 96.8492 70.4363 97.1526 70.4127 97.5507L70.1048 102.713C70.0811 103.111 70.3845 103.453 70.7826 103.477Z" fill="#BFE3F7"/>
<path d="M74.8184 121.709C77.842 119.631 81.058 118.12 84.4767 115.897C86.938 114.297 89.2867 112.838 91.3439 111.272C91.4016 111.288 92.5989 111.67 92.815 112.872C92.9053 113.374 92.7809 114.004 92.2333 114.777C92.2333 114.777 76.7068 123.52 75.064 122.783L74.8184 121.709Z" fill="#E9E9E9"/>
<path d="M66.498 128.525L105.997 127.775C105.997 127.775 106.913 120.849 103.258 116.456C103.258 116.456 96.5787 118.515 92.2349 114.778C92.2349 114.778 71.1688 123.033 66.4166 128.36C66.3559 128.425 66.4092 128.527 66.498 128.525Z" fill="#3290CE"/>
<path d="M103.538 118.46C103.085 118.877 102.601 119.266 102.095 119.627C101.083 120.348 99.9744 120.943 98.8081 121.396C97.6419 121.853 96.415 122.164 95.1644 122.331C94.531 122.425 93.9212 122.453 93.2552 122.494C92.5819 122.542 91.9085 122.577 91.2454 122.673C88.5815 122.993 85.9915 123.628 83.4592 124.403C80.927 125.185 78.451 126.11 76.0371 127.195L76.1688 127.497C78.6123 126.555 81.1253 125.768 83.6635 125.136C86.2002 124.505 88.7768 124.024 91.3564 123.857C92.0002 123.8 92.644 123.801 93.2848 123.791C93.9331 123.786 94.6405 123.783 95.3154 123.718C96.6799 123.603 98.0386 123.329 99.3469 122.888C100.657 122.45 101.918 121.852 103.087 121.103C103.671 120.729 104.235 120.319 104.774 119.87C104.87 119.787 104.963 119.706 105.057 119.624C104.823 119.007 104.537 118.399 104.194 117.813C103.984 118.035 103.759 118.257 103.538 118.46Z" fill="#BFE3F7"/>
<path d="M78.9616 128.288C78.9616 128.288 78.374 118.377 71.9405 122.434C66.0768 126.132 66.4157 128.358 66.4157 128.358L78.9616 128.288Z" fill="#E9E9E9"/>
<path d="M66.416 128.358L66.5152 130.331C66.5344 130.704 66.8422 130.997 67.2167 130.997L106.124 130.963C106.124 130.963 106.917 129.927 105.998 127.773L66.416 128.358Z" fill="#ACD7EA"/>
<path d="M81.8244 123.447L81.7815 123.478C81.4692 123.703 81.0341 123.631 80.8106 123.318L78.0371 119.459C77.8122 119.146 77.8847 118.711 78.197 118.488L78.2399 118.457C78.5522 118.232 78.9873 118.304 79.2108 118.616L81.9843 122.476C82.2077 122.787 82.1367 123.222 81.8244 123.447Z" fill="#BFE3F7"/>
<path d="M84.8315 121.954L84.8108 121.969C84.4926 122.197 84.0486 122.125 83.8206 121.806L80.9258 117.776C80.6979 117.458 80.7704 117.014 81.0886 116.786L81.1093 116.771C81.4275 116.544 81.87 116.616 82.0994 116.934L84.9943 120.964C85.2222 121.283 85.1497 121.726 84.8315 121.954Z" fill="#BFE3F7"/>
<path d="M87.6395 120.321C87.3154 120.553 86.864 120.479 86.6316 120.155L83.6139 115.955C83.3816 115.631 83.4556 115.179 83.7797 114.947C84.1038 114.715 84.5552 114.789 84.7876 115.113L87.8052 119.313C88.0376 119.637 87.9636 120.088 87.6395 120.321Z" fill="#BFE3F7"/>
<path d="M90.911 118.605C90.5869 118.837 90.1355 118.763 89.9031 118.439L86.8854 114.239C86.6531 113.915 86.7271 113.463 87.0512 113.231C87.3753 112.999 87.8267 113.073 88.059 113.397L91.0767 117.597C91.3091 117.921 91.2351 118.373 90.911 118.605Z" fill="#BFE3F7"/>
<path d="M76.9663 148.581V149.574H76.1257V148.581C74.8618 148.448 74.0922 147.838 73.8184 146.752L75.2628 146.42C75.4271 147.04 75.88 147.349 76.6185 147.349C76.9752 147.349 77.243 147.281 77.4192 147.145C77.5968 147.009 77.6841 146.843 77.6841 146.651C77.6841 146.454 77.6056 146.302 77.4473 146.194C77.2889 146.086 76.9811 145.985 76.5223 145.895C75.5263 145.689 74.8839 145.412 74.5968 145.063C74.3082 144.714 74.1632 144.307 74.1632 143.84C74.1632 143.293 74.3452 142.827 74.7093 142.439C75.0734 142.051 75.5455 141.823 76.1227 141.752V140.922H76.9633V141.742C78.0452 141.844 78.7526 142.36 79.0856 143.291L77.761 143.732C77.582 143.207 77.2016 142.944 76.6214 142.944C76.0043 142.944 75.6965 143.143 75.6965 143.543C75.6965 143.704 75.7542 143.84 75.8696 143.95C75.9851 144.061 76.2455 144.156 76.6525 144.236C77.3318 144.373 77.8306 144.511 78.1473 144.651C78.464 144.792 78.7304 145.018 78.9465 145.331C79.1626 145.643 79.2691 145.992 79.2691 146.377C79.2691 146.91 79.0767 147.392 78.6949 147.822C78.316 148.255 77.7388 148.507 76.9663 148.581Z" fill="white"/>
<path d="M84.8471 148.581V149.574H84.0065V148.581C82.7426 148.448 81.973 147.838 81.6992 146.752L83.1437 146.42C83.308 147.04 83.7608 147.349 84.4994 147.349C84.856 147.349 85.1239 147.281 85.3 147.145C85.4776 147.009 85.5649 146.843 85.5649 146.651C85.5649 146.454 85.4865 146.302 85.3281 146.194C85.1698 146.086 84.8619 145.985 84.4032 145.895C83.4071 145.689 82.7648 145.412 82.4777 145.063C82.1891 144.714 82.0441 144.307 82.0441 143.84C82.0441 143.293 82.2261 142.827 82.5902 142.439C82.9542 142.051 83.4264 141.823 84.0036 141.752V140.922H84.8442V141.742C85.9261 141.844 86.6335 142.36 86.9665 143.291L85.6419 143.732C85.4628 143.207 85.0825 142.944 84.5023 142.944C83.8852 142.944 83.5773 143.143 83.5773 143.543C83.5773 143.704 83.635 143.84 83.7505 143.95C83.8659 144.061 84.1264 144.156 84.5334 144.236C85.2127 144.373 85.7115 144.511 86.0282 144.651C86.3449 144.792 86.6113 145.018 86.8274 145.331C87.0434 145.643 87.15 145.992 87.15 146.377C87.15 146.91 86.9576 147.392 86.5758 147.822C86.1969 148.255 85.6197 148.507 84.8471 148.581Z" fill="white"/>
<path d="M92.4741 148.581V149.574H91.6335V148.581C90.3696 148.448 89.6 147.838 89.3262 146.752L90.7706 146.42C90.9349 147.04 91.3878 147.349 92.1263 147.349C92.483 147.349 92.7509 147.281 92.927 147.145C93.1046 147.009 93.1919 146.843 93.1919 146.651C93.1919 146.454 93.1135 146.302 92.9551 146.194C92.7967 146.086 92.4889 145.985 92.0301 145.895C91.0341 145.689 90.3918 145.412 90.1046 145.063C89.816 144.714 89.671 144.307 89.671 143.84C89.671 143.293 89.853 142.827 90.2171 142.439C90.5812 142.051 91.0533 141.823 91.6305 141.752V140.922H92.4711V141.742C93.553 141.844 94.2604 142.36 94.5934 143.291L93.2689 143.732C93.0898 143.207 92.7094 142.944 92.1293 142.944C91.5121 142.944 91.2043 143.143 91.2043 143.543C91.2043 143.704 91.262 143.84 91.3774 143.95C91.4929 144.061 91.7533 144.156 92.1603 144.236C92.8397 144.373 93.3384 144.511 93.6551 144.651C93.9718 144.792 94.2382 145.018 94.4543 145.331C94.6704 145.643 94.777 145.992 94.777 146.377C94.777 146.91 94.5846 147.392 94.2027 147.822C93.8238 148.255 93.2467 148.507 92.4741 148.581Z" fill="white"/>
<path d="M16.9471 180.185C16.9471 180.185 15.9777 186.63 17.0418 187.195C18.1059 187.761 29.447 186.966 29.447 186.966C29.447 186.966 30.5644 185.376 28.9616 184.798C27.3587 184.219 22.0604 182.468 21.5513 180.3L16.9471 180.185Z" fill="#252933"/>
<path d="M26.5291 180.423C26.5291 180.423 25.5597 186.868 26.6238 187.434C27.6879 187.999 39.029 187.204 39.029 187.204C39.029 187.204 40.1464 185.615 38.5436 185.036C36.9408 184.457 31.6424 182.706 31.1333 180.538L26.5291 180.423Z" fill="#2D313D"/>
<path d="M20.4803 129.003C20.4803 129.003 21.1196 130.12 21.9854 131.02C22.8512 131.918 24.9291 132.277 22.9104 133.792C20.8769 135.32 20.3841 133.72 20.1355 133.067C19.761 132.083 20.3945 132.553 19.7447 131.879C19.095 131.205 18.6836 129.867 18.6836 129.867L20.4803 129.003Z" fill="#FBDDB8"/>
<path d="M21.9747 130.195C21.9747 130.195 18.2407 124.203 16.8718 122.99C16.8718 122.99 20.2772 117.211 20.4992 114.478C20.7212 111.743 17.1411 106.13 15.8594 110.613C14.5778 115.096 11.6297 122.014 12.8506 125.049C14.0716 128.085 17.4919 128.913 19.3966 132.554L21.9747 130.195Z" fill="#F08105"/>
<path d="M20.2186 131.804L19.3987 132.554C17.4924 128.914 14.0737 128.085 12.8527 125.049C11.6317 122.014 14.5784 115.098 15.8615 110.614C16.3173 109.018 17.0647 108.704 17.8284 109.082C16.6119 110.594 13.9819 120.186 13.9864 122.388C13.9908 124.591 15.5137 126.183 17.0351 127.774C18.117 128.906 19.5052 130.801 20.2186 131.804Z" fill="#FAA22C"/>
<path d="M29.4586 95.5605C29.4586 95.5605 30.5094 99.1096 30.4561 101.264C30.4028 103.419 27.1291 104.955 27.1291 104.955L27.0817 106.841L20.7148 106.681C20.7148 106.681 20.8377 105.66 20.7518 105.226C20.663 104.794 25.621 95.7159 29.4586 95.5605Z" fill="#FEB48C"/>
<path d="M21.9946 180.842L16.6074 180.707C16.6074 180.707 17.4969 166.712 19.8264 159.762C19.8264 159.762 18.1496 151.363 17.7455 145.963C17.7455 145.963 16.196 143.228 16.9108 136.238L32.0096 136.077C32.0096 136.077 35.3366 153.95 35.7939 157.198C36.2513 160.443 32.0629 177.052 31.9549 181.361L26.0275 181.213C26.0275 181.213 26.9703 165.064 29.2465 160.268C29.2465 160.268 26.661 155.891 25.1114 153.157C25.1114 153.157 25.9728 161.805 25.3941 163.408C24.8169 165.009 22.4045 175.191 21.9946 180.842Z" fill="#3F4752"/>
<path d="M30.6915 124.183C31.3117 120.964 31.9836 116.875 31.9836 116.875C31.9836 116.875 32.1049 115.679 32.1227 115.679C32.1227 115.667 32.0457 114.379 32.0457 114.367C32.0842 108.48 28.3887 107.952 28.3887 107.952C28.3887 107.952 28.3931 107.949 28.3961 107.947L27.3497 106.848L19.8063 106.66C19.8063 106.66 16.0071 107.642 15.3485 112.479C14.6885 117.314 17.7195 125.478 17.0994 128.697C16.4793 131.916 15.1043 137.01 16.7886 137.722C18.4728 138.435 29.8006 138.179 32.0102 136.077C34.2198 133.976 30.0714 127.402 30.6915 124.183Z" fill="#FAA22C"/>
<path d="M30.6911 124.183C31.2061 121.504 31.7581 118.232 31.9283 117.205C31.9328 117.133 31.9372 117.059 31.9402 116.988C31.9431 116.928 31.9461 116.871 31.949 116.813C32.0068 115.724 32.0378 114.858 32.0497 114.464C32.0467 114.411 32.0438 114.371 32.0438 114.369C32.0482 113.708 31.9994 113.125 31.9209 112.592C28.8352 112.487 29.2481 113.686 29.2481 113.686C29.2481 113.686 28.4267 114.387 28.292 115.648C27.7844 120.381 28.0093 122.315 27.9412 125.042C27.8732 127.768 29.7957 127.815 29.6728 132.723C29.6062 135.372 26.5782 136.991 23.8047 137.922C25.2625 137.832 26.7143 137.691 28.0345 137.497C29.8445 137.175 31.3452 136.713 32.0112 136.078C34.2193 133.976 30.0709 127.402 30.6911 124.183Z" fill="#F08105"/>
<path d="M25.3956 163.407C25.9743 161.804 25.1129 153.156 25.1129 153.156C25.2669 153.429 25.4341 153.72 25.6043 154.018C25.9551 149.754 22.8841 145.283 22.8841 145.283C24.8095 154.496 23.5841 160.396 22.3987 164.679C21.2132 168.962 20.1816 180.798 20.1816 180.798L21.9931 180.844C22.4046 175.192 24.8169 165.009 25.3956 163.407Z" fill="#2F3740"/>
<path d="M31.7733 91.5932C30.9445 92.3805 28.7896 92.3272 28.7896 92.3272C29.8804 91.8152 29.907 90.7377 29.907 90.7377C28.2642 91.7752 25.3338 90.3544 22.1016 90.273C18.8693 90.1916 17.7104 93.3973 17.7104 93.3973C17.185 92.8452 17.1984 92.3065 17.1984 92.3065C16.633 93.3706 17.1451 94.4614 17.1451 94.4614C16.6197 93.9093 15.5156 94.9601 15.5156 94.9601C16.0543 94.9734 16.5797 95.5255 16.5797 95.5255C15.9596 98.7444 18.3098 101.768 19.3739 102.335C20.4381 102.9 19.8594 104.503 20.3848 105.055C20.9102 105.607 25.4966 105.453 26.6007 104.402C27.7048 103.352 27.3141 97.4125 27.3141 97.4125C28.3915 97.4391 28.8769 99.6073 28.8769 99.6073C29.4541 98.0089 28.4448 96.5837 28.4388 96.5748C30.8734 94.4688 31.7733 91.5932 31.7733 91.5932Z" fill="#221E52"/>
<path d="M46.8892 102.671C46.8892 102.671 48.0436 102.03 48.1324 101.37C48.2123 100.775 48.1946 100.985 48.2123 100.727C48.2182 100.639 48.2434 100.465 48.2434 100.465C48.2434 100.465 48.455 98.8389 48.9375 98.6732C49.42 98.5074 49.679 98.8818 49.4111 99.7195C49.1432 100.556 50.342 101.151 51.0879 99.9548C51.8338 98.7575 53.0682 97.6372 53.2857 98.17C53.5033 98.7028 52.71 99.5908 52.71 99.5908C52.71 99.5908 52.7544 99.6337 52.9424 99.3954C53.1303 99.1571 53.3523 98.392 53.487 98.5607C53.6217 98.7294 54.5689 99.7536 53.7356 101.469C52.9009 103.183 51.6355 103.473 51.1368 103.662C50.638 103.852 49.0618 104.902 48.7895 105.466C48.788 105.466 46.3387 103.596 46.8892 102.671Z" fill="#FEB48C"/>
<path d="M46.1172 103.137L47.2435 102.224L49.9859 104.944L48.9647 105.945L46.1172 103.137Z" fill="#DEEBF4"/>
<path d="M23.418 110.119C23.418 110.119 25.2384 107.658 29.2935 108.077C33.4019 108.501 37.0027 108.938 37.0027 108.938L46.9038 102.269L49.7602 105.3C49.7602 105.3 41.271 113.588 37.9559 113.85C36.5514 114.418 28.148 116.295 23.418 110.119Z" fill="#FAA22C"/>
<path d="M49.1674 104.669C46.4531 107.242 38.405 112.281 33.4056 112.105C33.4056 112.105 30.8867 112.097 29.127 114.001C33.0741 115.165 37.0345 114.224 37.9595 113.85C38.3443 113.819 38.8016 113.68 39.3048 113.458L39.3018 113.455C43.1306 111.773 49.7624 105.3 49.7624 105.3L49.1674 104.669Z" fill="#F08105"/>
<path d="M181.899 183.874H179.623L185.999 140.838H188.277L181.899 183.874Z" fill="#D4D4D4"/>
<path d="M182.645 183.874H180.367L186.744 140.838H189.022L182.645 183.874Z" fill="#A9A9A9"/>
<path d="M158.737 159.976H156.73V181.645H158.737V159.976Z" fill="#242157"/>
<path d="M160.221 181.615C160.221 182.921 159.106 183.98 157.732 183.98C156.357 183.98 155.242 182.921 155.242 181.615C155.242 180.308 156.357 179.25 157.732 179.25C159.106 179.248 160.221 180.308 160.221 181.615Z" fill="#1A1844"/>
<path d="M159.152 181.615C159.152 182.359 158.516 182.963 157.731 182.963C156.947 182.963 156.311 182.359 156.311 181.615C156.311 180.869 156.947 180.265 157.731 180.265C158.516 180.265 159.152 180.869 159.152 181.615Z" fill="#242157"/>
<path d="M139.004 179.278V178.227V177.987L139.26 177.937L157.595 174.392L157.72 174.369L157.844 174.388L176.476 177.352L176.742 177.395V177.644V179.247H176.123V177.644L176.39 177.935L157.622 175.884L157.872 175.88L139.368 178.517L139.624 178.227V179.278H139.004Z" fill="#1A1844"/>
<path d="M141.806 181.645C141.806 182.952 140.692 184.01 139.316 184.01C137.941 184.01 136.826 182.951 136.826 181.645C136.826 180.34 137.941 179.28 139.316 179.28C140.692 179.279 141.806 180.338 141.806 181.645Z" fill="#1A1844"/>
<path d="M140.738 181.646C140.738 182.39 140.102 182.995 139.317 182.995C138.533 182.995 137.896 182.392 137.896 181.646C137.896 180.901 138.533 180.296 139.317 180.296C140.103 180.296 140.738 180.9 140.738 181.646Z" fill="#242157"/>
<path d="M178.925 181.615C178.925 182.921 177.811 183.98 176.436 183.98C175.061 183.98 173.945 182.921 173.945 181.615C173.945 180.308 175.06 179.25 176.436 179.25C177.81 179.248 178.925 180.308 178.925 181.615Z" fill="#1A1844"/>
<path d="M177.857 181.615C177.857 182.359 177.221 182.963 176.436 182.963C175.652 182.963 175.016 182.359 175.016 181.615C175.016 180.869 175.652 180.265 176.436 180.265C177.221 180.265 177.857 180.869 177.857 181.615Z" fill="#242157"/>
<path d="M155.877 172.326H159.867V157.948H155.877V172.326Z" fill="#1A1844"/>
<path d="M154.47 160.177H161.273C161.541 160.177 161.759 159.959 161.759 159.691V158.19H153.984V159.691C153.983 159.959 154.2 160.177 154.47 160.177Z" fill="#1A1844"/>
<path d="M145.527 158.432H168.493C169.711 158.432 170.7 157.37 170.7 156.058C170.7 154.747 169.713 153.685 168.493 153.685H145.527C144.309 153.685 143.32 154.747 143.32 156.058C143.32 157.37 144.309 158.432 145.527 158.432Z" fill="#6C6581"/>
<path d="M155.356 153.685L153.923 149.905H145.637L147.171 153.685H155.356Z" fill="#1A1844"/>
<path d="M155.988 150.725C155.988 150.725 159.094 149.526 156.99 141.599C154.885 133.672 153.026 131.318 150.623 130.66C148.219 130.003 148.529 124.615 149.575 124.14C150.623 123.665 150.639 112.649 145.33 112.711C140.022 112.775 137.195 112.646 136.912 115.184C136.63 117.722 136.064 122.293 137.901 123.709C139.739 125.125 140.587 130.017 140.022 130.659C139.456 131.303 137.383 133.091 137.893 135.04C138.404 136.99 139.769 150.722 141.294 150.722C142.82 150.725 155.988 150.725 155.988 150.725Z" fill="#373351"/>
<path d="M149.577 124.14C148.529 124.615 148.221 130.003 150.625 130.66C153.028 131.318 154.885 133.672 156.991 141.599C157.726 144.362 157.825 146.308 157.644 147.67C155.173 147.67 145.527 147.67 144.265 147.67C142.816 147.67 141.52 134.627 141.036 132.775C140.55 130.922 142.52 129.225 143.057 128.614C143.595 128.002 142.79 123.358 141.043 122.011C139.298 120.666 139.835 116.325 140.103 113.914C140.152 113.482 140.279 113.132 140.482 112.846C141.761 112.732 143.377 112.733 145.332 112.711C150.641 112.649 150.625 123.665 149.577 124.14Z" fill="#6C6581"/>
<path d="M184.017 174.827L183.789 178.32L179.464 178.569L179.236 174.579L184.017 174.827Z" fill="#FBCEBF"/>
<path d="M178.72 183.807H192.656C192.656 183.807 192.888 180.804 190.914 180.985C188.94 181.165 186.367 179.678 184.867 178.192C183.366 176.706 179.185 177.366 178.72 178.192C178.255 179.019 178.72 183.807 178.72 183.807Z" fill="#202B38"/>
<path d="M178.701 176.697C178.701 176.697 182.409 177.181 184.994 176.808C184.994 176.808 187.002 149.001 183.464 146.423C179.139 143.272 165.621 143.139 165.621 143.139L178.096 158.261L178.701 176.697Z" fill="#121E21"/>
<path d="M190.653 172.552L192.013 175.719L188.353 178.257L186.373 174.898L190.653 172.552Z" fill="#FBCEBF"/>
<path d="M190.045 183.222L202.198 175.75C202.198 175.75 201.06 173.008 199.419 174.223C197.778 175.438 194.871 175.522 192.898 175.031C190.925 174.539 187.575 177.357 187.538 178.327C187.501 179.295 190.045 183.222 190.045 183.222Z" fill="#19232D"/>
<path d="M163.851 140.595C163.851 140.595 164.641 143.629 171.15 145.517C177.57 147.379 181.868 148.751 183.462 152.689C185.056 156.629 192.478 173.677 192.478 173.677C192.478 173.677 189.434 176.512 186.703 177.301L175.1 156.198C175.1 156.198 171.387 154.6 165.621 154.301C156.874 153.848 149.567 156.318 149.045 151.22C149.042 151.22 154.772 141.008 163.851 140.595Z" fill="#223A3F"/>
<path d="M161.019 130.42C161.613 130.056 163.438 128.829 164.329 128.227C164.701 129.331 165.097 130.768 165.249 131.332C165.27 131.413 165.291 131.496 165.314 131.577C165.314 131.577 171.56 131.663 171.68 133.525C171.68 133.525 166.704 134.206 164.289 134.126C161.873 134.046 161.258 133.732 161.258 133.732C161.258 133.732 160.225 130.907 161.019 130.42Z" fill="#F29B75"/>
<path d="M164.733 141.924C163.953 140.415 162.965 138.875 162.272 136.664C161.622 134.592 161.238 132.695 161.008 131.079C161.593 130.815 162.24 130.49 162.898 130.047C163.888 129.383 163.506 129.759 164.636 128.816C164.636 128.816 163.656 123.244 161.557 120.271C159.445 117.279 149.638 114.399 149.638 114.399C149.638 114.399 140.371 116.172 140.069 121.206C139.52 125.757 145.338 145.868 148.912 150.988C148.914 150.988 163.909 144.767 164.733 141.924Z" fill="#4484E0"/>
<path d="M159.373 126.548C159.489 126.933 159.622 127.312 159.756 127.69C159.893 128.068 160.032 128.445 160.174 128.82C160.452 129.554 160.742 130.283 161.035 131.011C161.498 130.812 161.951 130.578 162.392 130.325C162.847 130.063 163.289 129.779 163.714 129.468C164.029 129.238 164.331 128.99 164.624 128.731L164.64 128.849C164.359 129.095 164.071 129.332 163.769 129.551C163.341 129.863 162.895 130.149 162.438 130.414C161.979 130.676 161.512 130.918 161.026 131.127L160.964 131.154V131.099C160.677 130.348 160.396 129.597 160.125 128.839C159.989 128.461 159.857 128.081 159.728 127.701C159.601 127.319 159.474 126.937 159.367 126.549L159.373 126.548Z" fill="#1B62C9"/>
<path d="M186.893 123.917H164.154V137.701H186.893V123.917Z" fill="#F1B059"/>
<path d="M186.893 123.917H180.064V137.701H186.893V123.917Z" fill="#CE7A3C"/>
<path d="M164.154 135.722L165.507 125.13C165.507 125.13 172.722 124.619 177.939 123.917H164.154V135.722Z" fill="#F9CF9D"/>
<path d="M171.434 137.701L177.617 137.126L178.583 123.917H180.065V137.701H171.434Z" fill="#E09A46"/>
<path d="M182.639 137.701L185.473 136.87V123.917H186.891V137.701H182.639Z" fill="#B56128"/>
<path d="M182.639 123.917V126.749L183.034 126.558V126.845L183.3 126.533L183.687 126.845L183.855 126.581L184.314 126.845V123.917H182.639Z" fill="#FECBAA"/>
<path d="M150.342 130.714C150.342 130.714 150.808 131.62 151.128 132.946C151.128 132.946 159.922 133.037 163.638 133.769C163.638 133.769 169.394 131.895 171.352 134.454C173.31 137.014 169.234 137.261 168.393 136.795C167.554 136.329 165.676 136.211 164.396 136.795C163.117 137.38 149.167 138.056 147.688 136.986C146.21 135.917 144.93 132.488 144.93 132.488L150.342 130.714Z" fill="#FEB48C"/>
<path d="M145.089 115.864C140.289 120.186 141.834 124.956 143.213 127.498C144.593 130.041 150.813 128.617 150.813 128.617L151.411 130.361C148.849 131.136 146.286 131.912 143.724 132.687C142.963 131.407 142.188 129.97 141.439 128.375C141.14 127.738 140.871 127.118 140.615 126.51C140.165 124.161 139.946 122.264 140.073 121.207C140.227 118.648 142.697 116.934 145.089 115.864Z" fill="#346ED8"/>
<path d="M205.698 183.874H207.974L201.598 140.838H199.32L205.698 183.874Z" fill="#D4D4D4"/>
<path d="M206.289 183.874H208.566L202.19 140.838H199.912L206.289 183.874Z" fill="#A9A9A9"/>
<path d="M127.043 183.874H124.766L131.143 140.838H133.421L127.043 183.874Z" fill="#D4D4D4"/>
<path d="M126.453 183.874H124.176L130.553 140.838H132.831L126.453 183.874Z" fill="#A9A9A9"/>
<path d="M148.137 184.01H150.413L144.037 140.973H141.76L148.137 184.01Z" fill="#D4D4D4"/>
<path d="M148.705 184.01H150.983L144.606 140.973H142.328L148.705 184.01Z" fill="#A9A9A9"/>
<path d="M131.142 140.839H130.552L130.207 143.171H133.074L133.42 140.839H132.83H131.142Z" fill="#737373"/>
<path d="M202.194 140.839H201.604H199.917H199.326L199.671 143.171H202.539L202.194 140.839Z" fill="#737373"/>
<path d="M186.749 140.839H186.003L185.658 143.171H188.68L189.027 140.839H188.281H186.749Z" fill="#737373"/>
<path d="M144.604 140.973H144.037H142.327H141.76L142.085 143.171H144.93L144.604 140.973Z" fill="#737373"/>
<path d="M125.935 141.88H207.045C207.885 141.88 208.566 140.903 208.566 139.698C208.566 138.493 207.885 137.517 207.045 137.517H125.935C125.095 137.517 124.414 138.493 124.414 139.698C124.414 140.903 125.095 141.88 125.935 141.88Z" fill="#A9A9A9"/>
<path d="M125.935 137.517H207.045C207.885 137.517 208.566 138.493 208.566 139.698C208.566 139.896 208.545 140.089 208.511 140.272H124.469C124.433 140.089 124.414 139.898 124.414 139.698C124.414 138.493 125.095 137.517 125.935 137.517Z" fill="#D5D5D5"/>
<path d="M148.602 114.701L149.639 112.594L155.386 113.917L155.081 117.275C155.081 117.273 151.473 120.38 148.602 114.701Z" fill="#F29B75"/>
<path d="M159.863 107.068C159.863 107.068 159.211 109.816 158.783 111.265C158.355 112.714 157.418 116.045 154.377 115.672C151.336 115.299 150.103 113.384 149.218 112.453C149.218 112.453 146.632 108.392 147.4 107.57C148.169 106.747 149.508 103.991 152.407 104.846C155.306 105.702 159.863 107.068 159.863 107.068Z" fill="#FEB48C"/>
<path d="M149.329 112.603C149.329 112.603 146.321 108.563 145.926 106.346C145.53 104.127 145.958 102.678 147.21 101.997C147.21 101.997 146.529 100.745 146.047 100.603C146.047 100.603 147.496 101.031 147.836 101.657C147.836 101.657 147.781 100.065 148.407 99.7241C148.407 99.7241 148.122 100.691 148.462 101.317C148.462 101.317 151.196 97.3976 153.951 98.737C156.707 100.076 160.825 103.918 161.933 103.722C161.933 103.722 161.307 104.062 160.341 103.776C160.341 103.776 161.647 104.688 163.096 105.116C163.096 105.116 161.899 107.389 157.749 107.213C153.599 107.037 150.843 105.697 150.843 105.697C150.843 105.697 150.811 109.365 149.899 110.672C149.899 110.672 149.504 108.453 148.538 108.169C147.571 107.883 148.11 109.618 148.45 110.244C148.791 110.867 149.812 112.745 149.329 112.603Z" fill="#221E52"/>
<path d="M143.725 132.701C145.022 132.339 146.317 131.969 147.609 131.59C148.255 131.4 148.901 131.208 149.544 131.011C150.188 130.814 150.832 130.613 151.47 130.389L151.516 130.373L151.5 130.324C151.027 128.958 150.533 127.601 150.009 126.256C149.747 125.584 149.478 124.914 149.194 124.251C148.908 123.589 148.614 122.929 148.281 122.291L148.269 122.298C148.596 122.939 148.884 123.601 149.163 124.265C149.441 124.93 149.703 125.602 149.959 126.277C150.469 127.626 150.95 128.988 151.409 130.357L151.439 130.293C150.805 130.521 150.165 130.728 149.524 130.933C148.881 131.137 148.239 131.335 147.594 131.532C146.305 131.924 145.014 132.308 143.721 132.685L143.725 132.701Z" fill="#1B62C9"/>
<path d="M204.056 159.688H185.135V171.906H204.056V159.688Z" fill="#F1B059"/>
<path d="M204.059 159.688H198.377V171.906H204.059V159.688Z" fill="#CE7A3C"/>
<path d="M185.135 170.152L186.261 160.763C186.261 160.763 192.264 160.31 196.606 159.688H185.135V170.152Z" fill="#F9CF9D"/>
<path d="M191.191 171.906L196.336 171.397L197.141 159.688H198.374V171.906H191.191Z" fill="#F2B368"/>
<path d="M200.52 171.906L202.879 171.17V159.688H204.058V171.906H200.52Z" fill="#B56128"/>
<path d="M200.52 159.688V162.199L200.848 162.03V162.284L201.07 162.008L201.391 162.284L201.532 162.051L201.914 162.284V159.688H200.52Z" fill="#FECBAA"/>
<path d="M207.836 147.472H188.914V159.689H207.836V147.472Z" fill="#F1B059"/>
<path d="M207.838 147.472H202.156V159.689H207.838V147.472Z" fill="#CE7A3C"/>
<path d="M188.914 157.937L190.04 148.548C190.04 148.548 196.043 148.095 200.385 147.473H188.914V157.937Z" fill="#F9CF9D"/>
<path d="M194.971 159.689L200.117 159.18L200.92 147.472H202.153V159.689H194.971Z" fill="#F2B368"/>
<path d="M204.299 159.689L206.656 158.955V147.472H207.836V159.689H204.299Z" fill="#B56128"/>
<path d="M204.299 147.472V149.982L204.627 149.814V150.068L204.848 149.791L205.169 150.068L205.31 149.834L205.691 150.068V147.472H204.299Z" fill="#FECBAA"/>
<path d="M222.045 159.688H203.123V171.906H222.045V159.688Z" fill="#F1B059"/>
<path d="M222.047 159.688H216.365V171.906H222.047V159.688Z" fill="#CE7A3C"/>
<path d="M203.123 170.152L204.249 160.763C204.249 160.763 210.252 160.31 214.594 159.688H203.123V170.152Z" fill="#F9CF9D"/>
<path d="M209.18 171.906L214.326 171.397L215.129 159.688H216.362V171.906H209.18Z" fill="#F2B368"/>
<path d="M218.508 171.906L220.867 171.17V159.688H222.045V171.906H218.508Z" fill="#B56128"/>
<path d="M218.508 159.688V162.199L218.836 162.03V162.284L219.057 162.008L219.378 162.284L219.52 162.051L219.902 162.284V159.688H218.508Z" fill="#FECBAA"/>
<path d="M195.724 171.792H176.803V184.009H195.724V171.792Z" fill="#F1B059"/>
<path d="M195.727 171.792H190.045V184.009H195.727V171.792Z" fill="#CE7A3C"/>
<path d="M176.803 182.255L177.929 172.866C177.929 172.866 183.932 172.414 188.274 171.792H176.803V182.255Z" fill="#F9CF9D"/>
<path d="M182.859 184.009L188.005 183.5L188.809 171.792H190.042V184.009H182.859Z" fill="#E09A46"/>
<path d="M192.188 184.009L194.545 183.274V171.792H195.725V184.009H192.188Z" fill="#B56128"/>
<path d="M192.188 171.792V174.302L192.516 174.133V174.386L192.737 174.111L193.058 174.386L193.198 174.154L193.582 174.386V171.792H192.188Z" fill="#FECBAA"/>
<path d="M212.986 171.792H194.064V184.01H212.986V171.792Z" fill="#F1B059"/>
<path d="M212.986 171.792H207.305V184.01H212.986V171.792Z" fill="#CE7A3C"/>
<path d="M194.064 182.256L195.191 172.867C195.191 172.867 201.194 172.414 205.536 171.792H194.064V182.256Z" fill="#F9CF9D"/>
<path d="M200.121 184.01L205.267 183.501L206.071 171.792H207.303V184.01H200.121Z" fill="#F2B368"/>
<path d="M209.449 184.01L211.808 183.274V171.792H212.988V184.01H209.449Z" fill="#B56128"/>
<path d="M209.449 171.792V174.303L209.778 174.134V174.387L209.998 174.112L210.321 174.387L210.462 174.155L210.843 174.387V171.792H209.449Z" fill="#FECBAA"/>
<path d="M230.008 171.792H211.086V184.009H230.008V171.792Z" fill="#F1B059"/>
<path d="M230.01 171.792H224.328V184.009H230.01V171.792Z" fill="#CE7A3C"/>
<path d="M211.086 182.255L212.212 172.866C212.212 172.866 218.215 172.414 222.557 171.792H211.086V182.255Z" fill="#F9CF9D"/>
<path d="M217.143 184.009L222.288 183.5L223.094 171.792H224.326V184.009H217.143Z" fill="#F2B368"/>
<path d="M226.471 184.009L228.83 183.274V171.792H230.009V184.009H226.471Z" fill="#B56128"/>
<path d="M226.471 171.792V174.302L226.799 174.133V174.386L227.021 174.111L227.342 174.386L227.483 174.154L227.865 174.386V171.792H226.471Z" fill="#FECBAA"/>
<path d="M218.764 156.095C218.764 156.095 219.88 177.263 220.623 181.8C220.623 181.8 220.178 183 217.551 183.768C214.924 184.536 213.388 185.304 214.428 186.552C214.428 186.552 224.341 186.792 225.134 186.216C225.928 185.64 225.63 184.728 224.491 182.568C224.491 182.568 226.126 158.231 225.185 156.095H218.764Z" fill="#E8B795"/>
<path d="M226.92 156.095C226.92 156.095 227.069 162.311 229.002 166.584C230.935 170.857 234.604 179.448 234.604 180.841C234.604 182.233 234.604 184.296 234.604 184.296C234.604 184.296 236.785 185.736 237.925 183.288C237.925 183.288 237.429 179.593 236.984 176.713C236.538 173.833 234.802 165 234.159 162.265C233.515 159.529 233.365 156.097 233.365 156.097H226.92V156.095Z" fill="#E8B795"/>
<path d="M217.329 183.836C214.841 184.582 213.417 185.341 214.428 186.553C214.428 186.553 224.341 186.793 225.134 186.217C225.871 185.681 225.665 184.855 224.72 183.01C224.717 183.011 219.732 185.246 217.329 183.836Z" fill="#01153E"/>
<path d="M234.605 184.298C234.605 184.298 233.117 185.583 233.899 186.951C234.68 188.318 238.285 187.338 238.731 186.604C239.176 185.87 237.926 183.291 237.926 183.291L234.605 184.298Z" fill="#01153E"/>
<path d="M228.102 91.5584C228.102 91.5584 229.945 90.6038 231.348 94.323C232.752 98.0422 232.825 103.838 232.319 105.812C232.319 105.812 236.395 110.2 233.065 113.068C233.065 113.068 228.475 117.896 228.173 119.139C228.055 118.848 226.085 115.302 222.894 115.105C219.703 114.908 211.837 106.645 216.031 105.362C216.031 105.362 215.719 106.699 217.15 106.377C218.581 106.056 217.68 101.129 217.695 99.386C217.71 97.6426 218.759 93.3477 221.811 91.5258C224.863 89.7025 228.376 89.8312 228.102 91.5584Z" fill="#1C1715"/>
<path d="M222.896 103.027C222.896 103.027 222.236 105.483 221.804 105.811C221.804 105.811 221.369 106.943 222.649 110.143C223.929 113.343 227.169 111.556 227.687 110.683C228.205 109.81 229.349 108.139 228.305 106.476C228.305 106.476 226.876 105.438 227.623 103.181C227.623 103.183 223.122 102.274 222.896 103.027Z" fill="#EBA97A"/>
<path d="M228.18 103.238C228.18 103.238 226.01 104.92 224.237 104.271C222.464 103.621 220.893 101.906 220.407 100.189C219.922 98.4722 220.711 95.0282 221.903 93.8013C223.096 92.5759 227.529 91.7708 228.773 93.3677C230.018 94.9646 230.502 101.403 228.18 103.238Z" fill="#FDC596"/>
<path d="M232.177 133.617C232.177 133.617 236.895 136.157 237.154 137.437L231.955 135.774L232.177 133.617Z" fill="#34455D"/>
<path d="M218.302 135.002C218.302 135.002 216.407 148.829 218.248 157.641C218.248 157.641 231.581 158.695 234.085 157.293C234.085 157.293 234.921 142.119 233.888 135.08L218.302 135.002Z" fill="#314452"/>
<path d="M234.083 157.295C234.083 157.295 234.059 155.985 234.203 154.668C233.08 155.252 230.589 156.787 226.788 156.176C221.626 155.344 220.441 144.621 221.047 139.579C221.274 137.695 221.91 135.996 222.618 134.606L218.3 135.003C218.3 135.003 216.405 148.831 218.246 157.642C218.246 157.641 231.579 158.696 234.083 157.295Z" fill="#153047"/>
<path d="M227.572 105.654C227.572 105.654 223.694 107.353 221.815 105.416C221.815 105.416 213.684 113.561 218.298 134.929C218.298 134.929 233.805 135.73 234.113 135.783C234.421 135.837 233 131.15 231.186 129.85C229.385 128.558 218.977 122.564 227.612 105.997C227.671 105.883 227.662 105.817 227.572 105.654Z" fill="#F6F6F6"/>
<path d="M229.03 135.478C216.757 132.693 220.552 120.141 220.131 117.627C219.782 115.536 223.248 108.615 224.426 106.341C223.482 106.349 222.513 106.132 221.818 105.414C221.818 105.414 213.687 113.56 218.302 134.928C218.302 134.928 224.465 135.246 229.097 135.495C229.073 135.489 229.054 135.483 229.03 135.478Z" fill="#DCE2EA"/>
<path d="M227.688 105.605C227.688 105.605 228.706 105.712 230.103 106.132C230.666 106.304 234.46 107.689 234.201 113.725C233.922 120.24 233.33 125.733 234.268 127.972C235.206 130.212 237.343 133.932 237.459 137.945C232.621 134.045 226.772 129.855 223.569 123.124C219.117 113.765 227.688 105.605 227.688 105.605Z" fill="#FF77C4"/>
<path d="M231.174 106.637C232.47 107.443 234.388 109.378 234.202 113.726C233.922 120.241 233.33 125.734 234.268 127.974C235.207 130.213 237.344 133.934 237.459 137.946C237.459 137.946 235.365 131.249 231.954 127.744C231.955 127.743 234.695 113.65 231.174 106.637Z" fill="#E55DAA"/>
<path d="M241.002 134.913C241.002 134.913 241.62 135.687 241.466 136.162C241.327 136.591 241.383 136.443 241.312 136.624C241.287 136.686 241.248 136.812 241.248 136.812C241.248 136.812 240.863 137.982 241.155 138.237C241.446 138.49 241.756 138.311 241.84 137.661C241.924 137.013 242.98 136.955 243.12 137.99C243.261 139.024 243.776 140.147 244.107 139.847C244.439 139.547 244.164 138.71 244.164 138.71C244.164 138.71 244.21 138.694 244.266 138.912C244.322 139.129 244.229 139.715 244.381 139.64C244.534 139.564 245.55 139.141 245.519 137.729C245.487 136.317 244.674 135.75 244.38 135.477C244.084 135.203 243.301 134.026 243.292 133.563C243.288 133.559 240.914 134.121 241.002 134.913Z" fill="#FCC596"/>
<path d="M230.819 107.282C230.819 107.282 229.311 111.863 231.615 115.937C233.921 120.013 236.465 127.887 237.952 130.351C239.44 132.815 240.976 135.532 240.976 135.532L243.903 134.559C243.903 134.559 240.37 124.779 238.859 122.708C238.861 122.708 235.766 106.658 230.819 107.282Z" fill="#FF77C4"/>
<path d="M228.088 105.603L224.649 108.446L224.1 106.421L226.858 105.644L228.088 105.603Z" fill="#9CD6E2"/>
<path d="M221.952 105.414L223.971 106.339L222.063 108.534C222.061 108.534 221.135 106.289 221.952 105.414Z" fill="#9CD6E2"/>
<path d="M198.814 119.758L202.275 118.562C202.502 118.484 202.751 118.593 202.844 118.814L207.103 128.765C207.226 129.051 207.034 129.372 206.723 129.4L202.774 129.748C202.576 129.766 202.388 129.652 202.312 129.468L198.541 120.365C198.439 120.121 198.565 119.844 198.814 119.758Z" fill="#1E2B5B"/>
<path d="M201.376 122.007C201.603 121.798 201.968 121.937 201.996 122.243C202.018 122.492 201.986 122.801 201.81 123.136C201.378 123.96 201.338 124.903 201.534 124.903C201.731 124.903 202.28 123.136 202.949 123.272C203.617 123.41 202.242 125.492 202.439 125.767C202.636 126.043 203.381 124.314 203.735 124.628C204.089 124.941 202.911 126.749 203.028 126.985C203.146 127.221 203.932 126.239 204.01 126.593C204.089 126.947 203.897 127.654 202.717 128.4C202.717 128.4 200.947 129.657 200.083 128.714C199.263 127.822 198.903 124.281 201.376 122.007Z" fill="#FDC596"/>
<path d="M209.747 121.909C208.412 124.452 205.123 124.144 205.123 124.144L206.735 127.909C211.423 129.537 214.382 125.489 214.382 125.489C217.445 122.496 218.547 106.325 218.547 106.325C213.676 107.66 211.083 119.366 209.747 121.909Z" fill="#E55DAA"/>
<path d="M215.571 111.93C215.571 111.93 215.816 110.378 216.341 108.334C216.492 107.747 216.884 107.048 217.427 106.712C218.605 105.985 220.494 105.624 221.95 105.414C221.95 105.414 217.905 120.824 218.182 132.563C218.38 133.596 218.465 134.49 218.3 134.928C218.3 134.928 217.337 135.307 215.684 136.415C214.167 137.432 216.271 128.731 216.629 127.291C215.651 121.691 214.999 117.756 215.571 111.93Z" fill="#FF77C4"/>
<path d="M230.644 108.747C230.644 108.747 232.423 109.435 233.434 108.063C234.445 106.689 232.749 105.865 232.749 105.865C232.749 105.865 233.851 107.255 232.244 107.428C230.635 107.603 230.627 104.903 231.19 103.413C232.821 99.1119 231.876 96.2822 231.122 94.7415C230.368 93.2009 229.024 92.0717 229.024 92.0717L228.105 91.5596L227.467 93.121C227.467 93.121 228.624 94.8895 229.21 96.5205C229.796 98.1514 230.046 100.247 228.673 102.95C227.3 105.652 226.956 108.306 230.644 108.747Z" fill="#442B19"/>
<path d="M227.465 93.1204L228.103 91.5591C228.103 91.5591 229.945 90.6045 231.349 94.3237C231.831 95.6009 232.083 97.1342 232.186 98.6763C231.556 100.988 229.769 103.652 228.797 105.916C227.57 108.774 231.325 108.011 231.325 108.011C231.325 108.011 230.074 110.128 228.192 108.497C226.123 106.704 227.927 103.744 228.717 102.194C229.507 100.645 229.374 97.7084 228.616 96.039C227.859 94.3681 227.465 93.1204 227.465 93.1204Z" fill="#513826"/>
<path d="M227.464 93.1215C227.464 93.1215 223.261 92.007 221.149 97.0967C219.039 102.186 222.068 104.531 221.535 106.099C221.003 107.668 219.572 107.895 218.342 106.28C218.342 106.28 219.853 107.254 220.078 106.154C220.303 105.055 217.793 103.443 218.021 99.2456C218.1 97.7716 218.34 96.5032 218.615 95.4761C219.261 93.9606 220.286 92.4362 221.808 91.526C224.86 89.7042 228.374 89.8315 228.101 91.5601L227.464 93.1215Z" fill="#442B19"/>
<path d="M170.279 120.304C171.474 119.483 172.743 118.886 174.095 118.008C175.067 117.376 175.995 116.799 176.808 116.182C176.83 116.19 177.303 116.339 177.389 116.814C177.425 117.012 177.376 117.261 177.16 117.566C177.16 117.566 171.025 121.02 170.377 120.729L170.279 120.304Z" fill="#E9E9E9"/>
<path d="M166.993 122.996L182.597 122.7C182.597 122.7 182.958 119.964 181.515 118.229C181.515 118.229 178.876 119.042 177.161 117.566C177.161 117.566 168.839 120.828 166.962 122.931C166.937 122.957 166.958 122.998 166.993 122.996Z" fill="#3290CE"/>
<path d="M181.627 119.021C181.448 119.185 181.257 119.339 181.057 119.482C180.657 119.767 180.219 120.002 179.759 120.181C179.299 120.362 178.813 120.484 178.319 120.551C178.069 120.588 177.828 120.598 177.564 120.615C177.298 120.632 177.033 120.647 176.771 120.686C175.719 120.811 174.696 121.063 173.696 121.369C172.695 121.677 171.717 122.043 170.764 122.472L170.815 122.59C171.78 122.219 172.774 121.908 173.775 121.658C174.777 121.409 175.796 121.218 176.815 121.153C177.07 121.13 177.324 121.131 177.578 121.127C177.834 121.125 178.113 121.124 178.38 121.099C178.918 121.053 179.456 120.945 179.972 120.771C180.489 120.598 180.987 120.363 181.449 120.067C181.68 119.919 181.904 119.756 182.115 119.58C182.154 119.548 182.191 119.515 182.228 119.482C182.136 119.238 182.022 118.998 181.887 118.766C181.803 118.852 181.714 118.939 181.627 119.021Z" fill="white"/>
<path d="M171.917 122.902C171.917 122.902 171.685 118.988 169.143 120.589C166.827 122.05 166.96 122.929 166.96 122.929L171.917 122.902Z" fill="#E9E9E9"/>
<path d="M166.959 122.931L166.997 123.711C167.005 123.859 167.126 123.974 167.274 123.974L182.644 123.961C182.644 123.961 182.958 123.552 182.595 122.701L166.959 122.931Z" fill="#ACD7EA"/>
<path d="M173.051 120.991L173.034 121.003C172.911 121.092 172.74 121.063 172.651 120.941L171.556 119.416C171.467 119.293 171.495 119.122 171.618 119.033L171.634 119.021C171.757 118.932 171.929 118.96 172.018 119.083L173.113 120.608C173.202 120.73 173.173 120.902 173.051 120.991Z" fill="white"/>
<path d="M174.235 120.401L174.226 120.407C174.1 120.497 173.926 120.469 173.836 120.343L172.692 118.751C172.601 118.625 172.629 118.45 172.755 118.36L172.764 118.354C172.89 118.264 173.064 118.292 173.155 118.418L174.299 120.01C174.391 120.136 174.361 120.311 174.235 120.401Z" fill="white"/>
<path d="M175.346 119.755C175.219 119.847 175.04 119.817 174.948 119.69L173.757 118.031C173.665 117.903 173.694 117.724 173.822 117.632C173.949 117.541 174.128 117.57 174.22 117.698L175.411 119.357C175.503 119.485 175.475 119.663 175.346 119.755Z" fill="white"/>
<path d="M176.637 119.078C176.51 119.17 176.331 119.14 176.239 119.013L175.048 117.354C174.956 117.227 174.985 117.047 175.113 116.956C175.24 116.864 175.419 116.894 175.511 117.021L176.702 118.68C176.794 118.807 176.764 118.985 176.637 119.078Z" fill="white"/>
</svg>
