<svg width="1167" height="147" viewBox="0 0 1167 147" fill="none" xmlns="http://www.w3.org/2000/svg">
<g clip-path="url(#clip0_411_2158)">
<path d="M0 268L1167 268V0L0 0V268Z" fill="#039D55" fill-opacity="0.05"/>
<path d="M434.59 61.6992H398.627V204.849H434.59V61.6992Z" fill="#039D55" fill-opacity="0.5"/>
<path d="M428.715 51.4365H404.504V111.592H428.715V51.4365Z" fill="#039D55" fill-opacity="0.5"/>
<path d="M423.324 44.9268H409.895V78.2943H423.324V44.9268Z" fill="#039D55" fill-opacity="0.5"/>
<path d="M421.185 62.0734H412.033V39.334H415.335H418.606H421.185V62.0734Z" fill="#039D55" fill-opacity="0.5"/>
<path d="M416.004 52.1701H415.012V29.4307H415.37H415.725H416.004V52.1701Z" fill="#039D55" fill-opacity="0.5"/>
<path d="M418.204 44.3097H417.211V21.5703H417.569H417.924H418.204V44.3097Z" fill="#039D55" fill-opacity="0.5"/>
<path d="M435.55 61.332H397.668V62.8561H435.55V61.332Z" fill="#039D55" fill-opacity="0.5"/>
<path d="M429.599 50.7031H403.621V52.1711H429.599V50.7031Z" fill="#039D55" fill-opacity="0.5"/>
<path d="M423.887 44.3096H408.916V45.4357H423.887V44.3096Z" fill="#039D55" fill-opacity="0.5"/>
<path opacity="0.29" d="M407.856 53.8779H406.73V60.1815H407.856V53.8779Z" fill="#039D55" fill-opacity="0.5"/>
<path opacity="0.29" d="M410.97 53.8779H409.844V60.1815H410.97V53.8779Z" fill="#039D55" fill-opacity="0.5"/>
<path opacity="0.29" d="M414.085 53.8779H412.959V60.1815H414.085V53.8779Z" fill="#039D55" fill-opacity="0.5"/>
<path opacity="0.29" d="M417.2 53.8779H416.074V60.1815H417.2V53.8779Z" fill="#039D55" fill-opacity="0.5"/>
<path opacity="0.29" d="M420.314 53.8779H419.188V60.1815H420.314V53.8779Z" fill="#039D55" fill-opacity="0.5"/>
<path opacity="0.29" d="M423.427 53.8779H422.301V60.1815H423.427V53.8779Z" fill="#039D55" fill-opacity="0.5"/>
<path opacity="0.29" d="M426.542 53.8779H425.416V60.1815H426.542V53.8779Z" fill="#039D55" fill-opacity="0.5"/>
<path d="M404.505 67.4072H401.785V74.8858H404.505V67.4072Z" fill="#039D55" fill-opacity="0.5"/>
<path opacity="0.29" d="M409.889 67.4072H407.17V74.8858H409.889V67.4072Z" fill="#039D55" fill-opacity="0.5"/>
<path d="M415.276 67.4072H412.557V74.8858H415.276V67.4072Z" fill="#039D55" fill-opacity="0.5"/>
<path d="M420.663 67.4072H417.943V74.8858H420.663V67.4072Z" fill="#039D55" fill-opacity="0.5"/>
<path d="M426.05 67.4072H423.33V74.8858H426.05V67.4072Z" fill="#039D55" fill-opacity="0.5"/>
<path d="M431.434 67.4072H428.715V74.8858H431.434V67.4072Z" fill="#039D55" fill-opacity="0.5"/>
<path d="M404.505 79.0635H401.785V86.5421H404.505V79.0635Z" fill="#039D55" fill-opacity="0.5"/>
<path d="M409.889 79.0635H407.17V86.5421H409.889V79.0635Z" fill="#039D55" fill-opacity="0.5"/>
<path d="M415.276 79.0635H412.557V86.5421H415.276V79.0635Z" fill="#039D55" fill-opacity="0.5"/>
<path opacity="0.29" d="M420.663 79.0635H417.943V86.5421H420.663V79.0635Z" fill="#039D55" fill-opacity="0.5"/>
<path d="M426.05 79.0635H423.33V86.5421H426.05V79.0635Z" fill="#039D55" fill-opacity="0.5"/>
<path d="M431.434 79.0635H428.715V86.5421H431.434V79.0635Z" fill="#039D55" fill-opacity="0.5"/>
<path d="M404.505 90.7207H401.785V98.1993H404.505V90.7207Z" fill="#039D55" fill-opacity="0.5"/>
<path d="M409.889 90.7207H407.17V98.1993H409.889V90.7207Z" fill="#039D55" fill-opacity="0.5"/>
<path d="M415.276 90.7207H412.557V98.1993H415.276V90.7207Z" fill="#039D55" fill-opacity="0.5"/>
<path d="M420.663 90.7207H417.943V98.1993H420.663V90.7207Z" fill="#039D55" fill-opacity="0.5"/>
<path opacity="0.29" d="M426.05 90.7207H423.33V98.1993H426.05V90.7207Z" fill="#039D55" fill-opacity="0.5"/>
<path opacity="0.29" d="M431.434 90.7207H428.715V98.1993H431.434V90.7207Z" fill="#039D55" fill-opacity="0.5"/>
<path opacity="0.29" d="M404.505 102.378H401.785V109.857H404.505V102.378Z" fill="#039D55" fill-opacity="0.5"/>
<path d="M409.889 102.378H407.17V109.857H409.889V102.378Z" fill="#039D55" fill-opacity="0.5"/>
<path d="M415.276 102.378H412.557V109.857H415.276V102.378Z" fill="#039D55" fill-opacity="0.5"/>
<path d="M420.663 102.378H417.943V109.857H420.663V102.378Z" fill="#039D55" fill-opacity="0.5"/>
<path d="M426.05 102.378H423.33V109.857H426.05V102.378Z" fill="#039D55" fill-opacity="0.5"/>
<path d="M431.434 102.378H428.715V109.857H431.434V102.378Z" fill="#039D55" fill-opacity="0.5"/>
<path d="M404.505 114.034H401.785V121.513H404.505V114.034Z" fill="#039D55" fill-opacity="0.5"/>
<path opacity="0.29" d="M409.889 114.034H407.17V121.513H409.889V114.034Z" fill="#039D55" fill-opacity="0.5"/>
<path d="M415.276 114.034H412.557V121.513H415.276V114.034Z" fill="#039D55" fill-opacity="0.5"/>
<path opacity="0.29" d="M420.663 114.034H417.943V121.513H420.663V114.034Z" fill="#039D55" fill-opacity="0.5"/>
<path d="M426.05 114.034H423.33V121.513H426.05V114.034Z" fill="#039D55" fill-opacity="0.5"/>
<path d="M431.434 114.034H428.715V121.513H431.434V114.034Z" fill="#039D55" fill-opacity="0.5"/>
<path d="M404.505 125.691H401.785V133.17H404.505V125.691Z" fill="#039D55" fill-opacity="0.5"/>
<path d="M409.889 125.691H407.17V133.17H409.889V125.691Z" fill="#039D55" fill-opacity="0.5"/>
<path d="M415.276 125.691H412.557V133.17H415.276V125.691Z" fill="#039D55" fill-opacity="0.5"/>
<path d="M420.663 125.691H417.943V133.17H420.663V125.691Z" fill="#039D55" fill-opacity="0.5"/>
<path d="M426.05 125.691H423.33V133.17H426.05V125.691Z" fill="#039D55" fill-opacity="0.5"/>
<path opacity="0.29" d="M431.434 125.691H428.715V133.17H431.434V125.691Z" fill="#039D55" fill-opacity="0.5"/>
<path d="M404.505 137.348H401.785V144.826H404.505V137.348Z" fill="#039D55" fill-opacity="0.5"/>
<path opacity="0.29" d="M409.889 137.348H407.17V144.826H409.889V137.348Z" fill="#039D55" fill-opacity="0.5"/>
<path opacity="0.29" d="M415.276 137.348H412.557V144.826H415.276V137.348Z" fill="#039D55" fill-opacity="0.5"/>
<path d="M420.663 137.348H417.943V144.826H420.663V137.348Z" fill="#039D55" fill-opacity="0.5"/>
<path d="M426.05 137.348H423.33V144.826H426.05V137.348Z" fill="#039D55" fill-opacity="0.5"/>
<path d="M431.434 137.348H428.715V144.826H431.434V137.348Z" fill="#039D55" fill-opacity="0.5"/>
<path d="M351.991 67.1455H294.18V187.736H351.991V67.1455Z" fill="#039D55" fill-opacity="0.5"/>
<path d="M353.635 65.0713H292.537V68.4799H353.635V65.0713Z" fill="#039D55" fill-opacity="0.5"/>
<path d="M350.048 60.709H296.123V76.9098H350.048V60.709Z" fill="#039D55" fill-opacity="0.5"/>
<path d="M321.604 54.0801H300.25V71.7809H321.604V54.0801Z" fill="#039D55" fill-opacity="0.5"/>
<path d="M312.608 59.0688H300.25V49.751H309.113L312.608 59.0688Z" fill="#039D55" fill-opacity="0.5"/>
<path d="M306.429 42.0166H305.23V62.7717H306.429V42.0166Z" fill="#039D55" fill-opacity="0.5"/>
<path d="M306.906 40.9405C306.906 41.5343 306.425 42.0159 305.83 42.0159C305.236 42.0159 304.754 41.5343 304.754 40.9405C304.754 40.3467 305.236 39.8643 305.83 39.8643C306.425 39.8651 306.906 40.3467 306.906 40.9405Z" fill="#039D55" fill-opacity="0.5"/>
<path d="M830.733 196.916H767.45L759.553 19.6143L830.733 34.3899V196.916Z" fill="#039D55" fill-opacity="0.5"/>
<path d="M554.639 95.6612V36.3851H544.714V20.5074H541.168V-2.78042H521.634V-19.8946H519.895V-2.78042H516.068V-24.2041H514.33V-2.78042H501.981V36.3851H495.601V95.6612H490.133V203.628H558.484V95.6612H554.639Z" fill="#039D55" fill-opacity="0.5"/>
<path d="M658.456 208.295H624.975L638.021 141.249H658.456V208.295Z" fill="#039D55"/>
<path d="M631.02 84.2269V54.5172H620.27V43.2062H614.518V33.7042H612.5V17.417H611.978V33.7042H609.959V43.2062H604.208V54.5172H593.54V84.2269H591.322V138.166H574.781V199.655H591.322H607.864H633.156V84.2269H631.02Z" fill="#039D55"/>
<path d="M692.804 118.354H640.768V119.301H643.122V207.29H690.449V119.301H692.804V118.354Z" fill="#039D55"/>
<path d="M455.519 140.271H409.383V213.567H455.519V140.271Z" fill="#039D55"/>
<path d="M383.038 97.9688H365.619V185.743H383.038V97.9688Z" fill="#039D55"/>
<path d="M370.369 74.5537H369.465V122.287H370.369V74.5537Z" fill="#039D55"/>
<path d="M373.309 78.1738H372.404V125.907H373.309V78.1738Z" fill="#039D55"/>
<path d="M377.608 92.5381H366.961V104.301H377.608V92.5381Z" fill="#039D55"/>
<path d="M519.899 89.7119H462.996V213.566H519.899V89.7119Z" fill="#039D55"/>
<path d="M514.31 85.4551H468.588V106.084H514.31V85.4551Z" fill="#039D55"/>
<path d="M524.313 92.3037H458.588V93.7521H524.313V92.3037Z" fill="#039D55"/>
<path d="M331.909 130.996H270.604V213.567H331.909V130.996Z" fill="#039D55"/>
<path d="M333.494 127.829H267.027V130.996H333.494V127.829Z" fill="#039D55"/>
<path d="M300.26 119.232H273.318V135.973H300.26V119.232Z" fill="#039D55"/>
<path d="M313.587 119.232H309.062V129.413H313.587V119.232Z" fill="#039D55"/>
<path d="M323.087 119.232H318.109V129.413H323.087V119.232Z" fill="#039D55"/>
<path d="M809.071 108.718C807.054 108.718 805.401 110.269 805.236 112.244L800.728 112.097C800.74 111.655 800.747 111.213 800.747 110.77C800.747 105.159 799.778 99.6963 797.922 94.5731L801.689 93.1862C802.281 94.5518 803.639 95.507 805.222 95.507C807.348 95.507 809.071 93.7835 809.071 91.6577C809.071 89.5319 807.348 87.8085 805.222 87.8085C803.096 87.8085 801.373 89.5319 801.373 91.6577C801.373 92.0503 801.431 92.4286 801.541 92.7856L797.775 94.1717C795.63 88.4165 792.358 83.0984 788.072 78.4916L791.02 75.7302C791.71 76.3907 792.646 76.7966 793.678 76.7966C795.804 76.7966 797.527 75.0732 797.527 72.9474C797.527 70.8216 795.804 69.0982 793.678 69.0982C791.552 69.0982 789.828 70.8216 789.828 72.9474C789.828 73.8883 790.167 74.7501 790.728 75.4195L787.78 78.1818C787.477 77.8613 787.168 77.5435 786.854 77.2302C782.392 72.7676 777.196 69.3038 771.54 66.951L773.161 63.0038C773.529 63.1204 773.92 63.1836 774.326 63.1836C776.452 63.1836 778.176 61.4602 778.176 59.3344C778.176 57.2086 776.452 55.4851 774.326 55.4851C772.201 55.4851 770.477 57.2086 770.477 59.3344C770.477 60.9029 771.415 62.2516 772.761 62.8516L771.144 66.7898C766.083 64.7388 760.66 63.5718 755.068 63.3697L755.243 57.9741C755.284 57.975 755.324 57.9768 755.365 57.9768C757.491 57.9768 759.214 56.2534 759.214 54.1276C759.214 52.0017 757.491 50.2783 755.365 50.2783C753.239 50.2783 751.516 52.0017 751.516 54.1276C751.516 56.0673 752.951 57.6706 754.817 57.9376L754.64 63.3563C754.199 63.3439 753.756 63.3376 753.313 63.3376C747.928 63.3376 742.681 64.2296 737.739 65.9415L736.186 61.5376C737.587 60.9617 738.572 59.5845 738.572 57.9768C738.572 55.851 736.849 54.1276 734.723 54.1276C732.597 54.1276 730.873 55.851 730.873 57.9768C730.873 60.1026 732.596 61.8261 734.723 61.8261C735.091 61.8261 735.446 61.7735 735.782 61.6774L737.335 66.0821C731.341 68.2204 725.807 71.572 721.034 76.0115L718.221 73.0097C718.851 72.3242 719.235 71.4109 719.235 70.4068C719.235 68.281 717.512 66.5575 715.386 66.5575C713.26 66.5575 711.536 68.281 711.536 70.4068C711.536 72.5326 713.259 74.256 715.386 74.256C716.354 74.256 717.238 73.8973 717.915 73.307L720.724 76.3044C720.403 76.6079 720.085 76.9159 719.772 77.2293C715.803 81.1987 712.624 85.7477 710.314 90.6856L706.737 89.0343C706.866 88.6488 706.937 88.2367 706.937 87.8076C706.937 85.6818 705.214 83.9584 703.088 83.9584C700.962 83.9584 699.238 85.6818 699.238 87.8076C699.238 89.9334 700.962 91.6569 703.088 91.6569C704.633 91.6569 705.966 90.7453 706.578 89.4313L710.132 91.072C707.581 96.6571 706.135 102.728 705.908 109.015L701.319 108.865C701.262 106.789 699.562 105.123 697.472 105.123C695.346 105.123 693.623 106.846 693.623 108.972C693.623 111.098 695.346 112.821 697.472 112.821C699.49 112.821 701.144 111.268 701.307 109.293L705.895 109.442C705.882 109.884 705.876 110.326 705.876 110.77C705.876 116.381 706.844 121.843 708.7 126.966L704.934 128.353C704.342 126.987 702.984 126.032 701.401 126.032C699.275 126.032 697.552 127.756 697.552 129.881C697.552 132.007 699.275 133.731 701.401 133.731C703.527 133.731 705.251 132.007 705.251 129.881C705.251 129.489 705.192 129.11 705.083 128.754L708.848 127.367C710.994 133.122 714.265 138.44 718.551 143.047L715.604 145.808C714.913 145.148 713.978 144.742 712.946 144.742C710.82 144.742 709.097 146.465 709.097 148.591C709.097 150.717 710.82 152.44 712.946 152.44C715.072 152.44 716.796 150.717 716.796 148.591C716.796 147.65 716.458 146.788 715.897 146.119L718.844 143.357C719.148 143.678 719.456 143.996 719.769 144.309C722.775 147.314 726.113 149.866 729.7 151.932L706.488 194.716H702.322V195.939H700.282V198.368H806.338V195.939H804.298V194.716H800.132L776.92 151.932C780.012 150.151 782.919 148.01 785.588 145.528L789.349 149.542C788.541 150.248 788.03 151.284 788.03 152.441C788.03 154.567 789.754 156.29 791.879 156.29C794.005 156.29 795.73 154.567 795.73 152.441C795.73 150.315 794.006 148.592 791.879 148.592C791.064 148.592 790.309 148.845 789.687 149.278L785.899 145.236C786.22 144.932 786.537 144.624 786.851 144.311C790.82 140.341 793.998 135.792 796.309 130.854L800.498 132.788C800.423 133.09 800.382 133.406 800.382 133.731C800.382 135.856 802.105 137.58 804.231 137.58C806.357 137.58 808.08 135.856 808.08 133.731C808.08 131.605 806.357 129.881 804.231 129.881C802.582 129.881 801.175 130.918 800.627 132.377L796.49 130.466C799.041 124.881 800.487 118.81 800.714 112.523L805.224 112.67C805.279 114.748 806.979 116.415 809.07 116.415C811.196 116.415 812.92 114.692 812.92 112.566C812.92 110.44 811.197 108.718 809.071 108.718ZM799.463 110.77C799.463 111.2 799.457 111.629 799.445 112.056L786.164 111.624C786.171 111.34 786.175 111.055 786.175 110.77C786.175 106.856 785.486 103.1 784.225 99.6162L796.716 95.0174C798.521 100.001 799.463 105.313 799.463 110.77ZM785.523 111.604L755.896 110.64C755.886 110.447 755.855 110.259 755.805 110.08L783.622 99.8378C784.858 103.253 785.532 106.934 785.532 110.77C785.533 111.049 785.53 111.327 785.523 111.604ZM721.1 109.937L750.727 110.9C750.737 111.094 750.768 111.281 750.818 111.461L723.001 121.703C721.765 118.288 721.09 114.607 721.09 110.77C721.089 110.492 721.093 110.214 721.1 109.937ZM755.339 109.163L776.957 88.9061C779.761 91.9364 781.991 95.5043 783.473 99.4372L755.657 109.678C755.572 109.494 755.465 109.321 755.339 109.163ZM755.047 108.85C754.88 108.699 754.692 108.569 754.489 108.466L765.749 81.0465C769.899 82.7895 773.611 85.3773 776.666 88.5928L755.047 108.85ZM754.094 108.303C753.938 108.254 753.776 108.219 753.61 108.2L754.573 78.5753C758.37 78.7222 762.002 79.5287 765.354 80.8845L754.094 108.303ZM753.181 108.185C753.001 108.194 752.824 108.222 752.655 108.266L742.802 80.3094C746.097 79.1691 749.633 78.5477 753.311 78.5477C753.59 78.5477 753.868 78.5512 754.145 78.5584L753.181 108.185ZM752.252 108.409C752.055 108.497 751.871 108.61 751.704 108.743L731.447 87.1248C734.585 84.221 738.3 81.9322 742.398 80.4527L752.252 108.409ZM751.392 109.035C751.265 109.175 751.153 109.33 751.06 109.496L724.151 97.0738C725.869 93.431 728.248 90.1595 731.135 87.4168L751.392 109.035ZM750.879 109.883C750.811 110.07 750.764 110.267 750.74 110.472L721.116 109.509C721.282 105.228 722.285 101.157 723.969 97.4592L750.879 109.883ZM750.965 111.862C751.034 112.011 751.117 112.152 751.213 112.284L751.037 112.609L729.666 132.634C726.862 129.604 724.632 126.036 723.149 122.103L750.965 111.862ZM750.39 113.801L736.972 138.532C734.38 137 732.019 135.118 729.957 132.947L750.39 113.801ZM751.849 112.905C751.939 112.967 752.035 113.024 752.134 113.074L740.873 140.494C739.789 140.038 738.735 139.524 737.714 138.957L751.849 112.905ZM752.529 113.238C752.685 113.287 752.847 113.322 753.014 113.341L752.051 142.966C748.253 142.819 744.622 142.012 741.27 140.656L752.529 113.238ZM753.311 142.992C753.033 142.992 752.755 142.989 752.478 142.982L753.441 113.355C753.622 113.346 753.798 113.318 753.967 113.274L763.821 141.231C760.526 142.371 756.99 142.992 753.311 142.992ZM754.371 113.131C754.512 113.067 754.648 112.992 754.774 112.905L768.908 138.957C767.415 139.787 765.85 140.502 764.223 141.088L754.371 113.131ZM756.748 114.751L775.176 134.417C773.491 135.977 771.639 137.358 769.651 138.532L756.748 114.751ZM755.943 113.266L755.41 112.284C755.466 112.207 755.517 112.128 755.564 112.045L782.473 124.467C780.755 128.11 778.375 131.381 775.488 134.124L755.943 113.266ZM755.743 111.658C755.812 111.47 755.858 111.273 755.882 111.069L785.506 112.032C785.341 116.314 784.338 120.384 782.653 124.082L755.743 111.658ZM740.63 141.087L735.572 153.403C734.03 152.761 732.524 152.035 731.058 151.227L737.409 139.521C738.449 140.099 739.524 140.623 740.63 141.087ZM741.026 141.249C744.448 142.634 748.153 143.457 752.03 143.607L751.599 156.89C746.161 156.693 740.889 155.558 735.968 153.564L741.026 141.249ZM752.458 143.623C752.742 143.63 753.026 143.633 753.311 143.633C757.064 143.633 760.672 142.999 764.034 141.835L768.459 154.389C763.652 156.053 758.548 156.92 753.312 156.92C752.882 156.92 752.454 156.914 752.027 156.903L752.458 143.623ZM764.437 141.694C766.095 141.095 767.691 140.366 769.214 139.521L775.565 151.227C773.413 152.414 771.173 153.425 768.862 154.249L764.437 141.694ZM796.569 94.6159L784.076 99.2156C782.563 95.2017 780.287 91.5607 777.425 88.4681L787.135 79.3702C791.302 83.8498 794.482 89.0201 796.569 94.6159ZM785.945 78.1364C786.249 78.44 786.547 78.748 786.842 79.0587L777.134 88.1557C774.016 84.8726 770.229 82.2322 765.993 80.4536L771.05 68.1376C776.552 70.4263 781.605 73.7958 785.945 78.1364ZM770.654 67.9756L765.596 80.2916C762.174 78.9073 758.468 78.0839 754.592 77.9343L755.024 64.6498C760.461 64.8465 765.733 65.9815 770.654 67.9756ZM753.311 64.6186C753.74 64.6186 754.169 64.6249 754.597 64.6364L754.165 77.9174C753.881 77.9103 753.597 77.9067 753.311 77.9067C749.558 77.9067 745.951 78.5406 742.589 79.7049L738.164 67.1513C742.971 65.4857 748.074 64.6186 753.311 64.6186ZM737.76 67.2919L742.186 79.8465C738.002 81.3563 734.211 83.6922 731.009 86.6557L721.911 76.9462C726.551 72.6305 731.933 69.3723 737.76 67.2919ZM720.677 78.1364C720.981 77.8328 721.289 77.5346 721.6 77.24L730.697 86.9477C727.75 89.7465 725.321 93.0856 723.568 96.804L711.478 91.2233C713.725 86.4207 716.816 81.9963 720.677 78.1364ZM711.298 91.6114L723.387 97.1921C721.668 100.966 720.644 105.119 720.475 109.489L707.192 109.058C707.412 102.946 708.818 97.0417 711.298 91.6114ZM707.16 110.77C707.16 110.341 707.166 109.912 707.177 109.485L720.458 109.917C720.451 110.201 720.448 110.485 720.448 110.77C720.448 114.685 721.137 118.44 722.398 121.925L709.907 126.524C708.101 121.54 707.16 116.227 707.16 110.77ZM710.054 126.925L722.547 122.325C724.059 126.339 726.335 129.98 729.197 133.073L719.488 142.171C715.322 137.691 712.14 132.521 710.054 126.925ZM720.677 143.404C720.374 143.101 720.075 142.793 719.781 142.483L729.489 133.386C731.597 135.606 734.013 137.532 736.666 139.097L730.314 150.807C726.833 148.799 723.594 146.322 720.677 143.404ZM799.16 194.719H707.462L730.446 152.356C731.952 153.186 733.5 153.932 735.084 154.592L733.463 158.539C733.096 158.422 732.704 158.359 732.297 158.359C730.171 158.359 728.448 160.082 728.448 162.208C728.448 164.334 730.171 166.058 732.297 166.058C734.423 166.058 736.147 164.334 736.147 162.208C736.147 160.64 735.209 159.291 733.863 158.691L735.481 154.753C740.541 156.804 745.964 157.971 751.557 158.173L751.426 162.21C749.341 162.257 747.666 163.961 747.666 166.058C747.666 168.183 749.389 169.907 751.516 169.907C753.642 169.907 755.365 168.183 755.365 166.058C755.365 164.046 753.821 162.395 751.854 162.223L751.985 158.186C752.426 158.199 752.869 158.205 753.312 158.205C758.697 158.205 763.944 157.313 768.886 155.601L770.27 159.526C768.96 160.14 768.052 161.47 768.052 163.013C768.052 165.139 769.776 166.862 771.901 166.862C774.027 166.862 775.751 165.139 775.751 163.013C775.751 160.887 774.027 159.164 771.901 159.164C771.47 159.164 771.054 159.236 770.667 159.368L769.29 155.461C771.664 154.613 773.966 153.576 776.177 152.356L799.16 194.719ZM776.31 150.806L769.957 139.096C771.993 137.895 773.889 136.48 775.615 134.884L784.712 144.594C782.125 147 779.306 149.078 776.31 150.806ZM785.945 143.404C785.642 143.708 785.334 144.006 785.023 144.301L775.926 134.593C778.873 131.794 781.301 128.455 783.054 124.737L795.144 130.318C792.898 135.119 789.806 139.544 785.945 143.404ZM795.325 129.929L783.236 124.349C784.955 120.575 785.978 116.421 786.147 112.051L799.431 112.483C799.21 118.595 797.805 124.499 795.325 129.929Z" fill="#039D55"/>
<path d="M867.83 141.089H818.363V213.568H867.83V141.089Z" fill="#039D55"/>
<path d="M878.084 72.1611H843.096V213.567H878.084V72.1611Z" fill="#039D55"/>
<path d="M935.696 213.566H889.547V130.996H924.535L935.696 213.566Z" fill="#039D55"/>
<path d="M870.241 42.6191H869.035V81.0458H870.241V42.6191Z" fill="#039D55"/>
<path d="M874.316 50.8662H873.109V89.2928H874.316V50.8662Z" fill="#039D55"/>
<path d="M866.548 56.1709H865.342V94.5975H866.548V56.1709Z" fill="#039D55"/>
<path d="M907.87 124.322H891.355V137.33H907.87V124.322Z" fill="#039D55"/>
<path d="M906.061 119.686H893.166V126.997H906.061V119.686Z" fill="#039D55"/>
<path d="M917.597 128.133H914.43V133.385H917.597V128.133Z" fill="#039D55"/>
<path d="M923.243 123.341H918.719V133.385H923.243V123.341Z" fill="#039D55"/>
<path d="M710.557 104.058H668.611V239.261H710.557V104.058Z" fill="#039D55" fill-opacity="0.1"/>
<path d="M713.692 104.859H665.479V106.229H713.692V104.859Z" fill="#039D55" fill-opacity="0.1"/>
<path d="M712.388 123.851H666.783V125.216H712.388V123.851Z" fill="#039D55" fill-opacity="0.1"/>
<path d="M712.388 142.243H666.783V143.609H712.388V142.243Z" fill="#039D55" fill-opacity="0.1"/>
<path d="M715.287 101.124H663.885V104.859H715.287V101.124Z" fill="#039D55" fill-opacity="0.1"/>
<path opacity="0.29" d="M676.747 110.671H672.389V121.472H676.747V110.671Z" fill="#039D55" fill-opacity="0.1"/>
<path d="M686.495 110.671H682.137V121.472H686.495V110.671Z" fill="#039D55" fill-opacity="0.1"/>
<path d="M696.243 110.671H691.885V121.472H696.243V110.671Z" fill="#039D55" fill-opacity="0.1"/>
<path d="M705.991 110.671H701.633V121.472H705.991V110.671Z" fill="#039D55" fill-opacity="0.1"/>
<path d="M676.747 128.33H672.389V139.131H676.747V128.33Z" fill="#039D55" fill-opacity="0.1"/>
<path opacity="0.29" d="M686.495 128.33H682.137V139.131H686.495V128.33Z" fill="#039D55" fill-opacity="0.1"/>
<path d="M696.243 128.33H691.885V139.131H696.243V128.33Z" fill="#039D55" fill-opacity="0.1"/>
<path d="M705.991 128.33H701.633V139.131H705.991V128.33Z" fill="#039D55" fill-opacity="0.1"/>
<path d="M676.747 146.723H672.389V157.524H676.747V146.723Z" fill="#039D55" fill-opacity="0.1"/>
<path d="M686.495 146.723H682.137V157.524H686.495V146.723Z" fill="#039D55" fill-opacity="0.1"/>
<path d="M696.243 146.723H691.885V157.524H696.243V146.723Z" fill="#039D55" fill-opacity="0.1"/>
<path opacity="0.29" d="M705.991 146.723H701.633V157.524H705.991V146.723Z" fill="#039D55" fill-opacity="0.1"/>
<path d="M685.526 95.9697H671.26V102.992H685.526V95.9697Z" fill="#039D55" fill-opacity="0.1"/>
<path d="M686.493 95.7695H670.291V96.9695H686.493V95.7695Z" fill="#039D55" fill-opacity="0.1"/>
<path d="M608.495 239.261H552.619V110.799L608.495 97.1318V239.261Z" fill="#039D55" fill-opacity="0.1"/>
<path d="M555.074 108.538H550.164V239.261H555.074V108.538Z" fill="#039D55" fill-opacity="0.1"/>
<path d="M569.042 104.854H564.133V239.261H569.042V104.854Z" fill="#039D55" fill-opacity="0.1"/>
<path d="M583.013 101.028H578.104V239.261H583.013V101.028Z" fill="#039D55" fill-opacity="0.1"/>
<path d="M596.98 97.9102H592.07V239.261H596.98V97.9102Z" fill="#039D55" fill-opacity="0.1"/>
<path d="M610.951 94.5957H606.041V239.261H610.951V94.5957Z" fill="#039D55" fill-opacity="0.1"/>
<path opacity="0.29" d="M562.862 119.509H556.346V129.436H562.862V119.509Z" fill="#039D55" fill-opacity="0.1"/>
<path opacity="0.29" d="M576.831 119.509H570.314V129.436H576.831V119.509Z" fill="#039D55" fill-opacity="0.1"/>
<path d="M590.8 119.509H584.283V129.436H590.8V119.509Z" fill="#039D55" fill-opacity="0.1"/>
<path opacity="0.29" d="M604.768 119.509H598.252V129.436H604.768V119.509Z" fill="#039D55" fill-opacity="0.1"/>
<path d="M562.862 136.795H556.346V146.722H562.862V136.795Z" fill="#039D55" fill-opacity="0.1"/>
<path d="M576.831 136.795H570.314V146.722H576.831V136.795Z" fill="#039D55" fill-opacity="0.1"/>
<path opacity="0.29" d="M590.8 136.795H584.283V146.722H590.8V136.795Z" fill="#039D55" fill-opacity="0.1"/>
<path opacity="0.29" d="M604.768 136.795H598.252V146.722H604.768V136.795Z" fill="#039D55" fill-opacity="0.1"/>
<path d="M393.227 116.954V118.288H391.898V122.089H415.278V239.262H376.912V128.202V122.089V118.288H375.52V116.954H393.227Z" fill="#039D55" fill-opacity="0.1"/>
<path d="M478.028 140.357H477.35V182.548H478.028V140.357Z" fill="#039D55" fill-opacity="0.1"/>
<path d="M754.142 161.669H781.084V144.929H754.142V161.669Z" fill="#039D55" fill-opacity="0.1"/>
<path d="M740.818 155.108H745.342V144.928H740.818V155.108Z" fill="#039D55" fill-opacity="0.1"/>
<path d="M731.316 155.108H736.293V144.928H731.316V155.108Z" fill="#039D55" fill-opacity="0.1"/>
<path d="M825.943 239.262H874.471V118.671H825.943V239.262Z" fill="#039D55" fill-opacity="0.1"/>
<path d="M824.564 120.006H875.85V116.597H824.564V120.006Z" fill="#039D55" fill-opacity="0.1"/>
<path d="M827.575 128.435H872.84V112.234H827.575V128.435Z" fill="#039D55" fill-opacity="0.1"/>
<path d="M851.451 123.307H869.375V105.606H851.451V123.307Z" fill="#039D55" fill-opacity="0.1"/>
<path d="M859.002 110.595H869.375V101.276H861.934L859.002 110.595Z" fill="#039D55" fill-opacity="0.1"/>
<path d="M864.187 114.298H865.193V93.5427H864.187V114.298Z" fill="#039D55" fill-opacity="0.1"/>
<path d="M863.787 92.4669C863.787 93.0606 864.191 93.5422 864.69 93.5422C865.188 93.5422 865.593 93.0606 865.593 92.4669C865.593 91.8722 865.189 91.3906 864.69 91.3906C864.19 91.3906 863.787 91.8722 863.787 92.4669Z" fill="#039D55" fill-opacity="0.1"/>
<path d="M942.815 139.703H942.137V157.008H942.815V139.703Z" fill="#039D55" fill-opacity="0.1"/>
<path d="M938.292 141.895H937.613V155.776H938.292V141.895Z" fill="#039D55" fill-opacity="0.1"/>
<path opacity="0.5" d="M467.471 97.9111H466.092V105.545H467.471V97.9111Z" fill="white"/>
<path opacity="0.5" d="M472.223 97.9111H470.844V105.545H472.223V97.9111Z" fill="white"/>
<path opacity="0.5" d="M476.975 97.9111H475.596V105.545H476.975V97.9111Z" fill="white"/>
<path opacity="0.5" d="M481.729 97.9111H480.35V105.545H481.729V97.9111Z" fill="white"/>
<path opacity="0.5" d="M486.48 97.9111H485.102V105.545H486.48V97.9111Z" fill="white"/>
<path opacity="0.5" d="M491.234 97.9111H489.855V105.545H491.234V97.9111Z" fill="white"/>
<path opacity="0.5" d="M495.986 97.9111H494.607V105.545H495.986V97.9111Z" fill="white"/>
<path opacity="0.5" d="M500.74 97.9111H499.361V105.545H500.74V97.9111Z" fill="white"/>
<path opacity="0.5" d="M505.492 97.9111H504.113V105.545H505.492V97.9111Z" fill="white"/>
<path opacity="0.5" d="M510.244 97.9111H508.865V105.545H510.244V97.9111Z" fill="white"/>
<path opacity="0.5" d="M514.996 97.9111H513.617V105.545H514.996V97.9111Z" fill="white"/>
<path opacity="0.5" d="M467.471 108.538H466.092V116.172H467.471V108.538Z" fill="white"/>
<path opacity="0.5" d="M472.223 108.538H470.844V116.172H472.223V108.538Z" fill="white"/>
<path opacity="0.5" d="M476.975 108.538H475.596V116.172H476.975V108.538Z" fill="white"/>
<path opacity="0.5" d="M481.729 108.538H480.35V116.172H481.729V108.538Z" fill="white"/>
<path opacity="0.5" d="M486.48 108.538H485.102V116.172H486.48V108.538Z" fill="white"/>
<path opacity="0.5" d="M491.234 108.538H489.855V116.172H491.234V108.538Z" fill="white"/>
<path opacity="0.5" d="M495.986 108.538H494.607V116.172H495.986V108.538Z" fill="white"/>
<path opacity="0.5" d="M500.74 108.538H499.361V116.172H500.74V108.538Z" fill="white"/>
<path opacity="0.5" d="M505.492 108.538H504.113V116.172H505.492V108.538Z" fill="white"/>
<path opacity="0.5" d="M510.244 108.538H508.865V116.172H510.244V108.538Z" fill="white"/>
<path opacity="0.5" d="M514.996 108.538H513.617V116.172H514.996V108.538Z" fill="white"/>
<path opacity="0.5" d="M467.471 119.165H466.092V126.799H467.471V119.165Z" fill="white"/>
<path opacity="0.5" d="M472.223 119.165H470.844V126.799H472.223V119.165Z" fill="white"/>
<path opacity="0.5" d="M476.975 119.165H475.596V126.799H476.975V119.165Z" fill="white"/>
<path opacity="0.5" d="M481.729 119.165H480.35V126.799H481.729V119.165Z" fill="white"/>
<path opacity="0.5" d="M486.48 119.165H485.102V126.799H486.48V119.165Z" fill="white"/>
<path opacity="0.5" d="M491.234 119.165H489.855V126.799H491.234V119.165Z" fill="white"/>
<path opacity="0.5" d="M495.986 119.165H494.607V126.799H495.986V119.165Z" fill="white"/>
<path opacity="0.5" d="M500.74 119.165H499.361V126.799H500.74V119.165Z" fill="white"/>
<path opacity="0.5" d="M505.492 119.165H504.113V126.799H505.492V119.165Z" fill="white"/>
<path opacity="0.5" d="M510.244 119.165H508.865V126.799H510.244V119.165Z" fill="white"/>
<path opacity="0.5" d="M514.996 119.165H513.617V126.799H514.996V119.165Z" fill="white"/>
<path opacity="0.5" d="M481.729 129.793H480.35V137.426H481.729V129.793Z" fill="white"/>
<path opacity="0.5" d="M486.48 129.793H485.102V137.426H486.48V129.793Z" fill="white"/>
<path opacity="0.5" d="M491.234 129.793H489.855V137.426H491.234V129.793Z" fill="white"/>
<path opacity="0.5" d="M495.986 129.793H494.607V137.426H495.986V129.793Z" fill="white"/>
<path opacity="0.5" d="M500.74 129.793H499.361V137.426H500.74V129.793Z" fill="white"/>
<path opacity="0.5" d="M505.492 129.793H504.113V137.426H505.492V129.793Z" fill="white"/>
<path opacity="0.5" d="M510.244 129.793H508.865V137.426H510.244V129.793Z" fill="white"/>
<path opacity="0.5" d="M514.996 129.793H513.617V137.426H514.996V129.793Z" fill="white"/>
<path opacity="0.5" d="M486.48 141.01H485.102V148.643H486.48V141.01Z" fill="white"/>
<path opacity="0.5" d="M491.234 141.01H489.855V148.643H491.234V141.01Z" fill="white"/>
<path opacity="0.5" d="M495.986 141.01H494.607V148.643H495.986V141.01Z" fill="white"/>
<path opacity="0.5" d="M500.74 141.01H499.361V148.643H500.74V141.01Z" fill="white"/>
<path opacity="0.5" d="M505.492 141.01H504.113V148.643H505.492V141.01Z" fill="white"/>
<path opacity="0.5" d="M510.244 141.01H508.865V148.643H510.244V141.01Z" fill="white"/>
<path opacity="0.5" d="M514.996 141.01H513.617V148.643H514.996V141.01Z" fill="white"/>
<path opacity="0.33" d="M561.231 116.857H557.973V125.121H561.231V116.857Z" fill="white"/>
<path opacity="0.33" d="M561.231 132.664H557.973V140.928H561.231V132.664Z" fill="white"/>
<path opacity="0.33" d="M575.198 116.857H571.939V125.121H575.198V116.857Z" fill="white"/>
<path opacity="0.33" d="M575.198 132.664H571.939V140.928H575.198V132.664Z" fill="white"/>
<path opacity="0.33" d="M589.168 116.857H585.91V125.121H589.168V116.857Z" fill="white"/>
<path opacity="0.33" d="M589.168 132.664H585.91V140.928H589.168V132.664Z" fill="white"/>
<path opacity="0.33" d="M603.137 116.857H599.879V125.121H603.137V116.857Z" fill="white"/>
<path opacity="0.33" d="M603.137 132.664H599.879V140.928H603.137V132.664Z" fill="white"/>
<path opacity="0.5" d="M508.203 1.61914H505.492V8.85118H508.203V1.61914Z" fill="white"/>
<path opacity="0.5" d="M514.892 1.61914H512.182V8.85118H514.892V1.61914Z" fill="white"/>
<path opacity="0.5" d="M521.582 1.61914H518.871V8.85118H521.582V1.61914Z" fill="white"/>
<path opacity="0.5" d="M528.269 1.61914H525.559V8.85118H528.269V1.61914Z" fill="white"/>
<path opacity="0.5" d="M508.203 13.6641H505.492V20.8961H508.203V13.6641Z" fill="white"/>
<path opacity="0.5" d="M514.892 13.6641H512.182V20.8961H514.892V13.6641Z" fill="white"/>
<path opacity="0.5" d="M521.582 13.6641H518.871V20.8961H521.582V13.6641Z" fill="white"/>
<path opacity="0.5" d="M528.269 13.6641H525.559V20.8961H528.269V13.6641Z" fill="white"/>
<path opacity="0.5" d="M508.203 25.708H505.492V32.94H508.203V25.708Z" fill="white"/>
<path opacity="0.5" d="M514.892 25.708H512.182V32.94H514.892V25.708Z" fill="white"/>
<path opacity="0.5" d="M535.857 1.61914H533.146V8.85118H535.857V1.61914Z" fill="white"/>
<path opacity="0.4" d="M326.688 74.8848H324.965V81.5141H326.688V74.8848Z" fill="white"/>
<path opacity="0.4" d="M332.77 74.8848H331.047V81.5141H332.77V74.8848Z" fill="white"/>
<path opacity="0.4" d="M339.886 74.8848H338.162V81.5141H339.886V74.8848Z" fill="white"/>
<path opacity="0.4" d="M345.97 74.8848H344.246V81.5141H345.97V74.8848Z" fill="white"/>
<path opacity="0.4" d="M313.173 74.8848H311.449V81.5141H313.173V74.8848Z" fill="white"/>
<path opacity="0.4" d="M319.255 74.8848H317.531V81.5141H319.255V74.8848Z" fill="white"/>
<path opacity="0.4" d="M326.688 86.3975H324.965V93.0268H326.688V86.3975Z" fill="white"/>
<path opacity="0.4" d="M332.77 86.3975H331.047V93.0268H332.77V86.3975Z" fill="white"/>
<path opacity="0.4" d="M339.886 86.3975H338.162V93.0268H339.886V86.3975Z" fill="white"/>
<path opacity="0.4" d="M345.97 86.3975H344.246V93.0268H345.97V86.3975Z" fill="white"/>
<path opacity="0.4" d="M313.173 86.3975H311.449V93.0268H313.173V86.3975Z" fill="white"/>
<path opacity="0.4" d="M319.255 86.3975H317.531V93.0268H319.255V86.3975Z" fill="white"/>
<path opacity="0.4" d="M326.688 97.9082H324.965V104.538H326.688V97.9082Z" fill="white"/>
<path opacity="0.4" d="M332.77 97.9082H331.047V104.538H332.77V97.9082Z" fill="white"/>
<path opacity="0.4" d="M339.886 97.9082H338.162V104.538H339.886V97.9082Z" fill="white"/>
<path opacity="0.4" d="M345.97 97.9082H344.246V104.538H345.97V97.9082Z" fill="white"/>
<path opacity="0.4" d="M313.173 97.9082H311.449V104.538H313.173V97.9082Z" fill="white"/>
<path opacity="0.4" d="M319.255 97.9082H317.531V104.538H319.255V97.9082Z" fill="white"/>
<path opacity="0.5" d="M649.354 125.691H646.684V135.972H649.354V125.691Z" fill="white"/>
<path opacity="0.5" d="M657.526 125.691H654.855V135.972H657.526V125.691Z" fill="white"/>
<path opacity="0.5" d="M665.219 125.691H662.549V135.972H665.219V125.691Z" fill="white"/>
<path opacity="0.33" d="M832.76 127.828H830.732V133.61H832.76V127.828Z" fill="white"/>
<path opacity="0.33" d="M839.116 127.828H837.088V133.61H839.116V127.828Z" fill="white"/>
<path opacity="0.33" d="M832.76 127.828H830.732V133.61H832.76V127.828Z" fill="white"/>
<path opacity="0.33" d="M839.116 127.828H837.088V133.61H839.116V127.828Z" fill="white"/>
<path opacity="0.33" d="M845.122 127.828H843.094V133.61H845.122V127.828Z" fill="white"/>
<path opacity="0.33" d="M851.477 127.828H849.449V133.61H851.477V127.828Z" fill="white"/>
<path opacity="0.33" d="M832.76 138.196H830.732V143.978H832.76V138.196Z" fill="white"/>
<path opacity="0.33" d="M839.116 138.196H837.088V143.978H839.116V138.196Z" fill="white"/>
<path opacity="0.33" d="M832.76 138.196H830.732V143.978H832.76V138.196Z" fill="white"/>
<path opacity="0.33" d="M839.116 138.196H837.088V143.978H839.116V138.196Z" fill="white"/>
<path opacity="0.33" d="M845.122 138.196H843.094V143.978H845.122V138.196Z" fill="white"/>
<path opacity="0.33" d="M851.477 138.196H849.449V143.978H851.477V138.196Z" fill="white"/>
<path opacity="0.33" d="M858.424 127.828H856.396V133.61H858.424V127.828Z" fill="white"/>
<path opacity="0.33" d="M858.424 138.196H856.396V143.978H858.424V138.196Z" fill="white"/>
<path opacity="0.33" d="M864.78 127.828H862.752V133.61H864.78V127.828Z" fill="white"/>
<path opacity="0.33" d="M674.566 110.67H672.387V119.684H674.566V110.67Z" fill="white"/>
<path opacity="0.33" d="M685.406 110.67H683.227V119.684H685.406V110.67Z" fill="white"/>
<path opacity="0.33" d="M696.244 110.67H694.064V119.684H696.244V110.67Z" fill="white"/>
<path opacity="0.33" d="M707.08 110.67H704.9V119.684H707.08V110.67Z" fill="white"/>
<path opacity="0.33" d="M674.566 129.223H672.387V138.237H674.566V129.223Z" fill="white"/>
<path opacity="0.33" d="M685.406 129.223H683.227V138.237H685.406V129.223Z" fill="white"/>
<path opacity="0.33" d="M696.244 129.223H694.064V138.237H696.244V129.223Z" fill="white"/>
<path opacity="0.33" d="M707.08 129.223H704.9V138.237H707.08V129.223Z" fill="white"/>
</g>
<defs>
<clipPath id="clip0_411_2158">
<rect width="1167" height="147" fill="white"/>
</clipPath>
</defs>
</svg>
