<svg width="1170" height="230" viewBox="0 0 1170 230" fill="none" xmlns="http://www.w3.org/2000/svg">
<g clip-path="url(#clip0_411_1909)">
<rect width="1170" height="230" rx="10" fill="white"/>
<g clip-path="url(#clip1_411_1909)">
<g clip-path="url(#clip2_411_1909)">
<path d="M638.971 115.812H530.037V279.18H638.971V115.812Z" fill="white"/>
<path d="M638.959 279.187L530.027 115.816H638.959V279.187Z" fill="#E6EAEE"/>
<path d="M631.892 80.417H537.115C528.142 80.417 520.789 87.7603 520.789 96.7561V298.249C520.789 307.244 528.142 314.584 537.115 314.584H631.891C640.873 314.584 648.201 307.245 648.201 298.249V96.7561C648.202 87.7603 640.873 80.417 631.892 80.417ZM638.957 279.188H530.026V115.817H638.957V279.188Z" fill="#34495E"/>
<path d="M588.615 98.1125C588.615 100.385 586.786 102.214 584.509 102.214C582.244 102.214 580.402 100.385 580.402 98.1125C580.402 95.8495 582.244 93.9995 584.509 93.9995C586.786 93.9995 588.615 95.8482 588.615 98.1125Z" fill="#283A4D"/>
<path d="M584.506 99.7411C585.415 99.7411 586.152 99.0098 586.152 98.1078C586.152 97.2058 585.415 96.4746 584.506 96.4746C583.598 96.4746 582.861 97.2058 582.861 98.1078C582.861 99.0098 583.598 99.7411 584.506 99.7411Z" fill="#5D6D7E"/>
<path d="M561.093 122.75H545.494L520.789 167.24H546.274L561.093 122.75Z" fill="#F6F8FB"/>
<path d="M576.699 122.75H561.093L546.273 167.24H571.759L576.699 122.75Z" fill="#FF7059"/>
<path d="M592.293 122.75H576.698L571.758 167.24H597.24L592.293 122.75Z" fill="#F6F8FB"/>
<path d="M607.897 122.75H592.293L597.24 167.24H622.718L607.897 122.75Z" fill="#FF7059"/>
<path d="M623.498 122.75H607.898L622.72 167.24H648.202L623.498 122.75Z" fill="#F6F8FB"/>
<path d="M546.273 167.241C546.273 174.266 540.568 179.979 533.531 179.979C526.495 179.979 520.789 174.269 520.789 167.241C528.003 167.241 538.702 167.241 546.273 167.241Z" fill="#CDD3DA"/>
<path d="M571.76 167.241C571.76 174.266 566.055 179.979 559.013 179.979C551.979 179.979 546.273 174.269 546.273 167.241C553.482 167.241 564.192 167.241 571.76 167.241Z" fill="#E64732"/>
<path d="M597.24 167.241C597.24 174.266 591.536 179.979 584.5 179.979C577.461 179.979 571.758 174.269 571.758 167.241C578.971 167.241 589.669 167.241 597.24 167.241Z" fill="#CDD3DA"/>
<path d="M622.724 167.241C622.724 174.266 617.023 179.979 609.989 179.979C602.945 179.979 597.242 174.269 597.242 167.241C604.456 167.241 615.157 167.241 622.724 167.241Z" fill="#E64732"/>
<path d="M648.199 167.242C648.199 174.267 642.503 179.98 635.462 179.98C628.43 179.98 622.715 174.27 622.715 167.242C629.937 167.242 640.629 167.242 648.199 167.242Z" fill="#CDD3DA"/>
<path d="M561.095 115.812H545.494V122.746H561.095V115.812Z" fill="#CDD3DA"/>
<path d="M576.697 115.812H561.092V122.745H576.697V115.812Z" fill="#E64732"/>
<path d="M592.303 115.812H576.707V122.745H592.303V115.812Z" fill="#CDD3DA"/>
<path d="M607.908 115.812H592.303V122.745H607.908V115.812Z" fill="#E64732"/>
<path d="M639.106 122.75H623.502L648.207 167.24H673.693L639.106 122.75Z" fill="#FF7059"/>
<path d="M673.698 167.242C673.698 174.267 667.997 179.98 660.96 179.98C653.919 179.98 648.211 174.27 648.211 167.242C655.429 167.242 666.125 167.242 673.698 167.242Z" fill="#E64732"/>
<path d="M639.111 115.812H623.506V122.746H639.111V115.812Z" fill="#E64732"/>
<path d="M545.493 122.75H529.889L495.307 167.24H520.788L545.493 122.75Z" fill="#FF7059"/>
<path d="M520.789 167.242C520.789 174.267 515.088 179.98 508.056 179.98C501.012 179.98 495.307 174.27 495.307 167.242C502.523 167.242 513.218 167.242 520.789 167.242Z" fill="#E64732"/>
<path d="M545.491 115.812H529.891V122.746H545.491V115.812Z" fill="#E64732"/>
<path d="M623.509 115.812H607.908V122.745H623.509V115.812Z" fill="#CDD3DA"/>
<path d="M597.448 226.977H571.556C570.654 226.977 569.792 226.697 569.071 226.153C568.345 225.615 567.821 224.872 567.565 224.013L559.188 196.392H546.256V191.388H559.81C560.71 191.388 561.567 191.668 562.291 192.211C563.021 192.74 563.548 193.492 563.801 194.344L572.181 221.968H596.84L602.007 204.936H570.503L568.987 199.933H603.126C604.436 199.933 605.687 200.567 606.473 201.623C607.254 202.67 607.5 204.057 607.119 205.313L601.453 224.01C601.187 224.879 600.667 225.61 599.947 226.151C599.225 226.697 598.363 226.977 597.448 226.977ZM597.475 208.35H571.532L572.566 211.75H596.444L597.475 208.35ZM595.418 215.159L594.382 218.567H574.631L573.602 215.159H595.418ZM575.244 228.566C572.735 228.566 570.702 230.597 570.702 233.11C570.702 235.617 572.735 237.645 575.244 237.645C577.753 237.645 579.788 235.617 579.788 233.11C579.788 230.594 577.753 228.566 575.244 228.566ZM593.764 228.566C591.255 228.566 589.225 230.597 589.225 233.11C589.225 235.617 591.257 237.645 593.764 237.645C596.271 237.645 598.308 235.617 598.308 233.11C598.308 230.594 596.273 228.566 593.764 228.566Z" fill="#FF7059"/>
</g>
<path d="M694 98.712C688.364 95.091 673.982 84.114 672.152 67.617C670.606 53.688 681.021 41.005 694.971 41C707.688 40.996 717.999 51.353 717.999 64.129C717.999 82.559 701.995 94.832 695.965 98.708C695.363 99.095 694.601 99.099 693.999 98.713L694 98.712Z" fill="#E14533"/>
<path d="M714 64C714 69.94 711.27 75.24 707 78.72C706.89 78.82 706.77 78.91 706.65 79H683.35C683.23 78.91 683.11 78.82 683 78.72C678.73 75.24 676 69.94 676 64C676 53.51 684.51 45 695 45C705.49 45 714 53.51 714 64Z" fill="white"/>
<path d="M706.65 79C703.44 81.51 699.39 83 695 83C690.61 83 686.56 81.51 683.35 79L684 78H706L706.65 79Z" fill="#C6C6C6"/>
<path d="M707 61V78.72C706.89 78.82 706.77 78.91 706.65 79H683.35C683.23 78.91 683.11 78.82 683 78.72V61H707Z" fill="#DDDDDD"/>
<path d="M687 79V69C687 68.448 687.448 68 688 68H691C691.552 68 692 68.448 692 69V79H687Z" fill="#2A2E44"/>
<path d="M702 68H697C696.448 68 696 68.4477 696 69V73C696 73.5523 696.448 74 697 74H702C702.552 74 703 73.5523 703 73V69C703 68.4477 702.552 68 702 68Z" fill="#58C7E0"/>
<path d="M704 53V56H686V53C686 51.9 686.9 51 688 51H702C703.1 51 704 51.9 704 53Z" fill="#E14533"/>
<path d="M707.83 59C707.76 58.85 707.65 58.72 707.51 58.61L704 55H700.33L700 56H697L696.4 55H693.6L693 56H690L689.67 55H686L682.49 58.61C682.35 58.72 682.24 58.85 682.17 59C682.06 59.19 682 59.4 682 59.62V62C682 62.55 682.45 63 683 63H687L688 62H691L692 63H698L699 62H702L703 63H707C707.55 63 708 62.55 708 62V59.62C708 59.4 707.94 59.19 707.83 59Z" fill="#E14533"/>
<path d="M689.67 55L687 59H682.17C682.24 58.85 682.35 58.72 682.49 58.61L686 55H689.67Z" fill="#C6352A"/>
<path d="M687 59H692V63H687V59Z" fill="white"/>
<path d="M698 59H703V63H698V59Z" fill="white"/>
<path d="M707.83 59H703L700.33 55H704L707.51 58.61C707.65 58.72 707.76 58.85 707.83 59Z" fill="#C6352A"/>
<path d="M693.6 55L692 59H687L689.67 55H693.6Z" fill="#DDDDDD"/>
<path d="M698 59H692L693.6 55H696.4L698 59Z" fill="#C6352A"/>
<path d="M703 59H698L696.4 55H700.33L703 59Z" fill="#DDDDDD"/>
</g>
</g>
<defs>
<clipPath id="clip0_411_1909">
<rect width="1170" height="230" rx="10" fill="white"/>
</clipPath>
<clipPath id="clip1_411_1909">
<rect width="1084" height="215" fill="white" transform="translate(43 17)"/>
</clipPath>
<clipPath id="clip2_411_1909">
<rect width="234.167" height="234.167" fill="white" transform="translate(467.418 80.417)"/>
</clipPath>
</defs>
</svg>
