<svg width="100" height="100" viewBox="0 0 100 100" fill="none" xmlns="http://www.w3.org/2000/svg">
<g id="Frame">
<g id="Group">
<g id="Layer 3">
<path id="Vector" d="M66.7561 10.4023C65.8256 10.5662 65.0166 10.6607 64.2076 10.7552C57.3863 13.192 52.9877 19.9918 45.2495 19.2559C33.3716 18.1842 18.7212 14.4295 10.7 25.5542C9.41096 27.546 8.58416 29.7759 8.42334 32.0998C8.26252 34.4237 8.76707 36.8415 10.1371 39.2096C13.5266 44.8266 18.2007 49.7468 17.3708 56.6761C16.107 66.909 8.64738 80.9646 17.1707 88.7078C18.1178 89.5671 19.262 90.351 20.6345 91.0403C22.6152 91.9818 24.9121 92.2372 26.9567 91.4699C28.1049 91.0231 29.2589 90.6311 30.4186 90.2939C39.2071 88.1517 47.8845 87.3863 56.8173 88.6624C61.4111 89.4278 66.0054 90.9592 70.8005 90.1355C71.5726 89.9952 72.335 89.8062 73.0833 89.5696C74.6553 89.0706 76.1415 88.3332 77.4898 87.3832C78.1762 86.7622 78.7996 86.0749 79.3509 85.3312C80.9615 83.1479 81.8061 80.5871 81.7312 77.8096C81.692 77.0056 81.5587 76.209 81.3341 75.436C80.3612 72.3725 78.9709 69.3593 77.8053 66.3308C76.6397 63.3022 75.6993 60.2669 75.6275 57.185C75.3089 54.2743 76.6096 51.3894 77.9459 48.7758C81.1536 43.4817 85.6602 39.9486 87.4599 34.2727C88.9871 28.6257 88.5648 22.665 85.5074 17.5562C83.1473 13.7322 79.233 10.6361 74.4385 10.2924C72.1392 10.0131 69.5888 10.0297 66.7561 10.4023Z" fill="#DCE5F7" fill-opacity="0.2"/>
<g id="Vector_2" style="mix-blend-mode:multiply">
<path d="M59.2068 82.885H36.2995C33.708 82.885 31.2227 81.7022 29.3904 79.5956L27.7368 77.6928C26.2361 75.968 25.3933 73.6282 25.3933 71.1864V30.4295C25.3933 28.2701 26.9162 26.5195 28.795 26.5195H60.7401L61.3024 80.4445C61.3196 81.7888 60.3743 82.885 59.2068 82.885Z" fill="#DCE5F7"/>
</g>
<path id="Vector_3" d="M37.2197 18.0244H64.2396C65.2489 18.0244 66.2169 18.4254 66.9306 19.1391C67.6442 19.8527 68.0452 20.8207 68.0452 21.83V77.7702C68.0452 78.7795 67.6442 79.7475 66.9306 80.4611C66.2169 81.1748 65.2489 81.5758 64.2396 81.5758H37.2197C36.2104 81.5758 35.2424 81.1748 34.5287 80.4611C33.815 79.7475 33.4141 78.7795 33.4141 77.7702V21.8306C33.4141 20.8213 33.815 19.8534 34.5287 19.1397C35.2424 18.426 36.2104 18.025 37.2197 18.025V18.0244Z" fill="#083B45"/>
<path id="Vector_4" d="M35.3795 18.168L34.498 19.1697V19.848L35.9049 19.3152L35.3795 18.168Z" fill="#07343B"/>
<path id="Vector_5" d="M67.1705 80.1987L68.125 79.1233L66.677 78.666L67.1705 80.1987Z" fill="#07343B"/>
<path id="Vector_6" d="M65.224 16.9131H38.2034C36.1013 16.9131 34.3972 18.6172 34.3972 20.7193V76.6595C34.3972 78.7616 36.1013 80.4657 38.2034 80.4657H65.224C67.3261 80.4657 69.0302 78.7616 69.0302 76.6595V20.7193C69.0302 18.6172 67.3261 16.9131 65.224 16.9131Z" fill="#19575E"/>
<path id="Vector_7" d="M67.5805 25.0762H35.8472V72.3027H67.5805V25.0762Z" fill="#FFD871"/>
<path id="Vector_8" d="M54.9826 22.3251H48.4449C48.2846 22.3251 48.1308 22.2614 48.0174 22.148C47.904 22.0346 47.8403 21.8808 47.8403 21.7204C47.8403 21.641 47.8558 21.5623 47.8862 21.4889C47.9165 21.4155 47.961 21.3487 48.0172 21.2925C48.0733 21.2363 48.14 21.1917 48.2134 21.1613C48.2868 21.1309 48.3655 21.1152 48.4449 21.1152H54.9826C55.0621 21.1152 55.1409 21.1308 55.2143 21.1611C55.2878 21.1915 55.3545 21.2361 55.4107 21.2923C55.467 21.3485 55.5115 21.4153 55.5419 21.4887C55.5723 21.5622 55.5879 21.6409 55.5878 21.7204C55.5878 21.7999 55.5722 21.8786 55.5418 21.952C55.5113 22.0254 55.4667 22.092 55.4105 22.1482C55.3543 22.2043 55.2876 22.2489 55.2142 22.2792C55.1408 22.3096 55.0621 22.3251 54.9826 22.3251Z" fill="#238787"/>
<path id="Vector_9" d="M56.6952 77.0389H46.4446C46.2841 77.0389 46.1301 76.9752 46.0166 76.8617C45.9031 76.7482 45.8394 76.5942 45.8394 76.4337C45.8395 76.2733 45.9034 76.1195 46.0168 76.0061C46.1303 75.8928 46.2842 75.8291 46.4446 75.8291H56.6952C56.8555 75.8291 57.0093 75.8928 57.1227 76.0062C57.2361 76.1196 57.2998 76.2734 57.2998 76.4337C57.2999 76.5132 57.2843 76.5918 57.2539 76.6653C57.2236 76.7387 57.1791 76.8054 57.1229 76.8616C57.0668 76.9178 57.0001 76.9624 56.9267 76.9928C56.8533 77.0233 56.7746 77.0389 56.6952 77.0389Z" fill="#238787"/>
<g id="Vector_10" style="mix-blend-mode:multiply">
<path d="M71.0105 61.4131H63.5061L53.7189 66.8368L55.8568 61.4131H20.6695C20.0548 61.4123 19.4655 61.1675 19.0311 60.7324C18.5968 60.2974 18.3529 59.7077 18.353 59.0929V34.2557C18.3529 33.9511 18.4129 33.6494 18.5294 33.3679C18.646 33.0864 18.8168 32.8306 19.0322 32.6152C19.2476 32.3997 19.5033 32.2288 19.7848 32.1122C20.0663 31.9956 20.3679 31.9355 20.6726 31.9355H71.0136C71.6289 31.9355 72.2191 32.18 72.6542 32.6151C73.0893 33.0502 73.3338 33.6404 73.3338 34.2557V59.0929C73.3338 59.3979 73.2737 59.6998 73.1569 59.9815C73.0401 60.2632 72.8689 60.5192 72.6531 60.7346C72.4374 60.9501 72.1812 61.121 71.8994 61.2374C71.6175 61.3538 71.3155 61.4135 71.0105 61.4131Z" fill="#DCE5F7"/>
</g>
<path id="Vector_11" d="M73.0077 57.8936H66.6855L57.11 65.948L59.1448 57.8936H23.2904C22.6827 57.8936 22.0999 57.6522 21.6701 57.2225C21.2404 56.7928 20.999 56.21 20.999 55.6023V31.0726C20.999 30.4649 21.2404 29.8821 21.6701 29.4524C22.0999 29.0227 22.6827 28.7812 23.2904 28.7812H73.0089C73.6166 28.7812 74.1995 29.0227 74.6292 29.4524C75.0589 29.8821 75.3003 30.4649 75.3003 31.0726V55.6023C75.3003 55.9033 75.241 56.2013 75.1258 56.4794C75.0105 56.7575 74.8416 57.0101 74.6287 57.2229C74.4158 57.4357 74.1631 57.6045 73.8849 57.7196C73.6068 57.8346 73.3087 57.8938 73.0077 57.8936Z" fill="#0461A5"/>
<path id="Vector_12" d="M77.0331 27.657C76.9463 27.6571 76.8613 27.6314 76.789 27.5832C76.7168 27.535 76.6604 27.4664 76.6272 27.3861C76.5939 27.3059 76.5852 27.2175 76.6022 27.1323C76.6192 27.0471 76.6611 26.9689 76.7225 26.9075L78.3344 25.2963C78.3749 25.2543 78.4233 25.2208 78.4769 25.1978C78.5304 25.1748 78.588 25.1626 78.6463 25.1621C78.7046 25.1616 78.7624 25.1727 78.8164 25.1948C78.8703 25.2168 78.9194 25.2494 78.9606 25.2907C79.0018 25.3319 79.0344 25.3809 79.0565 25.4349C79.0785 25.4888 79.0896 25.5466 79.0891 25.6049C79.0886 25.6632 79.0765 25.7208 79.0534 25.7744C79.0304 25.8279 78.9969 25.8764 78.955 25.9168L77.3437 27.5287C77.2613 27.6109 77.1496 27.657 77.0331 27.657Z" fill="#9CBAF7"/>
<path id="Vector_13" d="M80.2121 29.9304H78.2185C78.1048 29.9262 77.9973 29.878 77.9184 29.7961C77.8395 29.7143 77.7954 29.605 77.7954 29.4912C77.7954 29.3775 77.8395 29.2682 77.9184 29.1863C77.9973 29.1044 78.1048 29.0563 78.2185 29.0521H80.2121C80.2712 29.0499 80.3301 29.0596 80.3853 29.0807C80.4405 29.1017 80.4909 29.1337 80.5335 29.1747C80.576 29.2157 80.6099 29.2649 80.633 29.3193C80.6561 29.3737 80.668 29.4321 80.668 29.4912C80.668 29.5503 80.6561 29.6088 80.633 29.6632C80.6099 29.7176 80.576 29.7668 80.5335 29.8078C80.4909 29.8488 80.4405 29.8808 80.3853 29.9018C80.3301 29.9229 80.2712 29.9326 80.2121 29.9304Z" fill="#9CBAF7"/>
<path id="Vector_14" d="M74.7621 26.4714C74.6456 26.4713 74.5339 26.4249 74.4515 26.3425C74.3691 26.2602 74.3227 26.1485 74.3226 26.032V24.0389C74.3204 23.9799 74.3301 23.921 74.3512 23.8658C74.3722 23.8105 74.4042 23.7602 74.4452 23.7176C74.4862 23.675 74.5354 23.6412 74.5898 23.6181C74.6442 23.5949 74.7027 23.583 74.7618 23.583C74.8209 23.583 74.8793 23.5949 74.9337 23.6181C74.9881 23.6412 75.0373 23.675 75.0783 23.7176C75.1193 23.7602 75.1513 23.8105 75.1723 23.8658C75.1934 23.921 75.2031 23.9799 75.2009 24.0389V26.032C75.2009 26.1484 75.1547 26.2601 75.0724 26.3425C74.9901 26.4249 74.8785 26.4713 74.7621 26.4714Z" fill="#9CBAF7"/>
<path id="Vector_15" d="M37.1501 39.9121H36.1558V40.4038H37.1501V39.9121Z" fill="#D4D4D9"/>
<path id="Vector_16" d="M37.478 40.3525H35.8281V40.8325H37.478V40.3525Z" fill="#FEFEFF"/>
<path id="Vector_17" d="M35.828 39.9366H37.4779V38.8575C37.4851 38.2218 37.3661 37.591 37.1278 37.0017C36.8895 36.4123 36.5367 35.8761 36.0897 35.424C35.6427 34.972 35.1105 34.6131 34.5239 34.3681C33.9372 34.1232 33.3078 33.9971 32.6721 33.9971C32.0364 33.9971 31.407 34.1232 30.8203 34.3681C30.2337 34.6131 29.7015 34.972 29.2545 35.424C28.8075 35.8761 28.4547 36.4123 28.2164 37.0017C27.9781 37.591 27.8591 38.2218 27.8663 38.8575V42.622H29.5162V38.8575C29.5278 38.0281 29.8653 37.2367 30.4559 36.6542C31.0465 36.0718 31.8426 35.7453 32.6721 35.7453C33.5015 35.7453 34.2977 36.0718 34.8883 36.6542C35.4788 37.2367 35.8164 38.0281 35.828 38.8575V39.9366Z" fill="#FEFEFF"/>
<path id="Vector_18" d="M27.797 42.1641H37.5474C37.6971 42.1641 37.8408 42.2236 37.9467 42.3295C38.0526 42.4354 38.1121 42.579 38.1121 42.7288V46.0225C38.1121 47.4653 37.5389 48.849 36.5187 49.8693C35.4984 50.8895 34.1147 51.4627 32.6719 51.4627C31.2291 51.4627 29.8453 50.8895 28.8251 49.8693C27.8049 48.849 27.2317 47.4653 27.2317 46.0225V42.7288C27.2317 42.579 27.2912 42.4354 27.3971 42.3295C27.503 42.2236 27.6466 42.1641 27.7964 42.1641H27.797Z" fill="#FCB900"/>
<g id="Vector_19" style="mix-blend-mode:multiply" opacity="0.85">
<path d="M33.845 45.5674C33.8463 45.3601 33.7927 45.1561 33.6896 44.9763C33.5865 44.7964 33.4375 44.6471 33.2579 44.5435C33.0783 44.44 32.8745 44.3859 32.6672 44.3867C32.4599 44.3876 32.2565 44.4434 32.0777 44.5484C31.899 44.6534 31.7513 44.804 31.6497 44.9847C31.548 45.1654 31.4961 45.3698 31.4992 45.5771C31.5022 45.7843 31.5602 45.9871 31.6671 46.1647C31.774 46.3423 31.9261 46.4884 32.1079 46.5881V47.9606C32.1054 48.0363 32.1182 48.1117 32.1454 48.1824C32.1726 48.253 32.2138 48.3175 32.2665 48.3719C32.3191 48.4263 32.3822 48.4696 32.4519 48.4992C32.5216 48.5287 32.5966 48.5439 32.6723 48.5439C32.748 48.5439 32.823 48.5287 32.8927 48.4992C32.9624 48.4696 33.0255 48.4263 33.0781 48.3719C33.1308 48.3175 33.172 48.253 33.1992 48.1824C33.2264 48.1117 33.2392 48.0363 33.2367 47.9606V46.5881C33.4203 46.4881 33.5736 46.3406 33.6806 46.161C33.7876 45.9815 33.8444 45.7764 33.845 45.5674Z" fill="#301300"/>
</g>
<g id="Clip path group">
<mask id="mask0_7500_15760" style="mask-type:luminance" maskUnits="userSpaceOnUse" x="27" y="34" width="12" height="18">
<g id="clip-path">
<path id="Vector_20" d="M38.1122 42.5934V46.0222C38.1122 47.4649 37.5391 48.8485 36.519 49.8687C35.4989 50.8889 34.1153 51.4622 32.6726 51.4623C31.2298 51.4623 29.8461 50.8892 28.8258 49.8689C27.8056 48.8487 27.2324 47.465 27.2324 46.0222V42.5934C27.2324 42.4795 27.2777 42.3702 27.3583 42.2896C27.4388 42.209 27.5481 42.1637 27.6621 42.1637H27.8671V38.8578C27.8678 38.1991 28.0037 37.5476 28.2665 36.9436C28.5292 36.3396 28.9132 35.796 29.3946 35.3464C29.8761 34.8969 30.4447 34.551 31.0652 34.3302C31.6858 34.1094 32.3451 34.0183 33.0022 34.0627C35.4716 34.2284 37.5475 36.2896 37.4787 39.0278V39.9368H35.8282V38.8578C35.8166 38.0284 35.4791 37.2369 34.8885 36.6545C34.2979 36.0721 33.5018 35.7456 32.6723 35.7456C31.8429 35.7456 31.0467 36.0721 30.4561 36.6545C29.8656 37.2369 29.528 38.0284 29.5164 38.8578V42.1637H37.6801C37.7367 42.1634 37.7928 42.1743 37.8453 42.1957C37.8977 42.2172 37.9453 42.2488 37.9855 42.2887C38.0256 42.3286 38.0575 42.3761 38.0793 42.4284C38.101 42.4807 38.1122 42.5368 38.1122 42.5934ZM35.8282 40.8361H37.4781V40.3524H35.8282V40.8361Z" fill="white"/>
</g>
</mask>
<g mask="url(#mask0_7500_15760)">
<g id="Group_2">
<g id="Vector_21" style="mix-blend-mode:multiply" opacity="0.1">
<path d="M38.1128 42.1641H32.6726V51.4627H38.1128V42.1641Z" fill="#E70013"/>
</g>
</g>
</g>
</g>
<path id="Vector_22" d="M64.1222 48.5263H47.3726C44.7823 48.5263 42.6831 46.3835 42.6831 43.7386V43.6422C42.6831 40.9985 44.7823 38.8545 47.3726 38.8545H64.1222C66.7119 38.8545 68.8117 40.9973 68.8117 43.6422V43.7392C68.8117 46.3835 66.7119 48.5263 64.1222 48.5263Z" fill="#E8E8E8"/>
<path id="Vector_23" d="M64.2725 48.5256H48.0612C45.5544 48.5256 43.5227 46.5768 43.5227 44.1731V44.0853C43.5227 41.6816 45.5544 39.7334 48.0612 39.7334H64.2713C66.7781 39.7334 68.8135 41.6816 68.8135 44.0853V44.1731C68.8117 46.5768 66.7824 48.5256 64.2725 48.5256Z" fill="white"/>
<path id="Vector_24" d="M48.4995 41.4375H49.6486L49.4871 43.123L50.8774 42.1827L51.4372 43.212L49.9389 43.8768L51.4372 44.5342L50.8793 45.5617L49.4871 44.6238L49.6486 46.3099H48.4995L48.6677 44.6238L47.2774 45.5641L46.7195 44.5366L48.2178 43.878L46.7195 43.212L47.2774 42.1839L48.6677 43.1242L48.4995 41.4375Z" fill="#707070"/>
<path id="Vector_25" d="M55.5325 41.4375H56.6815L56.5201 43.123L57.9104 42.1827L58.4683 43.212L56.9706 43.8768L58.4683 44.5354L57.9104 45.5629L56.5201 44.6238L56.6815 46.3099H55.5325L55.7007 44.6238L54.3104 45.5641L53.7524 44.5366L55.2508 43.878L53.7524 43.212L54.3104 42.1839L55.7007 43.1242L55.5325 41.4375Z" fill="#707070"/>
<path id="Vector_26" d="M62.5657 41.4375H63.7135L63.5521 43.123L64.943 42.1827L65.5003 43.2108L64.0026 43.8755L65.5003 44.5342L64.943 45.5617L63.5533 44.6238L63.7148 46.3099H62.5657L62.7314 44.6238L61.3412 45.5641L60.7832 44.5366L62.2815 43.878L60.7857 43.212L61.3436 42.1839L62.7314 43.123L62.5657 41.4375Z" fill="#707070"/>
</g>
</g>
</g>
</svg>
