<svg width="23" height="24" viewBox="0 0 23 24" fill="none" xmlns="http://www.w3.org/2000/svg">
<path d="M18.1297 7.05556C18.1297 3.20011 15.0287 0.0670235 11.1782 0.000985838C7.30651 -0.0652203 4.07676 3.01716 3.98097 6.8775C3.91779 9.42281 5.21202 11.6892 7.2136 12.9816C7.47816 13.1524 7.70656 13.3734 7.87752 13.6376C8.68707 14.8878 9.48564 16.2297 10.3153 18.5963C10.5601 19.2948 11.5489 19.2934 11.7937 18.595C12.8774 15.503 14.3247 13.4909 14.2948 13.5369C14.4234 13.3394 14.5923 13.171 14.7925 13.0465C16.7976 11.7997 18.1297 9.58083 18.1297 7.05556Z" fill="#FF6B6B"/>
<path d="M12.0193 21.1186C12.0193 21.6501 11.5873 22.0808 11.0543 22.0808C10.5213 22.0808 10.0894 21.6501 10.0894 21.1186C10.0894 20.5871 10.5213 20.1563 11.0543 20.1563C11.5873 20.1563 12.0193 20.5871 12.0193 21.1186Z" fill="#FF6B6B"/>
<path d="M11.6519 18.5963C10.8224 16.2297 10.0237 14.8878 9.21433 13.6376C9.04336 13.3735 8.81496 13.1524 8.55024 12.9816C6.54866 11.689 5.2546 9.42281 5.31778 6.87733C5.40681 3.28215 8.21472 0.362172 11.7274 0.0316462C11.5463 0.0146314 11.3632 0.00418664 11.1782 0.000985839C7.30651 -0.0652203 4.07676 3.01716 3.98097 6.8775C3.91779 9.42281 5.21202 11.6892 7.2136 12.9816C7.47816 13.1524 7.70656 13.3735 7.87752 13.6376C8.68707 14.8878 9.48564 16.2297 10.3153 18.5963C10.5408 19.2399 11.3975 19.2889 11.7224 18.7463C11.695 18.7004 11.671 18.6507 11.6519 18.5963Z" fill="#1E2124" fill-opacity="0.1"/>
<path d="M11.426 21.1186C11.426 20.8458 11.5399 20.5999 11.7226 20.4248C11.5493 20.2586 11.3138 20.1563 11.0543 20.1563C10.5213 20.1563 10.0894 20.5871 10.0894 21.1186C10.0894 21.6499 10.5213 22.0808 11.0543 22.0808C11.3138 22.0808 11.5493 21.9786 11.7226 21.8123C11.5399 21.6373 11.426 21.3913 11.426 21.1186Z" fill="#1E2124" fill-opacity="0.1"/>
<path d="M16.218 6.98648C16.218 9.82678 13.9089 12.1293 11.0607 12.1293C8.21236 12.1293 5.90332 9.82678 5.90332 6.98648C5.90332 4.14619 8.21236 1.84363 11.0607 1.84363C13.9089 1.84363 16.218 4.14619 16.218 6.98648Z" fill="#1E2124"/>
<path d="M14.2584 4.97616C13.5745 4.29419 11.94 5.36824 12.2709 6.34419C12.1879 6.42696 12.2552 6.35984 11.6743 6.93918C10.1304 8.47873 10.4744 8.13572 9.477 9.13032C9.30762 9.29988 9.30778 9.57433 9.47758 9.74355C9.64758 9.91298 9.92316 9.91304 10.0931 9.74349C11.273 8.56697 10.6708 9.17761 12.0257 7.82038L12.0323 7.82701C12.3936 7.44851 12.2166 7.62926 12.8866 6.95803C13.8652 7.28808 14.9421 5.65809 14.2584 4.97616Z" fill="#FCD170"/>
<path d="M9.94507 9.31455C11.5631 7.70089 11.0171 8.24555 12.739 6.52845C12.4733 5.74489 13.4754 4.89839 14.2289 4.94855C13.5228 4.3229 11.9464 5.38638 12.2711 6.34411C12.1426 6.47236 9.62052 8.98738 9.47725 9.13025C9.16807 9.43975 9.46294 9.96093 9.88873 9.85775C9.77874 9.68972 9.79749 9.4623 9.94507 9.31455Z" fill="#F9A832"/>
<path d="M9.93481 6.95058C9.97004 7.00363 9.77792 6.80648 12.7231 9.74347C12.8932 9.91303 13.1688 9.91296 13.3388 9.74354C13.5088 9.57399 13.5087 9.29918 13.3387 9.12973C10.3969 6.196 10.5917 6.38461 10.538 6.34906L9.93481 6.95058Z" fill="#039D55"/>
<path d="M12.9678 9.37684C12.9677 9.37678 10.2349 6.65161 10.2349 6.65161L9.93481 6.95051C9.97004 7.00356 9.77792 6.80641 12.7231 9.74341C12.9891 10.0086 13.4447 9.83394 13.4651 9.46036C13.303 9.5386 13.1024 9.51107 12.9678 9.37684Z" fill="#E13303"/>
<path d="M10.8937 5.40505L9.63392 4.14867C9.53606 4.05102 9.37735 4.05105 9.27946 4.14864C9.18156 4.24625 9.18156 4.40449 9.27942 4.50207C10.6454 5.86431 10.5883 5.78115 10.5883 5.87641C10.5883 5.96581 10.5613 5.97244 10.2364 6.29635L8.85185 4.9157C8.75399 4.81811 8.59528 4.81811 8.49742 4.9157C8.39953 5.01335 8.39953 5.17155 8.49742 5.26916L9.88196 6.64981L9.57913 6.95178C9.51361 7.01712 9.40787 7.01693 9.34258 6.95182L8.08266 5.6955C7.98474 5.59792 7.82612 5.59789 7.7282 5.69554C7.63031 5.79315 7.63031 5.95139 7.72823 6.04897L8.98811 7.30525C9.11439 7.4312 9.28225 7.50052 9.46081 7.50052C9.63937 7.50052 9.80726 7.4312 9.93353 7.30528L10.8938 6.34774C11.0201 6.22182 11.0896 6.05444 11.0896 5.87638C11.0896 5.69829 11.02 5.5309 10.8937 5.40505Z" fill="#E2E1E0"/>
<path d="M7.23361 6.98349C7.23361 4.36894 9.19008 2.21041 11.7226 1.8836C11.5038 1.85529 11.2809 1.84064 11.0543 1.84064C8.20601 1.84064 5.89697 4.1432 5.89697 6.98349C5.89697 9.82379 8.20601 12.1263 11.0543 12.1263C11.2809 12.1263 11.5038 12.1117 11.7226 12.0834C9.19008 11.7566 7.23361 9.59788 7.23361 6.98349Z" fill="#FFEEEF"/>
<ellipse cx="11.0446" cy="23.0297" rx="5.46548" ry="0.97035" fill="#1E2124" fill-opacity="0.1"/>
</svg>
