<svg width="191" height="121" viewBox="0 0 191 121" fill="none" xmlns="http://www.w3.org/2000/svg">
<path d="M0.596021 119.747C0.266927 119.747 6.10352e-05 120.027 6.10352e-05 120.373C6.10352e-05 120.719 0.266839 121 0.596021 121H189.605C189.946 121 190.223 120.724 190.225 120.383C190.225 120.378 190.225 120.374 190.225 120.37C190.227 120.026 189.949 119.747 189.605 119.747L0.596021 119.747Z" fill="#184655" fill-opacity="0.1"/>
<path d="M99.7135 53.8872L98.6829 52.3966L96.8708 52.4007C96.6644 52.4011 96.5471 52.1648 96.6722 52.0006L97.7712 50.5598L97.2075 48.8375C97.1432 48.6414 97.3318 48.4567 97.5266 48.5251L99.2365 49.1251L100.7 48.0567C100.867 47.935 101.101 48.0572 101.096 48.2636L101.054 50.0753L102.522 51.1372C102.689 51.2581 102.645 51.5183 102.448 51.5775L100.712 52.0971L100.155 53.8219C100.092 54.0184 99.8309 54.057 99.7135 53.8872Z" fill="#F47458"/>
<path d="M147.536 21.0415L148.491 18.8291L147.211 16.7879C147.065 16.5554 147.249 16.2565 147.522 16.2822L149.921 16.5071L151.467 14.658C151.643 14.4475 151.984 14.5302 152.044 14.798L152.572 17.1494L154.808 18.048C155.062 18.1503 155.089 18.5003 154.853 18.6402L152.78 19.8685L152.616 22.2728C152.597 22.5466 152.273 22.6802 152.067 22.4989L150.258 20.9066L147.921 21.4941C147.655 21.5609 147.427 21.2935 147.536 21.0415Z" fill="#F7CC7F"/>
<path d="M22.7495 81.8483L21.5237 79.5029L18.8966 79.1831C18.5973 79.1466 18.4698 78.783 18.6807 78.5677L20.5325 76.6769L20.0249 74.0795C19.967 73.7837 20.2735 73.55 20.5435 73.684L22.9139 74.8609L25.2272 73.5754C25.4907 73.429 25.8077 73.6483 25.7636 73.9465L25.3768 76.5645L27.3141 78.3674C27.5348 78.5727 27.4242 78.9419 27.127 78.9922L24.5176 79.4334L23.4017 81.833C23.2745 82.1065 22.8891 82.1154 22.7495 81.8483Z" fill="#9BC1F9"/>
<path d="M162.835 25.4937L162.866 26.7754L160.809 27.0526L160.623 28.9322L159.118 29.3912L159.35 30.1532L161.363 29.5392L161.54 27.758L163.68 27.4696L163.633 25.5409L162.835 25.4937Z" fill="#466EB6"/>
<path d="M48.9389 12.3731C49.0511 11.5322 49.8551 10.9213 50.6953 11.0384C51.5696 11.1603 52.0737 11.8666 51.9908 12.7565C51.8912 13.6447 51.219 14.2438 50.2967 14.1405C49.3605 14.0356 48.818 13.2795 48.9389 12.3731ZM49.7674 10.0691L50.1793 3.31588C50.2133 2.75712 50.7084 2.34076 51.2647 2.40317L51.9368 2.47853C52.4923 2.54076 52.8827 3.05497 52.7936 3.60682L51.7143 10.2873L49.7674 10.0691Z" fill="#F48C7F"/>
<path d="M44.656 46.3618C44.7017 48.0369 45.1338 51.6314 48.9322 52.2253C51.29 52.594 54.3098 50.4761 54.1154 48.921C53.921 47.366 53.4891 43.403 51.0271 42.4959C48.9699 41.738 44.554 42.6243 44.656 46.3618Z" fill="#184655"/>
<path d="M76.3491 100.504C76.8861 102.759 77.3089 106.013 77.4661 106.195C77.5415 106.282 77.6977 106.851 77.7736 106.943C80.2265 107.835 82.3821 106.915 84.0905 105.902C82.7511 105.664 80.948 105.418 80.6963 105.24C79.7643 104.582 79.987 102.24 79.8193 100.137C79.156 100.255 77.5461 99.8359 76.3491 100.504Z" fill="#F7A491"/>
<path d="M77.4152 106.067C77.4308 106.958 78.0043 108.86 78.1814 108.857C78.393 108.855 85.7649 108.216 86.4596 107.085C86.8773 106.405 85.7421 106.228 84.0905 105.902C82.3821 106.915 77.6201 106.625 77.4152 106.067Z" fill="#466EB6"/>
<path d="M41.3415 105.537C39.6361 106.873 37.9113 107.941 37.6943 108.044C37.59 108.093 37.0004 108.091 36.8909 108.14C35.3743 110.264 35.6838 112.587 36.202 114.505C36.7896 113.278 37.4815 111.564 37.7489 111.412C38.1747 111.169 39.7107 110.256 42.4682 109.135C41.5341 108.121 41.6642 106.869 41.3415 105.537Z" fill="#F7A491"/>
<path d="M45.2252 58.4102L39.9564 67.9948C39.9564 67.9948 36.4335 72.4279 34.6199 74.7036C35.0105 75.3429 35.3881 75.9979 35.7256 76.671C37.5302 75.1364 41.3693 71.8804 42.7399 70.0809C44.7648 67.4225 48.4291 61.1107 48.4291 61.1107L45.2252 58.4102Z" fill="#F7A491"/>
<path d="M59.234 75.0918L53.5988 83.4047C53.5988 83.4047 53.2755 82.8479 55.2935 83.5858C57.3115 84.3238 70.3266 86.7549 71.0967 87.674C71.6418 88.3245 75.6785 101.091 76.4559 102.73C77.6266 103.205 79.3295 102.678 80.5313 102.505C80.6078 96.355 77.3511 85.1586 76.4825 83.8463C74.5403 80.9124 65.2936 77.7428 61.131 75.9649C60.4558 75.6765 59.932 75.4176 59.6071 75.2611C59.3666 75.1453 59.234 75.0918 59.234 75.0918Z" fill="#3C8F7C"/>
<path d="M37.6035 108.065C36.7411 107.842 34.9829 107.848 34.9376 108.02C34.8835 108.224 33.5239 115.498 34.4273 116.47C34.9705 117.055 35.4454 116.009 36.202 114.505C35.6839 112.587 37.0113 108.113 37.6035 108.065Z" fill="#466EB6"/>
<path d="M57.7553 80.9435C57.8042 80.3192 59.1392 76.6749 59.6121 75.2562C59.627 75.2112 59.2776 74.3909 58.9001 73.2104L58.3595 73.297L50.3474 73.66C50.3474 73.66 47.1209 79.1099 47.4965 81.6136C48.0209 85.1091 53.0744 97.5336 52.3058 98.1191C50.9188 99.1756 44.1241 103.113 40.6325 105.454C40.8557 106.806 41.4809 108.693 42.3376 109.773C45.1789 108.785 57.4574 103.835 58.7203 100.037C59.8359 96.6834 57.6724 82.0047 57.7553 80.9435Z" fill="#50BFA5"/>
<path d="M57.6263 50.3142C57.6263 50.3142 55.4196 53.7809 54.1185 53.906L58.7203 58.1638C58.7203 58.1638 61.8551 53.4637 62.1823 52.6573C62.1823 52.6573 59.3292 50.1161 57.6263 50.3142Z" fill="#F7CC7F"/>
<path d="M59.2374 71.2622C59.031 73.1711 59.6196 75.2588 59.6196 75.2588C57.7691 75.6563 51.2099 76.4925 49.6057 74.5395C49.5482 74.4694 51.8772 70.3617 51.5565 68.6844C51.0834 66.2103 49.0292 62.0151 48.8588 61.7903C48.5729 61.413 47.5223 63.365 47.5223 63.365C46.2917 63.3713 43.4734 60.5114 43.4734 60.5114C43.4734 60.5114 46.3881 55.4336 47.1902 54.9561C47.9921 54.4789 54.6189 53.7575 54.6239 53.7571C55.1115 53.7219 56.4436 54.8781 56.8098 55.2432C60.9984 59.4224 59.8702 65.4108 59.2374 71.2622Z" fill="#FAE0B2"/>
<path d="M50.8882 51.6265C50.8882 51.6265 51.6104 54.0131 51.6155 54.9833C51.6206 55.9536 52.0076 57.2739 54.0419 57.0741C56.0762 56.8743 54.4074 54.8269 54.1187 53.9054C53.8298 52.984 53.4835 50.0747 53.4835 50.0747L50.8882 51.6265Z" fill="#F7A491"/>
<path d="M53.6765 51.5328C53.5625 50.739 53.4834 50.0752 53.4834 50.0752L50.8882 51.6269C50.8882 51.6269 51.0359 52.1149 51.1982 52.7393C52.4164 52.856 53.2356 52.3249 53.6765 51.5328Z" fill="#F47458"/>
<path d="M48.7716 44.4226C48.7716 44.4226 47.7013 45.1699 47.4272 46.5781C47.1531 47.9863 47.9895 51.4606 51.0105 52.0077C54.0315 52.5548 55.014 49.6339 54.1845 47.5152C53.3551 45.3964 51.7557 42.7702 48.7716 44.4226Z" fill="#F7A491"/>
<path d="M54.4641 46.6317C54.4672 47.2235 54.1903 47.7046 53.8455 47.7064C53.5008 47.7081 53.2189 47.2299 53.2158 46.6381C53.2128 46.0464 53.4898 45.5652 53.8344 45.5635C54.1791 45.5617 54.4611 46.0401 54.4641 46.6317Z" fill="#F7A491"/>
<path d="M48.7402 49.5793C49.1378 50.0557 49.1989 50.6598 48.8768 50.9285C48.5548 51.1971 47.9715 51.0286 47.574 50.5522C47.1765 50.0757 47.1154 49.4717 47.4375 49.2031C47.7595 48.9344 48.3428 49.1028 48.7402 49.5793Z" fill="#F7A491"/>
<path d="M45.6765 43.0962C45.7951 41.4733 46.9434 35.438 43.2513 34.8658C39.5592 34.2937 38.771 38.3267 36.724 32.8979C34.8275 27.8686 29.1909 29.8158 28.9554 33.635C28.4204 33.5896 27.8723 33.6674 27.3499 33.8876C25.5432 34.6489 24.7309 36.8139 25.5356 38.7231C25.6635 39.0267 25.5908 39.3275 25.7785 39.5787C25.3456 41.2422 25.6443 43.1438 26.9285 45.0755C30.436 50.3515 33.9541 44.7978 36.3259 45.0937C38.6977 45.3894 37.1518 47.2437 39.2063 48.691C41.2607 50.1383 42.9146 49.7593 46.2589 45.8115L47.0845 44.7233C47.0845 44.7233 45.5579 44.719 45.6765 43.0962Z" fill="#184655"/>
<path d="M149.454 89.0639C151.304 88.3249 152.961 87.3202 153.156 87.2171C153.307 87.1375 153.935 86.675 154.024 86.6104C155.656 87.5808 156.252 88.406 157.537 89.7033C156.586 89.7551 156.183 88.9748 155.819 89.056C155.379 89.154 153.994 90.0825 151.829 91.7574C151.455 90.5465 150.364 89.9355 149.454 89.0639Z" fill="#F8A492"/>
<path d="M123.262 108.027C123.683 109.975 124.451 111.707 124.544 111.907C124.589 112.004 124.875 112.078 124.924 112.176C123.696 113.623 123.165 116.031 121.672 117.083C121.779 116.136 122.415 114.359 122.395 113.987C122.372 113.536 121.686 112.017 120.395 109.603C121.651 109.436 122.251 108.78 123.262 108.027Z" fill="#F8A492"/>
<path d="M124.039 112.306C124.206 111.885 124.759 111.594 125.153 111.843C125.549 112.094 126.076 112.368 126.469 112.641C126.912 112.947 126.943 113.292 126.932 113.37C126.899 113.596 121.67 119.711 121 119.8C120.33 119.889 121.569 114.717 122.304 114.185C122.957 113.712 123.285 114.2 124.039 112.306Z" fill="#3C8F7C"/>
<path d="M153.869 87.2215C153.485 86.9815 153.297 86.3847 153.613 86.0426C153.93 85.6979 154.295 85.2283 154.633 84.8901C155.014 84.5097 155.359 84.5406 155.434 84.5656C155.65 84.6376 160.731 90.8776 160.698 91.5526C160.665 92.2276 155.799 90.0831 155.407 89.2648C155.059 88.537 155.597 88.3016 153.869 87.2215Z" fill="#3C8F7C"/>
<path d="M125.263 85.2297C125.263 85.2297 135.578 99.1296 137.373 99.2577C139.052 99.3776 152.061 92.1238 152.061 92.1238L150.368 88.3781L139.951 92.1238L132.697 78.3955L125.263 85.2297Z" fill="#B75742"/>
<path d="M131.201 73.4844C131.201 73.4844 133.09 73.934 134.169 76.8114C135.248 79.6888 133.443 82.0794 128.92 86.2494C124.517 90.3092 120.168 94.1226 120.168 94.1226L123.738 108.822L120.771 111.34C120.771 111.34 113.893 96.4006 113.693 92.8437C113.617 91.4852 124.188 75.7324 124.188 75.7324L131.201 73.4844Z" fill="#F47458"/>
<path d="M123.221 55.4863L117.47 58.7027L112.914 60.8909C112.914 60.8909 111.802 57.1093 112.175 55.2556C112.228 54.9909 112.49 54.6772 112.584 54.5363C113.336 53.4095 111.73 51.6587 111.73 51.6587C111.73 51.6587 110.763 51.3836 110.105 52.98C109.448 54.5763 110.662 55.2535 110.662 55.2535C110.662 55.2535 109.277 60.0868 109.857 63.6084C110.161 65.4537 114.774 64.0989 118.449 62.5094C121.54 61.1728 123.815 59.681 123.815 59.681L123.221 55.4863Z" fill="#F7A491"/>
<path d="M124.514 54.9349C124.392 54.8212 124.193 54.7543 123.867 54.8754C123.154 55.1401 116.251 58.9326 116.251 58.9326C116.251 58.9326 116.871 62.2498 118.489 63.2689L121.967 62.2073L124.627 55.4833C124.702 55.2944 124.663 55.0738 124.514 54.9349Z" fill="#3C8F7C"/>
<path d="M140.407 40.7543C137.787 39.1493 134.52 39.459 132.575 41.6158C130.974 41.0141 129.139 41.0608 127.654 41.7543C124.724 43.1227 122.131 46.6954 124.34 49.2891C123.87 52.7323 125.93 54.7348 128.497 54.9638C129.892 57.7633 134.838 58.0507 137.684 55.7448C140.035 56.6534 142.828 56.2619 144.566 54.5657C144.983 54.1586 145.595 53.5065 145.734 53.4467C145.566 53.5313 152.285 52.6407 151.978 46.7181C151.665 40.6745 144.433 38.3548 140.407 40.7543Z" fill="#FE875E"/>
<path d="M128.501 54.4761L132.766 54.7112L132.058 60.6708C132.058 60.6708 129.999 66.4059 130.839 69.1636C131.678 71.9212 132.487 73.9295 132.487 73.9295C132.487 73.9295 130.059 76.7171 123.255 76.1476C123.255 76.1476 123.345 71.2018 123.255 69.7031C123.165 68.2044 121.427 61.9698 121.667 60.561C121.906 59.1521 123.405 55.2555 123.795 54.9258C124.184 54.596 125.728 54.4312 125.728 54.4312L128.501 54.4761Z" fill="#50BFA5"/>
<path d="M128.701 51.2037C128.701 51.2037 128.628 51.6856 128.558 52.3043C128.471 53.0765 128.39 54.062 128.463 54.5891C128.595 55.5389 127.701 58.0418 125.683 58.133C123.665 58.2243 125.641 55.3681 125.793 54.4262C125.945 53.4842 125.944 50.0518 125.944 50.0518L128.701 51.2037Z" fill="#F7A491"/>
<path d="M125.961 51.5045C125.961 50.712 125.944 50.0518 125.944 50.0518L128.701 51.2036C128.701 51.2036 128.626 51.7017 128.555 52.3353C127.38 52.621 126.504 52.217 125.961 51.5045Z" fill="#F47458"/>
<path d="M128.909 44.1258C128.909 44.1258 130.076 44.5391 130.681 45.7572C131.287 46.9752 131.398 50.3617 128.774 51.623C126.151 52.8844 124.517 50.462 124.741 48.3165C124.965 46.1709 125.765 43.3674 128.909 44.1258Z" fill="#F7A491"/>
<path d="M124.263 47.5794C124.409 48.121 124.784 48.4911 125.099 48.4058C125.415 48.3206 125.552 47.8124 125.406 47.2708C125.259 46.7292 124.885 46.359 124.569 46.4444C124.254 46.5295 124.117 47.0378 124.263 47.5794Z" fill="#F7A491"/>
<path d="M130.365 48.7386C130.122 49.2743 130.218 49.8418 130.58 50.0062C130.942 50.1705 131.433 49.8696 131.676 49.334C131.919 48.7983 131.823 48.2307 131.461 48.0664C131.099 47.902 130.608 48.2029 130.365 48.7386Z" fill="#F7A491"/>
<path d="M73.5054 74.7981C73.1043 73.63 56.7776 26.0694 56.0643 23.9919C54.9723 20.8111 51.478 19.1014 48.2593 20.1734L23.9069 28.2837C20.6882 29.3556 18.9642 32.8032 20.056 35.984L37.4971 86.7902C38.589 89.971 42.0834 91.6806 45.3021 90.6087L69.6545 82.4984C72.8732 81.4263 74.5973 77.9788 73.5054 74.7981ZM67.5906 76.0802L42.9882 84.2737C41.1318 84.8919 39.1164 83.9059 38.4865 82.0713L22.3553 35.0806C21.7256 33.2459 22.7199 31.2575 24.5764 30.6393L49.1787 22.4458C51.0351 21.8275 53.0506 22.8136 53.6804 24.6482C57.5976 36.0591 69.4592 70.6123 69.8116 71.6389C70.4414 73.4735 69.4471 75.462 67.5906 76.0802Z" fill="#355389"/>
<path d="M61.2831 81.5903C61.6585 82.6837 59.936 84.2452 57.4357 85.0779C54.9355 85.9105 52.6043 85.6991 52.229 84.6057C51.8537 83.5122 53.5763 81.9509 56.0764 81.1181C58.5767 80.2856 60.9078 80.4969 61.2831 81.5903Z" fill="#184655"/>
<path d="M60.6175 81.6779C60.9701 82.705 59.5436 84.108 57.4314 84.8115C55.3191 85.5149 53.321 85.2525 52.9684 84.2254C52.6158 83.1983 54.0423 81.7954 56.1545 81.0918C58.2667 80.3884 60.2649 80.6508 60.6175 81.6779Z" fill="#355389"/>
<path d="M150.277 27.2356L122.912 21.0491C119.295 20.2314 115.729 22.372 114.947 25.8302L102.46 81.0668C101.678 84.5251 103.976 87.9914 107.593 88.8091L134.959 94.9957C138.575 95.8134 142.141 93.6728 142.923 90.2146L155.411 34.9779C156.193 31.5197 153.894 28.0534 150.277 27.2356ZM141.26 85.3373C140.809 87.3319 138.752 88.5665 136.666 88.0948L109.02 81.8448C106.934 81.3732 105.608 79.374 106.059 77.3793L117.609 26.2908C118.06 24.2962 120.117 23.0616 122.203 23.5332L149.849 29.7833C151.935 30.255 153.261 32.2542 152.81 34.2488L141.26 85.3373Z" fill="#86B1F2"/>
<path d="M127.646 89.5519C127.377 90.7407 124.882 91.1894 122.072 90.5543C119.263 89.9191 117.203 88.4406 117.472 87.2517C117.74 86.063 120.236 85.6142 123.045 86.2494C125.855 86.8846 127.915 88.3631 127.646 89.5519Z" fill="#466EB6"/>
<path d="M126.974 89.2623C126.722 90.3791 124.593 90.8494 122.219 90.3127C119.846 89.7761 118.126 88.4358 118.378 87.3191C118.631 86.2024 120.76 85.7321 123.133 86.2687C125.507 86.8053 127.226 88.1456 126.974 89.2623Z" fill="#86B1F2"/>
<path d="M132.594 56.2576C132.594 56.2576 141.587 54.0735 143.592 53.7059C145.596 53.3384 152.553 50.829 152.821 50.7228C153.088 50.6166 154.079 47.038 154.471 47.2879C154.863 47.5377 153.869 49.0921 154.36 49.2934C154.852 49.4948 159.041 47.6188 159.07 47.9581C159.125 48.5928 156.55 49.2036 156.631 49.4952C156.713 49.7867 159.26 48.6113 159.572 49.0478C159.884 49.4842 157.057 49.9376 157.005 50.1837C156.954 50.4298 159.72 50.1097 159.57 50.6344C159.488 50.9193 157.103 50.8599 157.204 51.1911C157.305 51.5222 159.121 51.8483 158.995 52.1677C158.869 52.4871 157.51 51.6916 156.571 51.9301C155.633 52.1686 154.832 51.8611 153.449 52.6726C152.067 53.4841 147.532 56.9066 144.306 57.6137C141.081 58.3208 133.958 59.9023 133.958 59.9023L132.594 56.2576Z" fill="#F7A491"/>
<path d="M130.415 54.8735C130.72 54.7281 131.654 54.7044 132.765 54.7126C133.173 54.7157 133.749 54.7189 134.186 54.7064C135.81 54.6599 137.353 54.7363 137.353 54.7363C137.353 54.7363 138.17 58.6832 137.49 59.6914C137.49 59.6914 131.135 60.5991 131.288 61.041L130.415 54.8735Z" fill="#50BFA5"/>
<path d="M108.378 54.8955L108.926 54.2032C108.926 54.2032 109.266 53.6756 109.778 53.624C110.29 53.5723 110.274 52.9301 109.732 53.0216C109.189 53.1132 108.849 53.2424 108.849 53.2424C108.849 53.2424 109.926 52.6885 109.945 52.6167C110.053 52.2133 109.458 52.0566 108.661 52.6479C107.864 53.2394 108.378 54.8955 108.378 54.8955Z" fill="#F7A491"/>
<path d="M34.9458 75.6766C34.5981 75.8649 34.3553 76.0379 34.2463 76.1204C34.2515 76.1091 34.2569 76.0976 34.2627 76.0861C34.3774 75.9658 34.771 75.5449 34.7744 75.5424C35.2918 75.1475 35.02 74.7253 34.5362 74.9872C34.0525 75.2491 33.7718 75.4814 33.7718 75.4814C33.7718 75.4814 34.6112 74.6629 34.6075 74.535C34.5954 74.1177 33.9649 74.1624 33.402 74.9796C32.9093 75.6949 33.6361 76.946 33.8469 77.242C34.0552 77.6717 34.4364 77.8714 34.4364 77.8714L34.5649 77.0552C34.5649 77.0552 34.7162 76.446 35.1841 76.2318C35.6518 76.0174 35.4295 75.4147 34.9458 75.6766Z" fill="#F7A491"/>
<path d="M110.364 52.3884C110.364 52.3884 111.642 51.3618 111.845 51.7987C112.048 52.2355 111.96 53.1798 111.769 53.1131C111.578 53.0464 111.604 52.3733 111.055 52.5488C110.902 52.5979 110.141 52.8378 110.364 52.3884Z" fill="#F7A491"/>
<path d="M80.2179 54.2466L73.2978 50.0413C72.5953 49.6144 72.3718 48.6988 72.7988 47.9963L77.0041 41.0761C77.431 40.3735 78.3466 40.1501 79.0491 40.577L85.9693 44.7824C86.6719 45.2093 86.8953 46.1249 86.4684 46.8275L82.2631 53.7476C81.836 54.4501 80.9204 54.6735 80.2179 54.2466Z" fill="#96D9C9"/>
<g clip-path="url(#clip0_4265_7254)">
<path d="M77.398 45.0301C77.4191 45.4741 77.4699 45.9163 77.55 46.3535L77.7368 46.4621C77.7917 46.3135 77.8356 46.161 77.868 46.0059C77.9833 45.4276 77.9463 44.8293 77.7604 44.2697L77.9985 44.1938C78.1976 44.7943 78.237 45.4362 78.1127 46.0564C78.0918 46.1581 78.0646 46.2589 78.0343 46.3591C78.0543 46.347 78.0745 46.3354 78.094 46.3215C78.6513 45.9225 79.0332 44.9933 78.6896 44.3944C78.6027 44.2582 78.4891 44.141 78.3557 44.0499C78.2222 43.9589 78.0717 43.8958 77.9132 43.8646C77.844 43.8449 77.7716 43.8396 77.7003 43.849C77.629 43.8584 77.5604 43.8823 77.4988 43.9193C77.3572 44.0309 77.3669 44.3769 77.398 45.0301Z" fill="white"/>
<path d="M79.9642 46.351C79.9939 46.2811 80.0147 46.2077 80.0262 46.1325C80.1062 45.6071 79.753 45.083 79.4074 44.9995C79.2917 44.9759 79.1715 44.9906 79.0649 45.0415C79.012 45.5908 78.7474 46.0979 78.3272 46.4557C78.3377 46.4517 78.349 46.4492 78.3593 46.4454C78.7614 46.2819 79.1098 46.0092 79.3649 45.6579L79.5661 45.8064C79.2836 46.1959 78.8971 46.498 78.4509 46.6779C78.3794 46.7061 78.3057 46.7287 78.2315 46.7499L78.7299 47.0396L78.7413 47.0406C78.8127 46.7874 78.9814 46.5728 79.2105 46.4436C79.4397 46.3145 79.7107 46.2814 79.9642 46.3515L79.9642 46.351Z" fill="white"/>
<path d="M81.3271 48.5483L82.4095 49.1773C82.3986 49.0376 82.3473 48.904 82.2617 48.793C82.2028 48.7258 82.1344 48.6675 82.0586 48.6201C81.9637 48.555 81.8561 48.4812 81.8645 48.3469C81.8739 48.2063 82.0011 48.1573 82.1034 48.1176C82.2016 48.0872 82.2913 48.0342 82.3653 47.9628C82.554 47.7609 82.7819 47.3704 82.6352 47.1212C82.5996 47.0659 82.5532 47.0184 82.4989 46.9814C82.4445 46.9445 82.3832 46.9188 82.3187 46.906C82.1282 46.8605 81.9276 46.8887 81.7571 46.9851C81.5783 47.099 81.5226 47.308 81.4688 47.51C81.415 47.712 81.3582 47.9241 81.1541 47.9738C80.9467 48.0246 80.7828 47.8592 80.6245 47.6985C80.5763 47.818 80.5042 47.9263 80.4126 48.0168L81.1074 48.4206C81.2234 48.2833 81.3429 48.1477 81.4659 48.0175C81.6761 47.795 81.8997 47.58 82.1303 47.3785L82.2948 47.5666C82.0702 47.763 81.8525 47.9725 81.6477 48.1894C81.538 48.3055 81.4312 48.4262 81.3271 48.5483Z" fill="white"/>
<path d="M80.1874 47.8862C80.2397 47.8418 80.2855 47.7902 80.3234 47.733L80.1089 47.6884L80.1599 47.4434L80.4285 47.4992C80.463 47.362 80.4581 47.2179 80.4144 47.0835C80.3707 46.949 80.2898 46.8296 80.1813 46.739L80.0613 46.9454L79.8451 46.8198L79.9651 46.6134C79.8515 46.5709 79.7292 46.5567 79.6088 46.5718C79.4885 46.5869 79.3735 46.631 79.2739 46.7002L79.4262 46.873L79.2386 47.0386L79.0946 46.8751C79.0799 46.8954 79.0662 46.9164 79.0535 46.938C79.0106 47.0116 78.9807 47.0921 78.9653 47.1759L80.1874 47.8862ZM79.7195 47.0359L79.9357 47.1616L79.8101 47.3777L79.5939 47.2521L79.7195 47.0359Z" fill="white"/>
<path d="M77.2693 46.1904C77.234 45.9728 77.2059 45.7533 77.1849 45.5318C77.0671 45.5073 76.9472 45.4935 76.8268 45.4905C76.734 45.4797 76.6403 45.502 76.5624 45.5537C76.5093 45.5943 76.4693 45.6496 76.4474 45.7127L77.2693 46.1904Z" fill="white"/>
<path d="M76.3185 45.9268C75.9089 46.6979 75.8137 47.5977 76.0529 48.4374C76.2921 49.2772 76.8471 49.9918 77.6016 50.4314L77.8177 50.557C78.5731 50.9949 79.4688 51.1234 80.3168 50.9155C81.1649 50.7076 81.8995 50.1795 82.3668 49.4418L76.3185 45.9268ZM76.7941 49.2248C76.4263 48.6809 76.2241 48.0421 76.2119 47.3856L76.4619 47.3808C76.4732 47.989 76.6605 48.581 77.0012 49.0849L76.7941 49.2248ZM77.2043 49.6223L76.9882 49.4966L77.1138 49.2805L77.33 49.4061L77.2043 49.6223Z" fill="white"/>
<path d="M82.5968 45.8165L82.7224 45.6004L82.2901 45.3492C82.0608 45.2159 81.788 45.1792 81.5316 45.2471C81.2752 45.315 81.0563 45.482 80.9231 45.7113L80.7974 45.9274L81.2297 46.1787C81.459 46.3119 81.7319 46.3486 81.9883 46.2807C82.2446 46.2128 82.4635 46.0458 82.5968 45.8165Z" fill="white"/>
<path d="M80.4178 44.8392C80.5372 44.9085 80.6902 44.868 80.7596 44.7486C80.8289 44.6293 80.7884 44.4762 80.669 44.4069C80.5497 44.3375 80.3966 44.378 80.3273 44.4974C80.2579 44.6168 80.2984 44.7698 80.4178 44.8392Z" fill="white"/>
<path d="M79.2012 43.6985C79.3206 43.7679 79.4736 43.7274 79.543 43.608C79.6124 43.4886 79.5719 43.3356 79.4525 43.2662C79.3331 43.1969 79.1801 43.2374 79.1107 43.3568C79.0413 43.4761 79.0819 43.6292 79.2012 43.6985Z" fill="white"/>
</g>
<path d="M118.792 13.3197L111.461 16.7587C110.717 17.1077 109.83 16.7875 109.481 16.0432L106.042 8.71198C105.693 7.96768 106.013 7.0813 106.758 6.73224L114.089 3.29323C114.833 2.94409 115.72 3.26438 116.069 4.00869L119.508 11.3399C119.857 12.0842 119.536 12.9706 118.792 13.3197Z" fill="#96D9C9"/>
<g clip-path="url(#clip1_4265_7254)">
<path d="M114.394 7.67992C114.334 7.56165 114.193 7.51038 114.071 7.56297L113.153 7.95851L112.856 7.26967C112.583 6.63561 111.847 6.34297 111.213 6.61603C110.579 6.8891 110.287 7.62446 110.56 8.25852L110.856 8.94736L109.938 9.34289C109.816 9.39506 109.756 9.53307 109.801 9.65761L111.171 13.3932C111.313 13.7823 111.743 13.9826 112.132 13.8406C112.146 13.8356 112.159 13.8302 112.173 13.8244L115.794 12.265C116.175 12.1018 116.351 11.6608 116.188 11.2801C116.182 11.2667 116.176 11.2535 116.169 11.2405L114.394 7.67992ZM111.019 8.06075C110.855 7.68031 111.031 7.2391 111.411 7.07526C111.792 6.91142 112.233 7.087 112.397 7.46744L112.693 8.15628L111.316 8.74959L111.019 8.06075Z" fill="white"/>
</g>
<path d="M86.7369 22.2008C86.7369 22.2008 86.9874 20.7661 88.4773 20.075C89.8056 19.4588 91.2377 20.148 91.8396 21.4453C92.5362 22.9469 92.1124 25.3025 89.5892 28.3494C85.6333 28.3081 83.5613 27.1103 82.8647 25.6087C82.2628 24.3114 82.6615 22.7729 83.9898 22.1566C85.4797 21.4656 86.7369 22.2008 86.7369 22.2008Z" fill="#F48C7F"/>
<path d="M38.7453 15.7615L29.9527 19.9511C28.9154 20.4454 27.674 20.0052 27.1797 18.968L24.8205 14.0169C24.3263 12.9796 24.7665 11.7381 25.8037 11.244L34.5963 7.05432C35.6336 6.56015 36.8749 7.00032 37.3692 8.03749L39.7284 12.9886C40.2227 14.0258 39.7824 15.2672 38.7453 15.7615Z" fill="#FAE0B2"/>
<path d="M26.364 16.2671L24.481 21.878L28.6637 18.7851L26.364 16.2671Z" fill="#FAE0B2"/>
<path d="M29.4679 14.0975L30.5802 13.5324C30.5802 13.5324 31.4811 11.7897 31.3432 11.3955C31.2053 11.0012 30.5899 10.3241 30.761 10.1184C30.9322 9.9127 31.3586 9.60872 31.892 9.96031C32.2792 10.2155 32.7379 11.6109 32.9123 11.6345C33.0214 11.6493 33.6698 11.3424 34.1399 11.1107C34.449 10.9583 34.8168 10.9904 35.0952 11.1936L35.096 11.1942C35.2841 11.3317 35.3505 11.582 35.255 11.7945L35.1063 12.1252L35.4305 12.2913C35.6717 12.4149 35.7679 12.7101 35.6459 12.9521L35.5215 13.1988L35.7316 13.2872C36.0023 13.401 36.1141 13.7247 35.9714 13.9813L35.8555 14.1897L35.9055 14.2255C36.1133 14.3743 36.1729 14.6573 36.0429 14.8773L35.9231 15.0797L32.9604 16.5844C32.6828 16.7254 32.3793 16.8081 32.0686 16.8276L30.9391 17.1845C30.8177 17.2229 30.6866 17.1666 30.6307 17.0523L29.3532 14.4396C29.2917 14.3135 29.3426 14.1612 29.4679 14.0975Z" fill="white"/>
<path d="M102.211 27.8505C108.857 26.3412 114.996 28.4272 115.923 32.5098C116.387 34.551 115.46 36.705 113.586 38.5373L117.65 43.944L110.911 40.5538C109.375 41.4571 107.562 42.182 105.568 42.6348C98.9225 44.1441 92.7833 42.0581 91.8561 37.9756C90.9288 33.893 95.5649 29.3599 102.211 27.8505Z" fill="#FAE0B2"/>
<path d="M108.611 34.9392C108.516 37.3126 106.515 39.1587 104.142 39.0626C101.769 38.9666 99.9224 36.9648 100.018 34.5914C100.114 32.2181 102.115 30.3719 104.488 30.4679C106.861 30.564 108.707 32.5658 108.611 34.9392Z" fill="#F7CC7F"/>
<path d="M101.99 35.353C101.939 36.622 102.926 37.6922 104.195 37.7436C105.463 37.795 106.533 36.8079 106.585 35.5389L101.99 35.353Z" fill="#EFEFEF"/>
<path d="M18.6065 46.8652L16.4138 47.3027L16.686 49.3686L14.545 49.8949L14.5615 51.9013L13.0237 52.5572L13.3557 53.3357L15.4125 52.4586L15.3967 50.5571L17.6241 50.0097L17.3564 47.9778L19.3434 47.5814L18.6065 46.8652Z" fill="#F48C7F"/>
<path d="M164.672 63.8589L164.06 61.7083L162.022 62.1452L161.326 60.0534L159.327 60.2309L158.55 58.7505L157.801 59.1438L158.84 61.1236L160.734 60.9555L161.459 63.1318L163.463 62.7019L164.017 64.6508L164.672 63.8589Z" fill="#F7CC7F"/>
<path d="M18.9695 23.9247L17.7438 24.3009L16.9207 22.3956L15.0608 22.7245L14.2117 21.3994L13.541 21.8293L14.6766 23.6015L16.4392 23.2899L17.2954 25.2719L19.1398 24.7059L18.9695 23.9247Z" fill="#50BFA5"/>
<path d="M64.4055 31.6297C63.9777 31.2769 62.9787 30.9873 62.4815 30.9426C61.9843 30.8979 59.8129 30.8993 59.5316 31.4213C59.2503 31.9434 61.5299 33.4227 61.6514 34.0374C61.7729 34.6521 60.3313 44.197 59.9151 46.0925C59.7098 47.0273 58.9217 48.788 58.1756 50.3329C59.2487 50.5044 60.56 51.3822 61.3835 52.0084C62.439 49.6995 63.5188 47.1039 63.6533 45.8838C63.9246 43.421 64.8335 31.9825 64.4055 31.6297Z" fill="#F7A491"/>
<path d="M70.7021 15.1636C69.9622 15.1014 66.0924 18.0526 66.0924 18.0526L65.9195 18.284C65.9195 18.284 71.1441 19.1668 71.3894 19.0028C72.0513 18.5598 71.31 15.2147 70.7021 15.1636ZM66.105 18.1427C67.3661 17.2255 69.964 16.102 70.5236 15.8657C70.8114 16.3963 71.0742 17.7941 70.9972 18.3699C70.3811 18.3235 67.6334 18.3859 66.105 18.1427Z" fill="#466EB6"/>
<path d="M65.0502 12.7173C64.3806 10.9258 63.7267 11.0094 63.2631 11.0698C62.7993 11.1301 60.715 12.6062 60.9097 13.7412C61.1046 14.876 65.275 18.19 65.275 18.19L65.5511 17.8704C65.5511 17.8704 65.7197 14.5088 65.0502 12.7173ZM61.5443 13.6299C61.4473 13.0638 62.8929 11.8575 63.3686 11.7058C63.4788 11.6916 63.574 11.6812 63.6473 11.7021C63.7355 11.7273 64.0535 11.8912 64.4465 12.9428C64.8762 14.0924 65.3257 16.752 65.3194 17.8139C63.6564 16.424 61.6529 14.1174 61.5443 13.6299Z" fill="#466EB6"/>
<path d="M65.3096 18.8908L65.5367 18.9557C65.7618 19.0199 65.9964 18.8896 66.0607 18.6645L66.2515 17.9963C66.3158 17.7712 66.1854 17.5366 65.9603 17.4724L65.7331 17.4075C65.508 17.3433 65.2734 17.4736 65.2091 17.6987L65.0183 18.3669C64.9541 18.5919 65.0845 18.8265 65.3096 18.8908Z" fill="#466EB6"/>
<path d="M69.5496 33.5126L55.159 29.4033C54.3813 29.1813 53.9093 28.3936 54.0803 27.6031L56.6264 15.8286L75.3667 21.18L71.143 32.9947C70.9663 33.4886 70.2646 33.7168 69.5496 33.5126Z" fill="#F47458"/>
<path d="M75.4203 23.9231L55.0649 18.1525L55.2221 16.7829C55.3164 15.9613 56.1265 15.4214 56.9211 15.6506L75.3163 20.9582C75.9702 21.1469 76.3673 21.6963 76.1756 22.1472L75.4203 23.9231Z" fill="#FAE0B2"/>
<path d="M65.618 18.15L64.8265 20.9229L65.2137 21.0334L66.0053 18.2605L65.618 18.15Z" fill="#466EB6"/>
<path d="M65.2197 21.02L62.2442 31.4434L62.7283 31.5816L65.7038 21.1582L65.2197 21.02Z" fill="#466EB6"/>
<path d="M60.6967 31.6135L60.7488 31.0013C60.2542 30.8614 59.6844 30.6552 59.3919 30.5322L59.3125 30.0647C59.0539 29.424 58.7668 29.8811 58.683 30.0272C58.683 30.0272 58.6619 30.8492 58.7541 30.9452C58.7541 30.9452 59.7244 31.9698 60.1384 32.3573C60.3434 32.5492 60.998 33.0806 60.998 33.0806L61.5185 32.3591L60.6967 31.6135Z" fill="#F7A491"/>
<defs>
<clipPath id="clip0_4265_7254">
<rect width="8" height="8" fill="white" transform="translate(78.0198 42) rotate(30.1638)"/>
</clipPath>
<clipPath id="clip1_4265_7254">
<rect width="7" height="7" fill="white" transform="translate(108 8) rotate(-23.2995)"/>
</clipPath>
</defs>
</svg>
