<svg width="300" height="300" viewBox="0 0 300 300" fill="none" xmlns="http://www.w3.org/2000/svg">
<path fill-rule="evenodd" clip-rule="evenodd" d="M106.816 205.372C79.8633 198.165 56.6602 202.794 44.6484 216.504C32.5781 230.157 21.7969 225.821 12.5391 232.501V290.45C24.5508 283.653 58.9453 281.309 81.0352 287.227C103.125 293.145 145.547 312.071 187.266 288.047C225.059 265.079 301.934 217.09 285.176 199.805C280.43 195.059 274.043 190.723 250.254 206.661C239.766 213.692 216.27 227.344 193.301 240.469C200.684 228.223 187.207 213.633 171.738 213.751C158.496 213.633 133.828 212.579 106.816 205.372Z" fill="#FFBFA8"/>
<mask id="mask0_8171_1963" style="mask-type:luminance" maskUnits="userSpaceOnUse" x="12" y="195" width="276" height="105">
<path d="M106.816 205.372C79.8633 198.165 56.6602 202.794 44.6484 216.504C32.5781 230.157 21.7969 225.821 12.5391 232.501V290.45C24.5508 283.653 58.9453 281.309 81.0352 287.227C103.125 293.145 145.547 312.071 187.266 288.047C225.059 265.079 301.934 217.09 285.176 199.805C280.43 195.059 274.043 190.723 250.254 206.661C239.766 213.692 216.27 227.344 193.301 240.469C200.684 228.223 187.207 213.633 171.738 213.751C158.496 213.633 133.828 212.579 106.816 205.372Z" fill="white"/>
</mask>
<g mask="url(#mask0_8171_1963)">
<path fill-rule="evenodd" clip-rule="evenodd" d="M106.816 189.376C79.8633 182.169 56.6602 186.797 44.6484 200.508C32.5781 214.161 21.7969 209.825 12.5391 216.504V274.454C24.5508 267.657 58.9453 265.313 81.0352 271.231C103.125 277.149 145.547 296.075 187.266 272.051C225 249.024 301.875 201.036 285.117 183.751C280.371 179.004 273.984 174.669 250.195 190.606C239.707 197.637 216.211 211.29 193.242 224.415C200.625 212.169 187.148 197.579 171.68 197.696C158.496 197.696 133.828 196.641 106.816 189.376Z" fill="#FFCEBF"/>
<path fill-rule="evenodd" clip-rule="evenodd" d="M191.836 235.43C192.48 231.212 198.984 232.208 198.34 236.427C195 250.782 180 248.497 163.945 249.376C146.016 249.552 123.105 252.188 110.508 261.153C107.285 263.907 103.008 258.692 106.348 256.055C120.059 245.977 144.551 242.989 163.945 242.813C174.609 242.813 181.758 242.344 186.27 240.88C189.785 239.766 191.426 238.067 191.836 235.43Z" fill="#FFBFA8"/>
</g>
<path fill-rule="evenodd" clip-rule="evenodd" d="M210.352 39.9609C244.277 39.9609 271.758 67.4414 271.758 101.367C268.535 182.871 152.109 182.813 148.887 101.367C148.945 67.4414 176.426 39.9609 210.352 39.9609Z" fill="#E39127"/>
<mask id="mask1_8171_1963" style="mask-type:luminance" maskUnits="userSpaceOnUse" x="148" y="39" width="124" height="124">
<path d="M210.352 39.9609C244.277 39.9609 271.758 67.4414 271.758 101.367C268.535 182.871 152.109 182.813 148.887 101.367C148.945 67.4414 176.426 39.9609 210.352 39.9609Z" fill="white"/>
</mask>
<g mask="url(#mask1_8171_1963)">
<path fill-rule="evenodd" clip-rule="evenodd" d="M194.883 157.852C228.691 157.852 256.289 130.254 256.289 96.4458C252.832 14.9419 136.875 15.0005 133.418 96.4458C133.477 130.254 161.074 157.852 194.883 157.852Z" fill="#F99E27"/>
</g>
<path fill-rule="evenodd" clip-rule="evenodd" d="M227.051 88.0078C227.051 92.3437 220.488 92.3437 220.43 88.0078C220.43 82.4414 215.859 77.9297 210.352 77.9297C201.562 77.6367 196.875 89.2969 203.203 95.1562C205.02 96.9727 207.598 98.1445 210.352 98.1445C214.922 98.1445 219.141 100.02 222.129 103.066C231.563 111.797 226.348 129.141 213.633 131.25C213.223 134.766 215.273 142.031 210.352 142.09C205.371 141.973 207.48 134.766 207.07 131.25C199.395 129.668 193.652 122.871 193.652 114.902C193.652 113.086 195.117 111.621 196.934 111.621C198.75 111.621 200.215 113.086 200.215 114.902C202.266 133.828 229.277 122.871 217.617 107.93C215.742 105.996 213.164 104.824 210.352 104.824C205.781 104.824 201.562 102.949 198.574 99.9023C189.141 91.1719 194.355 73.8281 207.07 71.7187C207.48 68.0859 205.43 60.9961 210.352 60.8203C215.332 60.9375 213.223 68.0859 213.633 71.7187C221.367 73.1836 227.051 79.9805 227.051 88.0078Z" fill="#FFE45E"/>
<path fill-rule="evenodd" clip-rule="evenodd" d="M101.777 147.07C61.4063 147.07 28.3008 114.023 28.3008 73.5938C28.3008 33.2227 61.3477 0.117188 101.777 0.117188C142.148 0.117188 175.254 33.1641 175.254 73.5938C175.254 114.023 142.207 147.07 101.777 147.07Z" fill="#FCCB5E"/>
<mask id="mask2_8171_1963" style="mask-type:luminance" maskUnits="userSpaceOnUse" x="28" y="0" width="148" height="148">
<path d="M101.777 147.07C61.4063 147.07 28.3008 114.023 28.3008 73.5938C28.3008 33.2227 61.3477 0.117188 101.777 0.117188C142.148 0.117188 175.254 33.1641 175.254 73.5938C175.254 114.023 142.207 147.07 101.777 147.07Z" fill="white"/>
</mask>
<g mask="url(#mask2_8171_1963)">
<path fill-rule="evenodd" clip-rule="evenodd" d="M86.3086 142.09C45.9375 142.09 12.8906 109.043 12.8906 68.6719C12.8906 28.2422 45.9375 -4.80469 86.3086 -4.80469C126.68 -4.80469 159.785 28.2422 159.785 68.6719C159.785 109.043 126.738 142.09 86.3086 142.09Z" fill="#FFE45E"/>
</g>
<path fill-rule="evenodd" clip-rule="evenodd" d="M105.527 41.0146L115.195 59.2959L135.586 62.8701C137.168 63.1631 138.399 64.2178 138.867 65.7412C139.336 67.2647 138.985 68.8467 137.871 70.0186L123.457 84.9014L126.387 105.409C126.621 106.991 125.977 108.456 124.688 109.452C123.399 110.39 121.758 110.565 120.352 109.804L101.777 100.722L83.2033 109.745C81.7384 110.448 80.1564 110.331 78.8673 109.394C77.5783 108.456 76.9337 106.991 77.1681 105.351L80.0978 84.8428L65.6251 69.96C64.5118 68.7881 64.1603 67.2061 64.629 65.6826C65.0978 64.1592 66.3283 63.1045 67.9103 62.8115L88.3009 59.2373L98.0275 41.0146C99.4923 38.0264 104.121 38.0264 105.527 41.0146Z" fill="white"/>
</svg>
