<svg width="328" height="71" viewBox="0 0 328 71" fill="none" xmlns="http://www.w3.org/2000/svg">
<path fill-rule="evenodd" clip-rule="evenodd" d="M10 0.26709H247.492C247.843 1.463 248.489 2.56393 249.386 3.46101C250.674 4.74922 252.383 5.52041 254.189 5.64104V7.23879C254.189 7.79108 254.637 8.23879 255.189 8.23879C255.742 8.23879 256.189 7.79108 256.189 7.23879V5.50622C257.62 5.21426 258.945 4.50859 259.993 3.46102C260.89 2.56394 261.536 1.463 261.887 0.26709H318C323.523 0.26709 328 4.74424 328 10.2671V60.2671C328 65.7899 323.523 70.2671 318 70.2671H262.107C261.871 68.6884 261.135 67.2155 259.993 66.0732C258.945 65.0256 257.62 64.3199 256.189 64.028V62.4465C256.189 61.8942 255.742 61.4465 255.189 61.4465C254.637 61.4465 254.189 61.8942 254.189 62.4465V63.8931C252.383 64.0138 250.674 64.785 249.386 66.0732C248.244 67.2155 247.508 68.6884 247.272 70.2671H9.99999C4.47714 70.2671 0 65.7899 0 60.2671V10.2671C0 4.74424 4.47715 0.26709 10 0.26709ZM256.189 13.1539C256.189 12.6016 255.742 12.1539 255.189 12.1539C254.637 12.1539 254.189 12.6016 254.189 13.1539V17.0973C254.189 17.6496 254.637 18.0973 255.189 18.0973C255.742 18.0973 256.189 17.6496 256.189 17.0973V13.1539ZM256.189 23.0124C256.189 22.4601 255.742 22.0124 255.189 22.0124C254.637 22.0124 254.189 22.4601 254.189 23.0124V26.9558C254.189 27.5081 254.637 27.9558 255.189 27.9558C255.742 27.9558 256.189 27.5081 256.189 26.9558V23.0124ZM256.189 32.8709C256.189 32.3187 255.742 31.8709 255.189 31.8709C254.637 31.8709 254.189 32.3187 254.189 32.8709V36.8144C254.189 37.3666 254.637 37.8144 255.189 37.8144C255.742 37.8144 256.189 37.3666 256.189 36.8144V32.8709ZM256.189 42.7295C256.189 42.1772 255.742 41.7295 255.189 41.7295C254.637 41.7295 254.189 42.1772 254.189 42.7295V46.6729C254.189 47.2252 254.637 47.6729 255.189 47.6729C255.742 47.6729 256.189 47.2252 256.189 46.6729V42.7295ZM256.189 52.588C256.189 52.0357 255.742 51.588 255.189 51.588C254.637 51.588 254.189 52.0357 254.189 52.588V56.5314C254.189 57.0837 254.637 57.5314 255.189 57.5314C255.742 57.5314 256.189 57.0837 256.189 56.5314V52.588Z" fill="white"/>
</svg>
