<svg width="208" height="62" viewBox="0 0 208 62" fill="none" xmlns="http://www.w3.org/2000/svg">
<path fill-rule="evenodd" clip-rule="evenodd" d="M10 0H138.303C138.653 1.19591 139.3 2.29684 140.197 3.19392C141.485 4.48213 143.193 5.25332 145 5.37395V7.08C145 7.63229 145.448 8.08 146 8.08C146.552 8.08 147 7.63229 147 7.08V5.23912C148.43 4.94717 149.756 4.2415 150.803 3.19393C151.7 2.29685 152.347 1.19591 152.697 0H198C203.523 0 208 4.47715 208 10V52C208 57.5228 203.523 62 198 62H152.697C152.347 60.8041 151.7 59.7032 150.803 58.8061C149.756 57.7585 148.43 57.0528 147 56.7609V54.92C147 54.3677 146.552 53.92 146 53.92C145.448 53.92 145 54.3677 145 54.92V56.626C143.193 56.7467 141.485 57.5179 140.197 58.8061C139.3 59.7032 138.653 60.8041 138.303 62H10C4.47715 62 0 57.5228 0 52V10C0 4.47715 4.47715 0 10 0ZM147 13.32C147 12.7677 146.552 12.32 146 12.32C145.448 12.32 145 12.7677 145 13.32V17.48C145 18.0323 145.448 18.48 146 18.48C146.552 18.48 147 18.0323 147 17.48V13.32ZM147 23.72C147 23.1677 146.552 22.72 146 22.72C145.448 22.72 145 23.1677 145 23.72V27.88C145 28.4323 145.448 28.88 146 28.88C146.552 28.88 147 28.4323 147 27.88V23.72ZM147 34.12C147 33.5677 146.552 33.12 146 33.12C145.448 33.12 145 33.5677 145 34.12V38.28C145 38.8323 145.448 39.28 146 39.28C146.552 39.28 147 38.8323 147 38.28V34.12ZM147 44.52C147 43.9677 146.552 43.52 146 43.52C145.448 43.52 145 43.9677 145 44.52V48.68C145 49.2323 145.448 49.68 146 49.68C146.552 49.68 147 49.2323 147 48.68V44.52Z" fill="white"/>
</svg>
