<svg width="64" height="64" viewBox="0 0 64 64" fill="none" xmlns="http://www.w3.org/2000/svg">
<g id="Vehicle Not Found">
<path id="Union" fill-rule="evenodd" clip-rule="evenodd" d="M37.5554 22.3144C35.911 23.4132 33.9776 23.9996 31.9998 23.9996C29.349 23.9953 26.8081 22.9403 24.9337 21.0659C23.0593 19.1916 22.0044 16.6506 22 13.9998C22 12.022 22.5865 10.0887 23.6853 8.44422C24.7841 6.79976 26.3458 5.51806 28.1731 4.7612C30.0003 4.00433 32.0109 3.8063 33.9507 4.19215C35.8905 4.57799 37.6723 5.53038 39.0708 6.92888C40.4693 8.32738 41.4217 10.1092 41.8075 12.049C42.1933 13.9887 41.9953 15.9994 41.2384 17.8266C40.895 18.6557 40.4436 19.4301 39.8992 20.1314L42.8839 23.1161C43.372 23.6043 43.372 24.3957 42.8839 24.8839C42.3957 25.372 41.6043 25.372 41.1161 24.8839L38.1314 21.8992C37.9448 22.044 37.7527 22.1825 37.5554 22.3144ZM27.5074 10.4999C27.5074 10.7658 27.6125 11.021 27.7999 11.2098L30.5899 13.9998L27.7999 16.7797C27.6116 16.9667 27.5053 17.2208 27.5043 17.4862C27.5034 17.7516 27.6079 18.0064 27.7949 18.1947C27.9819 18.383 28.236 18.4894 28.5014 18.4903C28.7667 18.4912 29.0216 18.3867 29.2099 18.1997L31.9998 15.4097L34.7897 18.1998C34.978 18.3868 35.2329 18.4913 35.4983 18.4904C35.7636 18.4894 36.0178 18.3831 36.2047 18.1948C36.3917 18.0065 36.4962 17.7516 36.4953 17.4863C36.4944 17.2209 36.388 16.9668 36.1997 16.7798L33.4197 13.9999L36.1997 11.2099C36.3871 11.0211 36.4923 10.7659 36.4923 10.4999C36.4923 10.2339 36.3871 9.97868 36.1997 9.78988C36.1072 9.69716 35.9973 9.6236 35.8764 9.57341C35.7554 9.52322 35.6257 9.49738 35.4947 9.49738C35.3638 9.49738 35.2341 9.52322 35.1131 9.57341C34.9921 9.6236 34.8822 9.69716 34.7897 9.78988L31.9998 12.5798L29.2099 9.78988C29.1174 9.69716 29.0075 9.6236 28.8865 9.57341C28.7656 9.52322 28.6359 9.49738 28.5049 9.49738C28.3739 9.49738 28.2442 9.52322 28.1233 9.57341C28.0023 9.6236 27.8924 9.69716 27.7999 9.78988C27.6125 9.97867 27.5074 10.2339 27.5074 10.4999Z" fill="#808080" fill-opacity="0.6"/>
<g id="Union_2">
<path fill-rule="evenodd" clip-rule="evenodd" d="M58.4103 35.7046C59.1111 36.3251 59.6122 37.1393 59.8503 38.0445C60.0321 38.2264 60.0053 42.8394 59.9868 46.0281C59.9778 47.5738 59.9708 48.7855 59.9904 48.9944C59.989 49.9679 59.7046 50.92 59.172 51.7348C58.6394 52.5497 57.8815 53.1922 56.9904 53.5843C56.3582 53.8542 55.6779 53.9937 54.9904 53.9943H46.6906L44.8706 48.6744C44.8035 48.4758 44.6757 48.3033 44.5052 48.1812C44.3347 48.0592 44.1302 47.9938 43.9206 47.9944H20.3111C20.1056 47.9947 19.9052 48.0582 19.7371 48.1763C19.5689 48.2943 19.4412 48.4613 19.3711 48.6544L17.4111 53.9943H9.01119C8.32372 53.9937 7.64346 53.8542 7.01119 53.5843C6.12008 53.1934 5.36248 52.5509 4.83135 51.7355C4.30022 50.9202 4.01868 49.9675 4.02126 48.9944C4.03635 48.8104 4.02868 47.7636 4.01857 46.3844C3.99519 43.1921 3.95875 38.2192 4.16126 38.0446C4.38949 37.1636 4.86895 36.368 5.54126 35.7547C7.5612 34.0647 9.7912 32.1048 10.8912 31.0048H7.7312C7.01608 30.9972 6.33281 30.7079 5.82978 30.1995C5.32675 29.6912 5.04459 29.0049 5.04459 28.2898C5.04459 27.5746 5.32675 26.8883 5.82978 26.38C6.33281 25.8716 7.01608 25.5823 7.7312 25.5748C8.12071 25.5986 8.60569 25.5853 9.13147 25.5708C10.59 25.5306 12.3624 25.4818 13.2812 26.1948C14.1711 23.9548 15.2411 21.2249 16.0511 19.1149C16.395 18.2759 16.9614 17.5466 17.6891 17.0056C18.4169 16.4646 19.2785 16.1325 20.1811 16.0449C20.2884 16.7162 20.4591 17.3758 20.6911 18.0149H20.6811C20.0874 18.0112 19.5062 18.1855 19.0124 18.5152C18.5187 18.845 18.1351 19.3151 17.9111 19.8649C17.6411 20.5748 13.4911 30.8647 13.4111 31.0047H50.5906C50.5105 30.8647 46.3406 20.5449 46.0806 19.8349C45.8532 19.2918 45.4692 18.8288 44.9777 18.5046C44.4862 18.1805 43.9094 18.01 43.3206 18.0149H43.3106C43.5425 17.3758 43.7133 16.7162 43.8206 16.0449C44.7198 16.1305 45.5786 16.4597 46.3045 16.9971C47.0305 17.5346 47.5961 18.2598 47.9405 19.0948C48.7605 21.2147 49.8305 23.9547 50.7204 26.1947C51.6554 25.4823 53.4328 25.5298 54.9005 25.569C55.4107 25.5827 55.8835 25.5953 56.2704 25.5747C56.9905 25.5747 57.681 25.8607 58.1902 26.3699C58.6994 26.879 58.9854 27.5696 58.9854 28.2897C58.9854 29.0097 58.6994 29.7003 58.1902 30.2095C57.681 30.7186 56.9905 31.0047 56.2704 31.0047H53.1104C54.2004 32.0946 56.4304 34.0546 58.4103 35.7046ZM19.1257 43.8634C19.281 43.7699 19.4074 43.6353 19.4911 43.4744C19.5791 43.315 19.621 43.1343 19.6122 42.9524C19.6033 42.7705 19.5441 42.5947 19.4411 42.4445L16.7711 38.4445C16.6788 38.3095 16.555 38.1988 16.4104 38.1222C16.2658 38.0456 16.1048 38.0052 15.9411 38.0045H8.01128C7.7463 38.0053 7.49239 38.1109 7.30503 38.2983C7.11765 38.4856 7.01205 38.7395 7.01128 39.0045C7.01177 40.3304 7.53871 41.6019 8.47626 42.5395C9.41382 43.477 10.6853 44.004 12.0112 44.0045H18.6111C18.7923 44.0057 18.9704 43.9569 19.1257 43.8634ZM41.4307 43.5645L44.0907 39.5645C44.1903 39.4136 44.2473 39.2386 44.2559 39.0579C44.2644 38.8772 44.2241 38.6976 44.1391 38.5379C44.0542 38.3783 43.9277 38.2445 43.7731 38.1506C43.6185 38.0567 43.4415 38.0063 43.2606 38.0045H20.741C20.5599 38.0057 20.3826 38.0559 20.2276 38.1496C20.0727 38.2434 19.946 38.3773 19.861 38.5371C19.7759 38.697 19.7357 38.8769 19.7445 39.0577C19.7533 39.2386 19.8108 39.4137 19.911 39.5645L22.581 43.5645C22.6734 43.6995 22.7972 43.8101 22.9417 43.8868C23.0863 43.9634 23.2473 44.0038 23.411 44.0045H40.6007C40.7643 44.0038 40.9253 43.9634 41.0699 43.8868C41.2145 43.8101 41.3383 43.6995 41.4307 43.5645ZM45.3906 44.0045H51.9905C53.3164 44.004 54.5878 43.4771 55.5254 42.5395C56.463 41.6019 56.9899 40.3305 56.9904 39.0045C56.9896 38.7396 56.884 38.4857 56.6966 38.2983C56.5093 38.1109 56.2554 38.0053 55.9904 38.0045H48.0605C47.8969 38.0052 47.7359 38.0456 47.5913 38.1222C47.4467 38.1989 47.3229 38.3095 47.2305 38.4445L44.5606 42.4445C44.4631 42.5959 44.4077 42.7705 44.4002 42.9504C44.3927 43.1303 44.4334 43.309 44.518 43.468C44.6025 43.6269 44.728 43.7605 44.8814 43.8548C45.0348 43.9491 45.2106 44.0008 45.3906 44.0045Z" fill="#808080" fill-opacity="0.4"/>
<path d="M19.54 53.9979L21.009 49.9999H43.206L44.575 53.9979H19.54Z" fill="#808080" fill-opacity="0.4"/>
<path d="M5.01807 54.7477V56.9964C5.02039 57.7908 5.33702 58.5521 5.89881 59.1139C6.4606 59.6757 7.22188 59.9923 8.01637 59.9947H14.0129C14.8074 59.9924 15.5687 59.6757 16.1305 59.1139C16.6923 58.5521 17.0089 57.7909 17.0112 56.9964V55.9969H9.01577C7.58645 56.0015 6.19048 55.5652 5.01807 54.7477Z" fill="#808080" fill-opacity="0.4"/>
<path d="M46.9941 56.9963V55.9969H54.9896C56.4187 55.9998 57.8141 55.5637 58.9873 54.7477V56.9963C58.985 57.7908 58.6684 58.5521 58.1066 59.1139C57.5448 59.6757 56.7835 59.9923 55.989 59.9947H49.9924C49.1979 59.9923 48.4367 59.6757 47.8749 59.1139C47.3131 58.5521 46.9965 57.7908 46.9941 56.9963Z" fill="#808080" fill-opacity="0.4"/>
</g>
</g>
</svg>
